; NON-PLATED HOLES START AT T1
; THROUGH (PLATED) HOLES START AT T100
M48
INCH
T1C0.086614
T2C0.070000
T3C0.048000
T100C0.038000
T101C0.031497
T102C0.015748
T103C0.035000
T104C0.032000
T105C0.055118
%
T1
X002412Y003285
X002412Y036285
X053412Y002285
X053412Y036285
T2
X054348Y007707
X054348Y009853
T3
X053150Y009738
X053150Y007832
T100
X036412Y012285
X037412Y005285
X049412Y012285
X040412Y005285
X048412Y012285
X042412Y005285
X035412Y005285
X051412Y005285
X043412Y012285
X044412Y005285
X046412Y005285
X004412Y008285
X053412Y012285
X045412Y012285
X038412Y005285
X047412Y012285
X039412Y005285
X054412Y005285
X050412Y005285
X041412Y005285
X052412Y005285
X052412Y012285
X041412Y012285
X050412Y012285
X053412Y005285
X042582Y007495
X046412Y012285
X047412Y005285
X039412Y012285
X054412Y012285
X045412Y005285
X038412Y012285
X043412Y005285
X005412Y008285
X042582Y006495
X044412Y012285
X036412Y005285
X048412Y005285
X035412Y012285
X051412Y012285
X042412Y012285
X042582Y008495
X040412Y012285
X037412Y012285
X049412Y005285
T101
X009412Y008285
X008428Y008285
X025428Y018285
X026412Y018285
T102
X055800Y014103
X028920Y026343
X036840Y006423
X035400Y010743
X041160Y006183
X045480Y016743
X039960Y022263
X052680Y008583
X045240Y011223
T103
X045412Y022285
X009412Y020513
X013412Y002285
X006853Y022285
X043972Y022285
X022412Y020513
X047972Y020513
X028972Y020513
X002853Y020513
X013412Y006285
X041412Y020513
X005412Y022285
X024972Y022285
X026412Y022285
X041412Y022285
X005412Y020513
X002853Y022285
X006853Y020513
X012412Y002285
X026412Y020513
X024972Y020513
X043972Y020513
X022412Y022285
X009412Y022285
X045412Y020513
X028972Y022285
X047972Y022285
X012412Y006285
T104
X003412Y027498
X031412Y028072
X003412Y029072
X031412Y029647
X003412Y029860
X031412Y027285
X003412Y028285
X031412Y028860
T105
X004412Y004285
X007168Y004285
T00
M30
