G04 MADE WITH FRITZING*
G04 WWW.FRITZING.ORG*
G04 DOUBLE SIDED*
G04 HOLES PLATED*
G04 CONTOUR ON CENTER OF CONTOUR VECTOR*
%ASAXBY*%
%FSLAX23Y23*%
%MOIN*%
%OFA0B0*%
%SFA1.0B1.0*%
%ADD10C,0.005000*%
%ADD10C,0.008*%
%LNCONTOUR*%
G90*
G70*
G54D10*
G54D10*
X354Y3822D02*
X355Y3822D01*
X356Y3822D01*
X357Y3822D01*
X358Y3822D01*
X359Y3822D01*
X360Y3822D01*
X361Y3822D01*
X362Y3822D01*
X363Y3822D01*
X364Y3822D01*
X365Y3822D01*
X366Y3822D01*
X367Y3822D01*
X368Y3822D01*
X369Y3822D01*
X370Y3822D01*
X371Y3822D01*
X372Y3822D01*
X373Y3822D01*
X374Y3822D01*
X375Y3822D01*
X376Y3822D01*
X377Y3822D01*
X378Y3822D01*
X379Y3822D01*
X380Y3822D01*
X381Y3822D01*
X382Y3822D01*
X383Y3822D01*
X384Y3822D01*
X385Y3822D01*
X386Y3822D01*
X387Y3822D01*
X388Y3822D01*
X389Y3822D01*
X390Y3822D01*
X391Y3822D01*
X392Y3822D01*
X393Y3822D01*
X394Y3822D01*
X395Y3822D01*
X396Y3822D01*
X397Y3822D01*
X398Y3822D01*
X399Y3822D01*
X400Y3822D01*
X401Y3822D01*
X402Y3822D01*
X403Y3822D01*
X404Y3822D01*
X405Y3822D01*
X406Y3822D01*
X407Y3822D01*
X408Y3822D01*
X409Y3822D01*
X410Y3822D01*
X411Y3822D01*
X412Y3822D01*
X413Y3822D01*
X414Y3822D01*
X415Y3822D01*
X416Y3822D01*
X417Y3822D01*
X418Y3822D01*
X419Y3822D01*
X420Y3822D01*
X421Y3822D01*
X422Y3822D01*
X423Y3822D01*
X424Y3822D01*
X425Y3822D01*
X426Y3822D01*
X427Y3822D01*
X428Y3822D01*
X429Y3822D01*
X430Y3822D01*
X431Y3822D01*
X432Y3822D01*
X433Y3822D01*
X434Y3822D01*
X435Y3822D01*
X436Y3822D01*
X437Y3822D01*
X438Y3822D01*
X439Y3822D01*
X440Y3822D01*
X441Y3822D01*
X442Y3822D01*
X443Y3822D01*
X444Y3822D01*
X445Y3822D01*
X446Y3822D01*
X447Y3822D01*
X448Y3822D01*
X449Y3822D01*
X450Y3822D01*
X451Y3822D01*
X452Y3822D01*
X453Y3822D01*
X454Y3822D01*
X455Y3822D01*
X456Y3822D01*
X457Y3822D01*
X458Y3822D01*
X459Y3822D01*
X460Y3822D01*
X461Y3822D01*
X462Y3822D01*
X463Y3822D01*
X464Y3822D01*
X465Y3822D01*
X466Y3822D01*
X467Y3822D01*
X468Y3822D01*
X469Y3822D01*
X470Y3822D01*
X471Y3822D01*
X472Y3822D01*
X473Y3822D01*
X474Y3822D01*
X475Y3822D01*
X476Y3822D01*
X477Y3822D01*
X478Y3822D01*
X479Y3822D01*
X480Y3822D01*
X481Y3822D01*
X482Y3822D01*
X483Y3822D01*
X484Y3822D01*
X485Y3822D01*
X486Y3822D01*
X487Y3822D01*
X488Y3822D01*
X489Y3822D01*
X490Y3822D01*
X491Y3822D01*
X492Y3822D01*
X493Y3822D01*
X494Y3822D01*
X495Y3822D01*
X496Y3822D01*
X497Y3822D01*
X498Y3822D01*
X499Y3822D01*
X500Y3822D01*
X501Y3822D01*
X502Y3822D01*
X503Y3822D01*
X504Y3822D01*
X505Y3822D01*
X506Y3822D01*
X507Y3822D01*
X508Y3822D01*
X509Y3822D01*
X510Y3822D01*
X511Y3822D01*
X512Y3822D01*
X513Y3822D01*
X514Y3822D01*
X515Y3822D01*
X516Y3822D01*
X517Y3822D01*
X518Y3822D01*
X519Y3822D01*
X520Y3822D01*
X521Y3822D01*
X522Y3822D01*
X523Y3822D01*
X524Y3822D01*
X525Y3822D01*
X526Y3822D01*
X527Y3822D01*
X528Y3822D01*
X529Y3822D01*
X530Y3822D01*
X531Y3822D01*
X532Y3822D01*
X533Y3822D01*
X534Y3822D01*
X535Y3822D01*
X536Y3822D01*
X537Y3822D01*
X538Y3822D01*
X539Y3822D01*
X540Y3822D01*
X541Y3822D01*
X542Y3822D01*
X543Y3822D01*
X544Y3822D01*
X545Y3822D01*
X546Y3822D01*
X547Y3822D01*
X548Y3822D01*
X549Y3822D01*
X550Y3822D01*
X551Y3822D01*
X552Y3822D01*
X553Y3822D01*
X554Y3822D01*
X555Y3822D01*
X556Y3822D01*
X557Y3822D01*
X558Y3822D01*
X559Y3822D01*
X560Y3822D01*
X561Y3822D01*
X562Y3822D01*
X563Y3822D01*
X564Y3822D01*
X565Y3822D01*
X566Y3822D01*
X567Y3822D01*
X568Y3822D01*
X569Y3822D01*
X570Y3822D01*
X571Y3822D01*
X572Y3822D01*
X573Y3822D01*
X574Y3822D01*
X575Y3822D01*
X576Y3822D01*
X577Y3822D01*
X578Y3822D01*
X579Y3822D01*
X580Y3822D01*
X581Y3822D01*
X582Y3822D01*
X583Y3822D01*
X584Y3822D01*
X585Y3822D01*
X586Y3822D01*
X587Y3822D01*
X588Y3822D01*
X589Y3822D01*
X590Y3822D01*
X591Y3822D01*
X592Y3822D01*
X593Y3822D01*
X594Y3822D01*
X595Y3822D01*
X596Y3822D01*
X597Y3822D01*
X598Y3822D01*
X599Y3822D01*
X600Y3822D01*
X601Y3822D01*
X602Y3822D01*
X603Y3822D01*
X604Y3822D01*
X605Y3822D01*
X606Y3822D01*
X607Y3822D01*
X608Y3822D01*
X609Y3822D01*
X610Y3822D01*
X611Y3822D01*
X612Y3822D01*
X613Y3822D01*
X614Y3822D01*
X615Y3822D01*
X616Y3822D01*
X617Y3822D01*
X618Y3822D01*
X619Y3822D01*
X620Y3822D01*
X621Y3822D01*
X622Y3822D01*
X623Y3822D01*
X624Y3822D01*
X625Y3822D01*
X626Y3822D01*
X627Y3822D01*
X628Y3822D01*
X629Y3822D01*
X630Y3822D01*
X631Y3822D01*
X632Y3822D01*
X633Y3822D01*
X634Y3822D01*
X635Y3822D01*
X636Y3822D01*
X637Y3822D01*
X638Y3822D01*
X639Y3822D01*
X640Y3822D01*
X641Y3822D01*
X642Y3822D01*
X643Y3822D01*
X644Y3822D01*
X645Y3822D01*
X646Y3822D01*
X647Y3822D01*
X648Y3822D01*
X649Y3822D01*
X650Y3822D01*
X651Y3822D01*
X652Y3822D01*
X653Y3822D01*
X654Y3822D01*
X655Y3822D01*
X656Y3822D01*
X657Y3822D01*
X658Y3822D01*
X659Y3822D01*
X660Y3822D01*
X661Y3822D01*
X662Y3822D01*
X663Y3822D01*
X664Y3822D01*
X665Y3822D01*
X666Y3822D01*
X667Y3822D01*
X668Y3822D01*
X669Y3822D01*
X670Y3822D01*
X671Y3822D01*
X672Y3822D01*
X673Y3822D01*
X674Y3822D01*
X675Y3822D01*
X676Y3822D01*
X677Y3822D01*
X678Y3822D01*
X679Y3822D01*
X680Y3822D01*
X681Y3822D01*
X682Y3822D01*
X683Y3822D01*
X684Y3822D01*
X685Y3822D01*
X686Y3822D01*
X687Y3822D01*
X688Y3822D01*
X689Y3822D01*
X690Y3822D01*
X691Y3822D01*
X692Y3822D01*
X693Y3822D01*
X694Y3822D01*
X695Y3822D01*
X696Y3822D01*
X697Y3822D01*
X698Y3822D01*
X699Y3822D01*
X700Y3822D01*
X701Y3822D01*
X702Y3822D01*
X703Y3822D01*
X704Y3822D01*
X705Y3822D01*
X706Y3822D01*
X707Y3822D01*
X708Y3822D01*
X709Y3822D01*
X710Y3822D01*
X711Y3822D01*
X712Y3822D01*
X713Y3822D01*
X714Y3822D01*
X715Y3822D01*
X716Y3822D01*
X717Y3822D01*
X718Y3822D01*
X719Y3822D01*
X720Y3822D01*
X721Y3822D01*
X722Y3822D01*
X723Y3822D01*
X724Y3822D01*
X725Y3822D01*
X726Y3822D01*
X727Y3822D01*
X728Y3822D01*
X729Y3822D01*
X730Y3822D01*
X731Y3822D01*
X732Y3822D01*
X733Y3822D01*
X734Y3822D01*
X735Y3822D01*
X736Y3822D01*
X737Y3822D01*
X738Y3822D01*
X739Y3822D01*
X740Y3822D01*
X741Y3822D01*
X742Y3822D01*
X743Y3822D01*
X744Y3822D01*
X745Y3822D01*
X746Y3822D01*
X747Y3822D01*
X748Y3822D01*
X749Y3822D01*
X750Y3822D01*
X751Y3822D01*
X752Y3822D01*
X753Y3822D01*
X754Y3822D01*
X755Y3822D01*
X756Y3822D01*
X757Y3822D01*
X758Y3822D01*
X759Y3822D01*
X760Y3822D01*
X761Y3822D01*
X762Y3822D01*
X763Y3822D01*
X764Y3822D01*
X765Y3822D01*
X766Y3822D01*
X767Y3822D01*
X768Y3822D01*
X769Y3822D01*
X770Y3822D01*
X771Y3822D01*
X772Y3822D01*
X773Y3822D01*
X774Y3822D01*
X775Y3822D01*
X776Y3822D01*
X777Y3822D01*
X778Y3822D01*
X779Y3822D01*
X780Y3822D01*
X781Y3822D01*
X782Y3822D01*
X783Y3822D01*
X784Y3822D01*
X785Y3822D01*
X786Y3822D01*
X787Y3822D01*
X788Y3822D01*
X789Y3822D01*
X790Y3822D01*
X791Y3822D01*
X792Y3822D01*
X793Y3822D01*
X794Y3822D01*
X795Y3822D01*
X796Y3822D01*
X797Y3822D01*
X798Y3822D01*
X799Y3822D01*
X800Y3822D01*
X801Y3822D01*
X802Y3822D01*
X803Y3822D01*
X804Y3822D01*
X805Y3822D01*
X806Y3822D01*
X807Y3822D01*
X808Y3822D01*
X809Y3822D01*
X810Y3822D01*
X811Y3822D01*
X812Y3822D01*
X813Y3822D01*
X814Y3822D01*
X815Y3822D01*
X816Y3822D01*
X817Y3822D01*
X818Y3822D01*
X819Y3822D01*
X820Y3822D01*
X821Y3822D01*
X822Y3822D01*
X823Y3822D01*
X824Y3822D01*
X825Y3822D01*
X826Y3822D01*
X827Y3822D01*
X828Y3822D01*
X829Y3822D01*
X830Y3822D01*
X831Y3822D01*
X832Y3822D01*
X833Y3822D01*
X834Y3822D01*
X835Y3822D01*
X836Y3822D01*
X837Y3822D01*
X838Y3822D01*
X839Y3822D01*
X840Y3822D01*
X841Y3822D01*
X842Y3822D01*
X843Y3822D01*
X844Y3822D01*
X845Y3822D01*
X846Y3822D01*
X847Y3822D01*
X848Y3822D01*
X849Y3822D01*
X850Y3822D01*
X851Y3822D01*
X852Y3822D01*
X853Y3822D01*
X854Y3822D01*
X855Y3822D01*
X856Y3822D01*
X857Y3822D01*
X858Y3822D01*
X859Y3822D01*
X860Y3822D01*
X861Y3822D01*
X862Y3822D01*
X863Y3822D01*
X864Y3822D01*
X865Y3822D01*
X866Y3822D01*
X867Y3822D01*
X868Y3822D01*
X869Y3822D01*
X870Y3822D01*
X871Y3822D01*
X872Y3822D01*
X873Y3822D01*
X874Y3822D01*
X875Y3822D01*
X876Y3822D01*
X877Y3822D01*
X878Y3822D01*
X879Y3822D01*
X880Y3822D01*
X881Y3822D01*
X882Y3822D01*
X883Y3822D01*
X884Y3822D01*
X885Y3822D01*
X886Y3822D01*
X887Y3822D01*
X888Y3822D01*
X889Y3822D01*
X890Y3822D01*
X891Y3822D01*
X892Y3822D01*
X893Y3822D01*
X894Y3822D01*
X895Y3822D01*
X896Y3822D01*
X897Y3822D01*
X898Y3822D01*
X899Y3822D01*
X900Y3822D01*
X901Y3822D01*
X902Y3822D01*
X903Y3822D01*
X904Y3822D01*
X905Y3822D01*
X906Y3822D01*
X907Y3822D01*
X908Y3822D01*
X909Y3822D01*
X910Y3822D01*
X911Y3822D01*
X912Y3822D01*
X913Y3822D01*
X914Y3822D01*
X915Y3822D01*
X916Y3822D01*
X917Y3822D01*
X918Y3822D01*
X919Y3822D01*
X920Y3822D01*
X921Y3822D01*
X922Y3822D01*
X923Y3822D01*
X924Y3822D01*
X925Y3822D01*
X926Y3822D01*
X927Y3822D01*
X928Y3822D01*
X929Y3822D01*
X930Y3822D01*
X931Y3822D01*
X932Y3822D01*
X933Y3822D01*
X934Y3822D01*
X935Y3822D01*
X936Y3822D01*
X937Y3822D01*
X938Y3822D01*
X939Y3822D01*
X940Y3822D01*
X941Y3822D01*
X942Y3822D01*
X943Y3822D01*
X944Y3822D01*
X945Y3822D01*
X946Y3822D01*
X947Y3822D01*
X948Y3822D01*
X949Y3822D01*
X950Y3822D01*
X951Y3822D01*
X952Y3822D01*
X953Y3822D01*
X954Y3822D01*
X955Y3822D01*
X956Y3822D01*
X957Y3822D01*
X958Y3822D01*
X959Y3822D01*
X960Y3822D01*
X961Y3822D01*
X962Y3822D01*
X963Y3822D01*
X964Y3822D01*
X965Y3822D01*
X966Y3822D01*
X967Y3822D01*
X968Y3822D01*
X969Y3822D01*
X970Y3822D01*
X971Y3822D01*
X972Y3822D01*
X973Y3822D01*
X974Y3822D01*
X975Y3822D01*
X976Y3822D01*
X977Y3822D01*
X978Y3822D01*
X979Y3822D01*
X980Y3822D01*
X981Y3822D01*
X982Y3822D01*
X983Y3822D01*
X984Y3822D01*
X985Y3822D01*
X986Y3822D01*
X987Y3822D01*
X988Y3822D01*
X989Y3822D01*
X990Y3822D01*
X991Y3822D01*
X992Y3822D01*
X993Y3822D01*
X994Y3822D01*
X995Y3822D01*
X996Y3822D01*
X997Y3822D01*
X998Y3822D01*
X999Y3822D01*
X1000Y3822D01*
X1001Y3822D01*
X1002Y3822D01*
X1003Y3822D01*
X1004Y3822D01*
X1005Y3822D01*
X1006Y3822D01*
X1007Y3822D01*
X1008Y3822D01*
X1009Y3822D01*
X1010Y3822D01*
X1011Y3822D01*
X1012Y3822D01*
X1013Y3822D01*
X1014Y3822D01*
X1015Y3822D01*
X1016Y3822D01*
X1017Y3822D01*
X1018Y3822D01*
X1019Y3822D01*
X1020Y3822D01*
X1021Y3822D01*
X1022Y3822D01*
X1023Y3822D01*
X1024Y3822D01*
X1025Y3822D01*
X1026Y3822D01*
X1027Y3822D01*
X1028Y3822D01*
X1029Y3822D01*
X1030Y3822D01*
X1031Y3822D01*
X1032Y3822D01*
X1033Y3822D01*
X1034Y3822D01*
X1035Y3822D01*
X1036Y3822D01*
X1037Y3822D01*
X1038Y3822D01*
X1039Y3822D01*
X1040Y3822D01*
X1041Y3822D01*
X1042Y3822D01*
X1043Y3822D01*
X1044Y3822D01*
X1045Y3822D01*
X1046Y3822D01*
X1047Y3822D01*
X1048Y3822D01*
X1049Y3822D01*
X1050Y3822D01*
X1051Y3822D01*
X1052Y3822D01*
X1053Y3822D01*
X1054Y3822D01*
X1055Y3822D01*
X1056Y3822D01*
X1057Y3822D01*
X1058Y3822D01*
X1059Y3822D01*
X1060Y3822D01*
X1061Y3822D01*
X1062Y3822D01*
X1063Y3822D01*
X1064Y3822D01*
X1065Y3822D01*
X1066Y3822D01*
X1067Y3822D01*
X1068Y3822D01*
X1069Y3822D01*
X1070Y3822D01*
X1071Y3822D01*
X1072Y3822D01*
X1073Y3822D01*
X1074Y3822D01*
X1075Y3822D01*
X1076Y3822D01*
X1077Y3822D01*
X1078Y3822D01*
X1079Y3822D01*
X1080Y3822D01*
X1081Y3822D01*
X1082Y3822D01*
X1083Y3822D01*
X1084Y3822D01*
X1085Y3822D01*
X1086Y3822D01*
X1087Y3822D01*
X1088Y3822D01*
X1089Y3822D01*
X1090Y3822D01*
X1091Y3822D01*
X1092Y3822D01*
X1093Y3822D01*
X1094Y3822D01*
X1095Y3822D01*
X1096Y3822D01*
X1097Y3822D01*
X1098Y3822D01*
X1099Y3822D01*
X1100Y3822D01*
X1101Y3822D01*
X1102Y3822D01*
X1103Y3822D01*
X1104Y3822D01*
X1105Y3822D01*
X1106Y3822D01*
X1107Y3822D01*
X1108Y3822D01*
X1109Y3822D01*
X1110Y3822D01*
X1111Y3822D01*
X1112Y3822D01*
X1113Y3822D01*
X1114Y3822D01*
X1115Y3822D01*
X1116Y3822D01*
X1117Y3822D01*
X1118Y3822D01*
X1119Y3822D01*
X1120Y3822D01*
X1121Y3822D01*
X1122Y3822D01*
X1123Y3822D01*
X1124Y3822D01*
X1125Y3822D01*
X1126Y3822D01*
X1127Y3822D01*
X1128Y3822D01*
X1129Y3822D01*
X1130Y3822D01*
X1131Y3822D01*
X1132Y3822D01*
X1133Y3822D01*
X1134Y3822D01*
X1135Y3822D01*
X1136Y3822D01*
X1137Y3822D01*
X1138Y3822D01*
X1139Y3822D01*
X1140Y3822D01*
X1141Y3822D01*
X1142Y3822D01*
X1143Y3822D01*
X1144Y3822D01*
X1145Y3822D01*
X1146Y3822D01*
X1147Y3822D01*
X1148Y3822D01*
X1149Y3822D01*
X1150Y3822D01*
X1151Y3822D01*
X1152Y3822D01*
X1153Y3822D01*
X1154Y3822D01*
X1155Y3822D01*
X1156Y3822D01*
X1157Y3822D01*
X1158Y3822D01*
X1159Y3822D01*
X1160Y3822D01*
X1161Y3822D01*
X1162Y3822D01*
X1163Y3822D01*
X1164Y3822D01*
X1165Y3822D01*
X1166Y3822D01*
X1167Y3822D01*
X1168Y3822D01*
X1169Y3822D01*
X1170Y3822D01*
X1171Y3822D01*
X1172Y3822D01*
X1173Y3822D01*
X1174Y3822D01*
X1175Y3822D01*
X1176Y3822D01*
X1177Y3822D01*
X1178Y3822D01*
X1179Y3822D01*
X1180Y3822D01*
X1181Y3822D01*
X1182Y3822D01*
X1183Y3822D01*
X1184Y3822D01*
X1185Y3822D01*
X1186Y3822D01*
X1187Y3822D01*
X1188Y3822D01*
X1189Y3822D01*
X1190Y3822D01*
X1191Y3822D01*
X1192Y3822D01*
X1193Y3822D01*
X1194Y3822D01*
X1195Y3822D01*
X1196Y3822D01*
X1197Y3822D01*
X1198Y3822D01*
X1199Y3822D01*
X1200Y3822D01*
X1201Y3822D01*
X1202Y3822D01*
X1203Y3822D01*
X1204Y3822D01*
X1205Y3822D01*
X1206Y3822D01*
X1207Y3822D01*
X1208Y3822D01*
X1209Y3822D01*
X1210Y3822D01*
X1211Y3822D01*
X1212Y3822D01*
X1213Y3822D01*
X1214Y3822D01*
X1215Y3822D01*
X1216Y3822D01*
X1217Y3822D01*
X1218Y3822D01*
X1219Y3822D01*
X1220Y3822D01*
X1221Y3822D01*
X1222Y3822D01*
X1223Y3822D01*
X1224Y3822D01*
X1225Y3822D01*
X1226Y3822D01*
X1227Y3822D01*
X1228Y3822D01*
X1229Y3822D01*
X1230Y3822D01*
X1231Y3822D01*
X1232Y3822D01*
X1233Y3822D01*
X1234Y3822D01*
X1235Y3822D01*
X1236Y3822D01*
X1237Y3822D01*
X1238Y3822D01*
X1239Y3822D01*
X1240Y3822D01*
X1241Y3822D01*
X1242Y3822D01*
X1243Y3822D01*
X1244Y3822D01*
X1245Y3822D01*
X1246Y3822D01*
X1247Y3822D01*
X1248Y3822D01*
X1249Y3822D01*
X1250Y3822D01*
X1251Y3822D01*
X1252Y3822D01*
X1253Y3822D01*
X1254Y3822D01*
X1255Y3822D01*
X1256Y3822D01*
X1257Y3822D01*
X1258Y3822D01*
X1259Y3822D01*
X1260Y3822D01*
X1261Y3822D01*
X1262Y3822D01*
X1263Y3822D01*
X1264Y3822D01*
X1265Y3822D01*
X1266Y3822D01*
X1267Y3822D01*
X1268Y3822D01*
X1269Y3822D01*
X1270Y3822D01*
X1271Y3822D01*
X1272Y3822D01*
X1273Y3822D01*
X1274Y3822D01*
X1275Y3822D01*
X1276Y3822D01*
X1277Y3822D01*
X1278Y3822D01*
X1279Y3822D01*
X1280Y3822D01*
X1281Y3822D01*
X1282Y3822D01*
X1283Y3822D01*
X1284Y3822D01*
X1285Y3822D01*
X1286Y3822D01*
X1287Y3822D01*
X1288Y3822D01*
X1289Y3822D01*
X1290Y3822D01*
X1291Y3822D01*
X1292Y3822D01*
X1293Y3822D01*
X1294Y3822D01*
X1295Y3822D01*
X1296Y3822D01*
X1297Y3822D01*
X1298Y3822D01*
X1299Y3822D01*
X1300Y3822D01*
X1301Y3822D01*
X1302Y3822D01*
X1303Y3822D01*
X1304Y3822D01*
X1305Y3822D01*
X1306Y3822D01*
X1307Y3822D01*
X1308Y3822D01*
X1309Y3822D01*
X1310Y3822D01*
X1311Y3822D01*
X1312Y3822D01*
X1313Y3822D01*
X1314Y3822D01*
X1315Y3822D01*
X1316Y3822D01*
X1317Y3822D01*
X1318Y3822D01*
X1319Y3822D01*
X1320Y3822D01*
X1321Y3822D01*
X1322Y3822D01*
X1323Y3822D01*
X1324Y3822D01*
X1325Y3822D01*
X1326Y3822D01*
X1327Y3822D01*
X1328Y3822D01*
X1329Y3822D01*
X1330Y3822D01*
X1331Y3822D01*
X1332Y3822D01*
X1333Y3822D01*
X1334Y3822D01*
X1335Y3822D01*
X1336Y3822D01*
X1337Y3822D01*
X1338Y3822D01*
X1339Y3822D01*
X1340Y3822D01*
X1341Y3822D01*
X1342Y3822D01*
X1343Y3822D01*
X1344Y3822D01*
X1345Y3822D01*
X1346Y3822D01*
X1347Y3822D01*
X1348Y3822D01*
X1349Y3822D01*
X1350Y3822D01*
X1351Y3822D01*
X1352Y3822D01*
X1353Y3822D01*
X1354Y3822D01*
X1355Y3822D01*
X1356Y3822D01*
X1357Y3822D01*
X1358Y3822D01*
X1359Y3822D01*
X1360Y3822D01*
X1361Y3822D01*
X1362Y3822D01*
X1363Y3822D01*
X1364Y3822D01*
X1365Y3822D01*
X1366Y3822D01*
X1367Y3822D01*
X1368Y3822D01*
X1369Y3822D01*
X1370Y3822D01*
X1371Y3822D01*
X1372Y3822D01*
X1373Y3822D01*
X1374Y3822D01*
X1375Y3822D01*
X1376Y3822D01*
X1377Y3822D01*
X1378Y3822D01*
X1379Y3822D01*
X1380Y3822D01*
X1381Y3822D01*
X1382Y3822D01*
X1383Y3822D01*
X1384Y3822D01*
X1385Y3822D01*
X1386Y3822D01*
X1387Y3822D01*
X1388Y3822D01*
X1389Y3822D01*
X1390Y3822D01*
X1391Y3822D01*
X1392Y3822D01*
X1393Y3822D01*
X1394Y3822D01*
X1395Y3822D01*
X1396Y3822D01*
X1397Y3822D01*
X1398Y3822D01*
X1399Y3822D01*
X1400Y3822D01*
X1401Y3822D01*
X1402Y3822D01*
X1403Y3822D01*
X1404Y3822D01*
X1405Y3822D01*
X1406Y3822D01*
X1407Y3822D01*
X1408Y3822D01*
X1409Y3822D01*
X1410Y3822D01*
X1411Y3822D01*
X1412Y3822D01*
X1413Y3822D01*
X1414Y3822D01*
X1415Y3822D01*
X1416Y3822D01*
X1417Y3822D01*
X1418Y3822D01*
X1419Y3822D01*
X1420Y3822D01*
X1421Y3822D01*
X1422Y3822D01*
X1423Y3822D01*
X1424Y3822D01*
X1425Y3822D01*
X1426Y3822D01*
X1427Y3822D01*
X1428Y3822D01*
X1429Y3822D01*
X1430Y3822D01*
X1431Y3822D01*
X1432Y3822D01*
X1433Y3822D01*
X1434Y3822D01*
X1435Y3822D01*
X1436Y3822D01*
X1437Y3822D01*
X1438Y3822D01*
X1439Y3822D01*
X1440Y3822D01*
X1441Y3822D01*
X1442Y3822D01*
X1443Y3822D01*
X1444Y3822D01*
X1445Y3822D01*
X1446Y3822D01*
X1447Y3822D01*
X1448Y3822D01*
X1449Y3822D01*
X1450Y3822D01*
X1451Y3822D01*
X1452Y3822D01*
X1453Y3822D01*
X1454Y3822D01*
X1455Y3822D01*
X1456Y3822D01*
X1457Y3822D01*
X1458Y3822D01*
X1459Y3822D01*
X1460Y3822D01*
X1461Y3822D01*
X1462Y3822D01*
X1463Y3822D01*
X1464Y3822D01*
X1465Y3822D01*
X1466Y3822D01*
X1467Y3822D01*
X1468Y3822D01*
X1469Y3822D01*
X1470Y3822D01*
X1471Y3822D01*
X1472Y3822D01*
X1473Y3822D01*
X1474Y3822D01*
X1475Y3822D01*
X1476Y3822D01*
X1477Y3822D01*
X1478Y3822D01*
X1479Y3822D01*
X1480Y3822D01*
X1481Y3822D01*
X1482Y3822D01*
X1483Y3822D01*
X1484Y3822D01*
X1485Y3822D01*
X1486Y3822D01*
X1487Y3822D01*
X1488Y3822D01*
X1489Y3822D01*
X1490Y3822D01*
X1491Y3822D01*
X1492Y3822D01*
X1493Y3822D01*
X1494Y3822D01*
X1495Y3822D01*
X1496Y3822D01*
X1497Y3822D01*
X1498Y3822D01*
X1499Y3822D01*
X1500Y3822D01*
X1501Y3822D01*
X1502Y3822D01*
X1503Y3822D01*
X1504Y3822D01*
X1505Y3822D01*
X1506Y3822D01*
X1507Y3822D01*
X1508Y3822D01*
X1509Y3822D01*
X1510Y3822D01*
X1511Y3822D01*
X1512Y3822D01*
X1513Y3822D01*
X1514Y3822D01*
X1515Y3822D01*
X1516Y3822D01*
X1517Y3822D01*
X1518Y3822D01*
X1519Y3822D01*
X1520Y3822D01*
X1521Y3822D01*
X1522Y3822D01*
X1523Y3822D01*
X1524Y3822D01*
X1525Y3822D01*
X1526Y3822D01*
X1527Y3822D01*
X1528Y3822D01*
X1529Y3822D01*
X1530Y3822D01*
X1531Y3822D01*
X1532Y3822D01*
X1533Y3822D01*
X1534Y3822D01*
X1535Y3822D01*
X1536Y3822D01*
X1537Y3822D01*
X1538Y3822D01*
X1539Y3822D01*
X1540Y3822D01*
X1541Y3822D01*
X1542Y3822D01*
X1543Y3822D01*
X1544Y3822D01*
X1545Y3822D01*
X1546Y3822D01*
X1547Y3822D01*
X1548Y3822D01*
X1549Y3822D01*
X1550Y3822D01*
X1551Y3822D01*
X1552Y3822D01*
X1553Y3822D01*
X1554Y3822D01*
X1555Y3822D01*
X1556Y3822D01*
X1557Y3822D01*
X1558Y3822D01*
X1559Y3822D01*
X1560Y3822D01*
X1561Y3822D01*
X1562Y3822D01*
X1563Y3822D01*
X1564Y3822D01*
X1565Y3822D01*
X1566Y3822D01*
X1567Y3822D01*
X1568Y3822D01*
X1569Y3822D01*
X1570Y3822D01*
X1571Y3822D01*
X1572Y3822D01*
X1573Y3822D01*
X1574Y3822D01*
X1575Y3822D01*
X1576Y3822D01*
X1577Y3822D01*
X1578Y3822D01*
X1579Y3822D01*
X1580Y3822D01*
X1581Y3822D01*
X1582Y3822D01*
X1583Y3822D01*
X1584Y3822D01*
X1585Y3822D01*
X1586Y3822D01*
X1587Y3822D01*
X1588Y3822D01*
X1589Y3822D01*
X1590Y3822D01*
X1591Y3822D01*
X1592Y3822D01*
X1593Y3822D01*
X1594Y3822D01*
X1595Y3822D01*
X1596Y3822D01*
X1597Y3822D01*
X1598Y3822D01*
X1599Y3822D01*
X1600Y3822D01*
X1601Y3822D01*
X1602Y3822D01*
X1603Y3822D01*
X1604Y3822D01*
X1605Y3822D01*
X1606Y3822D01*
X1607Y3822D01*
X1608Y3822D01*
X1609Y3822D01*
X1610Y3822D01*
X1611Y3822D01*
X1612Y3822D01*
X1613Y3822D01*
X1614Y3822D01*
X1615Y3822D01*
X1616Y3822D01*
X1617Y3822D01*
X1618Y3822D01*
X1619Y3822D01*
X1620Y3822D01*
X1621Y3822D01*
X1622Y3822D01*
X1623Y3822D01*
X1624Y3822D01*
X1625Y3822D01*
X1626Y3822D01*
X1627Y3822D01*
X1628Y3822D01*
X1629Y3822D01*
X1630Y3822D01*
X1631Y3822D01*
X1632Y3822D01*
X1633Y3822D01*
X1634Y3822D01*
X1635Y3822D01*
X1636Y3822D01*
X1637Y3822D01*
X1638Y3822D01*
X1639Y3822D01*
X1640Y3822D01*
X1641Y3822D01*
X1642Y3822D01*
X1643Y3822D01*
X1644Y3822D01*
X1645Y3822D01*
X1646Y3822D01*
X1647Y3822D01*
X1648Y3822D01*
X1649Y3822D01*
X1650Y3822D01*
X1651Y3822D01*
X1652Y3822D01*
X1653Y3822D01*
X1654Y3822D01*
X1655Y3822D01*
X1656Y3822D01*
X1657Y3822D01*
X1658Y3822D01*
X1659Y3822D01*
X1660Y3822D01*
X1661Y3822D01*
X1662Y3822D01*
X1663Y3822D01*
X1664Y3822D01*
X1665Y3822D01*
X1666Y3822D01*
X1667Y3822D01*
X1668Y3822D01*
X1669Y3822D01*
X1670Y3822D01*
X1671Y3822D01*
X1672Y3822D01*
X1673Y3822D01*
X1674Y3822D01*
X1675Y3822D01*
X1676Y3822D01*
X1677Y3822D01*
X1678Y3822D01*
X1679Y3822D01*
X1680Y3822D01*
X1681Y3822D01*
X1682Y3822D01*
X1683Y3822D01*
X1684Y3822D01*
X1685Y3822D01*
X1686Y3822D01*
X1687Y3822D01*
X1688Y3822D01*
X1689Y3822D01*
X1690Y3822D01*
X1691Y3822D01*
X1692Y3822D01*
X1693Y3822D01*
X1694Y3822D01*
X1695Y3822D01*
X1696Y3822D01*
X1697Y3822D01*
X1698Y3822D01*
X1699Y3822D01*
X1700Y3822D01*
X1701Y3822D01*
X1702Y3822D01*
X1703Y3822D01*
X1704Y3822D01*
X1705Y3822D01*
X1706Y3822D01*
X1707Y3822D01*
X1708Y3822D01*
X1709Y3822D01*
X1710Y3822D01*
X1711Y3822D01*
X1712Y3822D01*
X1713Y3822D01*
X1714Y3822D01*
X1715Y3822D01*
X1716Y3822D01*
X1717Y3822D01*
X1718Y3822D01*
X1719Y3822D01*
X1720Y3822D01*
X1721Y3822D01*
X1722Y3822D01*
X1723Y3822D01*
X1724Y3822D01*
X1725Y3822D01*
X1726Y3822D01*
X1727Y3822D01*
X1728Y3822D01*
X1729Y3822D01*
X1730Y3822D01*
X1731Y3822D01*
X1732Y3822D01*
X1733Y3822D01*
X1734Y3822D01*
X1735Y3822D01*
X1736Y3822D01*
X1737Y3822D01*
X1738Y3822D01*
X1739Y3822D01*
X1740Y3822D01*
X1741Y3822D01*
X1742Y3822D01*
X1743Y3822D01*
X1744Y3822D01*
X1745Y3822D01*
X1746Y3822D01*
X1747Y3822D01*
X1748Y3822D01*
X1749Y3822D01*
X1750Y3822D01*
X1751Y3822D01*
X1752Y3822D01*
X1753Y3822D01*
X1754Y3822D01*
X1755Y3822D01*
X1756Y3822D01*
X1757Y3822D01*
X1758Y3822D01*
X1759Y3822D01*
X1760Y3822D01*
X1761Y3822D01*
X1762Y3822D01*
X1763Y3822D01*
X1764Y3822D01*
X1765Y3822D01*
X1766Y3822D01*
X1767Y3822D01*
X1768Y3822D01*
X1769Y3822D01*
X1770Y3822D01*
X1771Y3822D01*
X1772Y3822D01*
X1773Y3822D01*
X1774Y3822D01*
X1775Y3822D01*
X1776Y3822D01*
X1777Y3822D01*
X1778Y3822D01*
X1779Y3822D01*
X1780Y3822D01*
X1781Y3822D01*
X1782Y3822D01*
X1783Y3822D01*
X1784Y3822D01*
X1785Y3822D01*
X1786Y3822D01*
X1787Y3822D01*
X1788Y3822D01*
X1789Y3822D01*
X1790Y3822D01*
X1791Y3822D01*
X1792Y3822D01*
X1793Y3822D01*
X1794Y3822D01*
X1795Y3822D01*
X1796Y3822D01*
X1797Y3822D01*
X1798Y3822D01*
X1799Y3822D01*
X1800Y3822D01*
X1801Y3822D01*
X1802Y3822D01*
X1803Y3822D01*
X1804Y3822D01*
X1805Y3822D01*
X1806Y3822D01*
X1807Y3822D01*
X1808Y3822D01*
X1809Y3822D01*
X1810Y3822D01*
X1811Y3822D01*
X1812Y3822D01*
X1813Y3822D01*
X1814Y3822D01*
X1815Y3822D01*
X1816Y3822D01*
X1817Y3822D01*
X1818Y3822D01*
X1819Y3822D01*
X1820Y3822D01*
X1821Y3822D01*
X1822Y3822D01*
X1823Y3822D01*
X1824Y3822D01*
X1825Y3822D01*
X1826Y3822D01*
X1827Y3822D01*
X1828Y3822D01*
X1829Y3822D01*
X1830Y3822D01*
X1831Y3822D01*
X1832Y3822D01*
X1833Y3822D01*
X1834Y3822D01*
X1835Y3822D01*
X1836Y3822D01*
X1837Y3822D01*
X1838Y3822D01*
X1839Y3822D01*
X1840Y3822D01*
X1841Y3822D01*
X1842Y3822D01*
X1843Y3822D01*
X1844Y3822D01*
X1845Y3822D01*
X1846Y3822D01*
X1847Y3822D01*
X1848Y3822D01*
X1849Y3822D01*
X1850Y3822D01*
X1851Y3822D01*
X1852Y3822D01*
X1853Y3822D01*
X1854Y3822D01*
X1855Y3822D01*
X1856Y3822D01*
X1857Y3822D01*
X1858Y3822D01*
X1859Y3822D01*
X1860Y3822D01*
X1861Y3822D01*
X1862Y3822D01*
X1863Y3822D01*
X1864Y3822D01*
X1865Y3822D01*
X1866Y3822D01*
X1867Y3822D01*
X1868Y3822D01*
X1869Y3822D01*
X1870Y3822D01*
X1871Y3822D01*
X1872Y3822D01*
X1873Y3822D01*
X1874Y3822D01*
X1875Y3822D01*
X1876Y3822D01*
X1877Y3822D01*
X1878Y3822D01*
X1879Y3822D01*
X1880Y3822D01*
X1881Y3822D01*
X1882Y3822D01*
X1883Y3822D01*
X1884Y3822D01*
X1885Y3822D01*
X1886Y3822D01*
X1887Y3822D01*
X1888Y3822D01*
X1889Y3822D01*
X1890Y3822D01*
X1891Y3822D01*
X1892Y3822D01*
X1893Y3822D01*
X1894Y3822D01*
X1895Y3822D01*
X1896Y3822D01*
X1897Y3822D01*
X1898Y3822D01*
X1899Y3822D01*
X1900Y3822D01*
X1901Y3822D01*
X1902Y3822D01*
X1903Y3822D01*
X1904Y3822D01*
X1905Y3822D01*
X1906Y3822D01*
X1907Y3822D01*
X1908Y3822D01*
X1909Y3822D01*
X1910Y3822D01*
X1911Y3822D01*
X1912Y3822D01*
X1913Y3822D01*
X1914Y3822D01*
X1915Y3822D01*
X1916Y3822D01*
X1917Y3822D01*
X1918Y3822D01*
X1919Y3822D01*
X1920Y3822D01*
X1921Y3822D01*
X1922Y3822D01*
X1923Y3822D01*
X1924Y3822D01*
X1925Y3822D01*
X1926Y3822D01*
X1927Y3822D01*
X1928Y3822D01*
X1929Y3822D01*
X1930Y3822D01*
X1931Y3822D01*
X1932Y3822D01*
X1933Y3822D01*
X1934Y3822D01*
X1935Y3822D01*
X1936Y3822D01*
X1937Y3822D01*
X1938Y3822D01*
X1939Y3822D01*
X1940Y3822D01*
X1941Y3822D01*
X1942Y3822D01*
X1943Y3822D01*
X1944Y3822D01*
X1945Y3822D01*
X1946Y3822D01*
X1947Y3822D01*
X1948Y3822D01*
X1949Y3822D01*
X1950Y3822D01*
X1951Y3822D01*
X1952Y3822D01*
X1953Y3822D01*
X1954Y3822D01*
X1955Y3822D01*
X1956Y3822D01*
X1957Y3822D01*
X1958Y3822D01*
X1959Y3822D01*
X1960Y3822D01*
X1961Y3822D01*
X1962Y3822D01*
X1963Y3822D01*
X1964Y3822D01*
X1965Y3822D01*
X1966Y3822D01*
X1967Y3822D01*
X1968Y3822D01*
X1969Y3822D01*
X1970Y3822D01*
X1971Y3822D01*
X1972Y3822D01*
X1973Y3822D01*
X1974Y3822D01*
X1975Y3822D01*
X1976Y3822D01*
X1977Y3822D01*
X1978Y3822D01*
X1979Y3822D01*
X1980Y3822D01*
X1981Y3822D01*
X1982Y3822D01*
X1983Y3822D01*
X1984Y3822D01*
X1985Y3822D01*
X1986Y3822D01*
X1987Y3822D01*
X1988Y3822D01*
X1989Y3822D01*
X1990Y3822D01*
X1991Y3822D01*
X1992Y3822D01*
X1993Y3822D01*
X1994Y3822D01*
X1995Y3822D01*
X1996Y3822D01*
X1997Y3822D01*
X1998Y3822D01*
X1999Y3822D01*
X2000Y3822D01*
X2001Y3822D01*
X2002Y3822D01*
X2003Y3822D01*
X2004Y3822D01*
X2005Y3822D01*
X2006Y3822D01*
X2007Y3822D01*
X2008Y3822D01*
X2009Y3822D01*
X2010Y3822D01*
X2011Y3822D01*
X2012Y3822D01*
X2013Y3822D01*
X2014Y3822D01*
X2015Y3822D01*
X2016Y3822D01*
X2017Y3822D01*
X2018Y3822D01*
X2019Y3822D01*
X2020Y3822D01*
X2021Y3822D01*
X2022Y3822D01*
X2023Y3822D01*
X2024Y3822D01*
X2025Y3822D01*
X2026Y3822D01*
X2027Y3822D01*
X2028Y3822D01*
X2029Y3822D01*
X2030Y3822D01*
X2031Y3822D01*
X2032Y3822D01*
X2033Y3822D01*
X2034Y3822D01*
X2035Y3822D01*
X2036Y3822D01*
X2037Y3822D01*
X2038Y3822D01*
X2039Y3822D01*
X2040Y3822D01*
X2041Y3822D01*
X2042Y3822D01*
X2043Y3822D01*
X2044Y3822D01*
X2045Y3822D01*
X2046Y3822D01*
X2047Y3822D01*
X2048Y3822D01*
X2049Y3822D01*
X2050Y3822D01*
X2051Y3822D01*
X2052Y3822D01*
X2053Y3822D01*
X2054Y3822D01*
X2055Y3822D01*
X2056Y3822D01*
X2057Y3822D01*
X2058Y3822D01*
X2059Y3822D01*
X2060Y3822D01*
X2061Y3822D01*
X2062Y3822D01*
X2063Y3822D01*
X2064Y3822D01*
X2065Y3822D01*
X2066Y3822D01*
X2067Y3822D01*
X2068Y3822D01*
X2069Y3822D01*
X2070Y3822D01*
X2071Y3822D01*
X2072Y3822D01*
X2073Y3822D01*
X2074Y3822D01*
X2075Y3822D01*
X2076Y3822D01*
X2077Y3822D01*
X2078Y3822D01*
X2079Y3822D01*
X2080Y3822D01*
X2081Y3822D01*
X2082Y3822D01*
X2083Y3822D01*
X2084Y3822D01*
X2085Y3822D01*
X2086Y3822D01*
X2087Y3822D01*
X2088Y3822D01*
X2089Y3822D01*
X2090Y3822D01*
X2091Y3822D01*
X2092Y3822D01*
X2093Y3822D01*
X2094Y3822D01*
X2095Y3822D01*
X2096Y3822D01*
X2097Y3822D01*
X2098Y3822D01*
X2099Y3822D01*
X2100Y3822D01*
X2101Y3822D01*
X2102Y3822D01*
X2103Y3822D01*
X2104Y3822D01*
X2105Y3822D01*
X2106Y3822D01*
X2107Y3822D01*
X2108Y3822D01*
X2109Y3822D01*
X2110Y3822D01*
X2111Y3822D01*
X2112Y3822D01*
X2113Y3822D01*
X2114Y3822D01*
X2115Y3822D01*
X2116Y3822D01*
X2117Y3822D01*
X2118Y3822D01*
X2119Y3822D01*
X2120Y3822D01*
X2121Y3822D01*
X2122Y3822D01*
X2123Y3822D01*
X2124Y3822D01*
X2125Y3822D01*
X2126Y3822D01*
X2127Y3822D01*
X2128Y3822D01*
X2129Y3822D01*
X2130Y3822D01*
X2131Y3822D01*
X2132Y3822D01*
X2133Y3822D01*
X2134Y3822D01*
X2135Y3822D01*
X2136Y3822D01*
X2137Y3822D01*
X2138Y3822D01*
X2139Y3822D01*
X2140Y3822D01*
X2141Y3822D01*
X2142Y3822D01*
X2143Y3822D01*
X2144Y3822D01*
X2145Y3822D01*
X2146Y3822D01*
X2147Y3822D01*
X2148Y3822D01*
X2149Y3822D01*
X2150Y3822D01*
X2151Y3822D01*
X2152Y3822D01*
X2153Y3822D01*
X2154Y3822D01*
X2155Y3822D01*
X2156Y3822D01*
X2157Y3822D01*
X2158Y3822D01*
X2159Y3822D01*
X2160Y3822D01*
X2161Y3822D01*
X2162Y3822D01*
X2163Y3822D01*
X2164Y3822D01*
X2165Y3822D01*
X2166Y3822D01*
X2167Y3822D01*
X2168Y3822D01*
X2169Y3822D01*
X2170Y3822D01*
X2171Y3822D01*
X2172Y3822D01*
X2173Y3822D01*
X2174Y3822D01*
X2175Y3822D01*
X2176Y3822D01*
X2177Y3822D01*
X2178Y3822D01*
X2179Y3822D01*
X2180Y3822D01*
X2181Y3822D01*
X2182Y3822D01*
X2183Y3822D01*
X2184Y3822D01*
X2185Y3822D01*
X2186Y3822D01*
X2187Y3822D01*
X2188Y3822D01*
X2189Y3822D01*
X2190Y3822D01*
X2191Y3822D01*
X2192Y3822D01*
X2193Y3822D01*
X2194Y3822D01*
X2195Y3822D01*
X2196Y3822D01*
X2197Y3822D01*
X2198Y3822D01*
X2199Y3822D01*
X2200Y3822D01*
X2201Y3822D01*
X2202Y3822D01*
X2203Y3822D01*
X2204Y3822D01*
X2205Y3822D01*
X2206Y3822D01*
X2207Y3822D01*
X2208Y3822D01*
X2209Y3822D01*
X2210Y3822D01*
X2211Y3822D01*
X2212Y3822D01*
X2213Y3822D01*
X2214Y3822D01*
X2215Y3822D01*
X2216Y3822D01*
X2217Y3822D01*
X2218Y3822D01*
X2219Y3822D01*
X2220Y3822D01*
X2221Y3822D01*
X2222Y3822D01*
X2223Y3822D01*
X2224Y3822D01*
X2225Y3822D01*
X2226Y3822D01*
X2227Y3822D01*
X2228Y3822D01*
X2229Y3822D01*
X2230Y3822D01*
X2231Y3822D01*
X2232Y3822D01*
X2233Y3822D01*
X2234Y3822D01*
X2235Y3822D01*
X2236Y3822D01*
X2237Y3822D01*
X2238Y3822D01*
X2239Y3822D01*
X2240Y3822D01*
X2241Y3822D01*
X2242Y3822D01*
X2243Y3822D01*
X2244Y3822D01*
X2245Y3822D01*
X2246Y3822D01*
X2247Y3822D01*
X2248Y3822D01*
X2249Y3822D01*
X2250Y3822D01*
X2251Y3822D01*
X2252Y3822D01*
X2253Y3822D01*
X2254Y3822D01*
X2255Y3822D01*
X2256Y3822D01*
X2257Y3822D01*
X2258Y3822D01*
X2259Y3822D01*
X2260Y3822D01*
X2261Y3822D01*
X2262Y3822D01*
X2263Y3822D01*
X2264Y3822D01*
X2265Y3822D01*
X2266Y3822D01*
X2267Y3822D01*
X2268Y3822D01*
X2269Y3822D01*
X2270Y3822D01*
X2271Y3822D01*
X2272Y3822D01*
X2273Y3822D01*
X2274Y3822D01*
X2275Y3822D01*
X2276Y3822D01*
X2277Y3822D01*
X2278Y3822D01*
X2279Y3822D01*
X2280Y3822D01*
X2281Y3822D01*
X2282Y3822D01*
X2283Y3822D01*
X2284Y3822D01*
X2285Y3822D01*
X2286Y3822D01*
X2287Y3822D01*
X2288Y3822D01*
X2289Y3822D01*
X2290Y3822D01*
X2291Y3822D01*
X2292Y3822D01*
X2293Y3822D01*
X2294Y3822D01*
X2295Y3822D01*
X2296Y3822D01*
X2297Y3822D01*
X2298Y3822D01*
X2299Y3822D01*
X2300Y3822D01*
X2301Y3822D01*
X2302Y3822D01*
X2303Y3822D01*
X2304Y3822D01*
X2305Y3822D01*
X2306Y3822D01*
X2307Y3822D01*
X2308Y3822D01*
X2309Y3822D01*
X2310Y3822D01*
X2311Y3822D01*
X2312Y3822D01*
X2313Y3822D01*
X2314Y3822D01*
X2315Y3822D01*
X2316Y3822D01*
X2317Y3822D01*
X2318Y3822D01*
X2319Y3822D01*
X2320Y3822D01*
X2321Y3822D01*
X2322Y3822D01*
X2323Y3822D01*
X2324Y3822D01*
X2325Y3822D01*
X2326Y3822D01*
X2327Y3822D01*
X2328Y3822D01*
X2329Y3822D01*
X2330Y3822D01*
X2331Y3822D01*
X2332Y3822D01*
X2333Y3822D01*
X2334Y3822D01*
X2335Y3822D01*
X2336Y3822D01*
X2337Y3822D01*
X2338Y3822D01*
X2339Y3822D01*
X2340Y3822D01*
X2341Y3822D01*
X2342Y3822D01*
X2343Y3822D01*
X2344Y3822D01*
X2345Y3822D01*
X2346Y3822D01*
X2347Y3822D01*
X2348Y3822D01*
X2349Y3822D01*
X2350Y3822D01*
X2351Y3822D01*
X2352Y3822D01*
X2353Y3822D01*
X2354Y3822D01*
X2355Y3822D01*
X2356Y3822D01*
X2357Y3822D01*
X2358Y3822D01*
X2359Y3822D01*
X2360Y3822D01*
X2361Y3822D01*
X2362Y3822D01*
X2363Y3822D01*
X2364Y3822D01*
X2365Y3822D01*
X2366Y3822D01*
X2367Y3822D01*
X2368Y3822D01*
X2369Y3822D01*
X2370Y3822D01*
X2371Y3822D01*
X2372Y3822D01*
X2373Y3822D01*
X2374Y3822D01*
X2375Y3822D01*
X2376Y3822D01*
X2377Y3822D01*
X2378Y3822D01*
X2379Y3822D01*
X2380Y3822D01*
X2381Y3822D01*
X2382Y3822D01*
X2383Y3822D01*
X2384Y3822D01*
X2385Y3822D01*
X2386Y3822D01*
X2387Y3822D01*
X2388Y3822D01*
X2389Y3822D01*
X2390Y3822D01*
X2391Y3822D01*
X2392Y3822D01*
X2393Y3822D01*
X2394Y3822D01*
X2395Y3822D01*
X2396Y3822D01*
X2397Y3822D01*
X2398Y3822D01*
X2399Y3822D01*
X2400Y3822D01*
X2401Y3822D01*
X2402Y3822D01*
X2403Y3822D01*
X2404Y3822D01*
X2405Y3822D01*
X2406Y3822D01*
X2407Y3822D01*
X2408Y3822D01*
X2409Y3822D01*
X2410Y3822D01*
X2411Y3822D01*
X2412Y3822D01*
X2413Y3822D01*
X2414Y3822D01*
X2415Y3822D01*
X2416Y3822D01*
X2417Y3822D01*
X2418Y3822D01*
X2419Y3822D01*
X2420Y3822D01*
X2421Y3822D01*
X2422Y3822D01*
X2423Y3822D01*
X2424Y3822D01*
X2425Y3822D01*
X2426Y3822D01*
X2427Y3822D01*
X2428Y3822D01*
X2429Y3822D01*
X2430Y3822D01*
X2431Y3822D01*
X2432Y3822D01*
X2433Y3822D01*
X2434Y3822D01*
X2435Y3822D01*
X2436Y3822D01*
X2437Y3822D01*
X2438Y3822D01*
X2439Y3822D01*
X2440Y3822D01*
X2441Y3822D01*
X2442Y3822D01*
X2443Y3822D01*
X2444Y3822D01*
X2445Y3822D01*
X2446Y3822D01*
X2447Y3822D01*
X2448Y3822D01*
X2449Y3822D01*
X2450Y3822D01*
X2451Y3822D01*
X2452Y3822D01*
X2453Y3822D01*
X2454Y3822D01*
X2455Y3822D01*
X2456Y3822D01*
X2457Y3822D01*
X2458Y3822D01*
X2459Y3822D01*
X2460Y3822D01*
X2461Y3822D01*
X2462Y3822D01*
X2463Y3822D01*
X2464Y3822D01*
X2465Y3822D01*
X2466Y3822D01*
X2467Y3822D01*
X2468Y3822D01*
X2469Y3822D01*
X2470Y3822D01*
X2471Y3822D01*
X2472Y3822D01*
X2473Y3822D01*
X2474Y3822D01*
X2475Y3822D01*
X2476Y3822D01*
X2477Y3822D01*
X2478Y3822D01*
X2479Y3822D01*
X2480Y3822D01*
X2481Y3822D01*
X2482Y3822D01*
X2483Y3822D01*
X2484Y3822D01*
X2485Y3822D01*
X2486Y3822D01*
X2487Y3822D01*
X2488Y3822D01*
X2489Y3822D01*
X2490Y3822D01*
X2491Y3822D01*
X2492Y3822D01*
X2493Y3822D01*
X2494Y3822D01*
X2495Y3822D01*
X2496Y3822D01*
X2497Y3822D01*
X2498Y3822D01*
X2499Y3822D01*
X2500Y3822D01*
X2501Y3822D01*
X2502Y3822D01*
X2503Y3822D01*
X2504Y3822D01*
X2505Y3822D01*
X2506Y3822D01*
X2507Y3822D01*
X2508Y3822D01*
X2509Y3822D01*
X2510Y3822D01*
X2511Y3822D01*
X2512Y3822D01*
X2513Y3822D01*
X2514Y3822D01*
X2515Y3822D01*
X2516Y3822D01*
X2517Y3822D01*
X2518Y3822D01*
X2519Y3822D01*
X2520Y3822D01*
X2521Y3822D01*
X2522Y3822D01*
X2523Y3822D01*
X2524Y3822D01*
X2525Y3822D01*
X2526Y3822D01*
X2527Y3822D01*
X2528Y3822D01*
X2529Y3822D01*
X2530Y3822D01*
X2531Y3822D01*
X2532Y3822D01*
X2533Y3822D01*
X2534Y3822D01*
X2535Y3822D01*
X2536Y3822D01*
X2537Y3822D01*
X2538Y3822D01*
X2539Y3822D01*
X2540Y3822D01*
X2541Y3822D01*
X2542Y3822D01*
X2543Y3822D01*
X2544Y3822D01*
X2545Y3822D01*
X2546Y3822D01*
X2547Y3822D01*
X2548Y3822D01*
X2549Y3822D01*
X2550Y3822D01*
X2551Y3822D01*
X2552Y3822D01*
X2553Y3822D01*
X2554Y3822D01*
X2555Y3822D01*
X2556Y3822D01*
X2557Y3822D01*
X2558Y3822D01*
X2559Y3822D01*
X2560Y3822D01*
X2561Y3822D01*
X2562Y3822D01*
X2563Y3822D01*
X2564Y3822D01*
X2565Y3822D01*
X2566Y3822D01*
X2567Y3822D01*
X2568Y3822D01*
X2569Y3822D01*
X2570Y3822D01*
X2571Y3822D01*
X2572Y3822D01*
X2573Y3822D01*
X2574Y3822D01*
X2575Y3822D01*
X2576Y3822D01*
X2577Y3822D01*
X2578Y3822D01*
X2579Y3822D01*
X2580Y3822D01*
X2581Y3822D01*
X2582Y3822D01*
X2583Y3822D01*
X2584Y3822D01*
X2585Y3822D01*
X2586Y3822D01*
X2587Y3822D01*
X2588Y3822D01*
X2589Y3822D01*
X2590Y3822D01*
X2591Y3822D01*
X2592Y3822D01*
X2593Y3822D01*
X2594Y3822D01*
X2595Y3822D01*
X2596Y3822D01*
X2597Y3822D01*
X2598Y3822D01*
X2599Y3822D01*
X2600Y3822D01*
X2601Y3822D01*
X2602Y3822D01*
X2603Y3822D01*
X2604Y3822D01*
X2605Y3822D01*
X2606Y3822D01*
X2607Y3822D01*
X2608Y3822D01*
X2609Y3822D01*
X2610Y3822D01*
X2611Y3822D01*
X2612Y3822D01*
X2613Y3822D01*
X2614Y3822D01*
X2615Y3822D01*
X2616Y3822D01*
X2617Y3822D01*
X2618Y3822D01*
X2619Y3822D01*
X2620Y3822D01*
X2621Y3822D01*
X2622Y3822D01*
X2623Y3822D01*
X2624Y3822D01*
X2625Y3822D01*
X2626Y3822D01*
X2627Y3822D01*
X2628Y3822D01*
X2629Y3822D01*
X2630Y3822D01*
X2631Y3822D01*
X2632Y3822D01*
X2633Y3822D01*
X2634Y3822D01*
X2635Y3822D01*
X2636Y3822D01*
X2637Y3822D01*
X2638Y3822D01*
X2639Y3822D01*
X2640Y3822D01*
X2641Y3822D01*
X2642Y3822D01*
X2643Y3822D01*
X2644Y3822D01*
X2645Y3822D01*
X2646Y3822D01*
X2647Y3822D01*
X2648Y3822D01*
X2649Y3822D01*
X2650Y3822D01*
X2651Y3822D01*
X2652Y3822D01*
X2653Y3822D01*
X2654Y3822D01*
X2655Y3822D01*
X2656Y3822D01*
X2657Y3822D01*
X2658Y3822D01*
X2659Y3822D01*
X2660Y3822D01*
X2661Y3822D01*
X2662Y3822D01*
X2663Y3822D01*
X2664Y3822D01*
X2665Y3822D01*
X2666Y3822D01*
X2667Y3822D01*
X2668Y3822D01*
X2669Y3822D01*
X2670Y3822D01*
X2671Y3822D01*
X2672Y3822D01*
X2673Y3822D01*
X2674Y3822D01*
X2675Y3822D01*
X2676Y3822D01*
X2677Y3822D01*
X2678Y3822D01*
X2679Y3822D01*
X2680Y3822D01*
X2681Y3822D01*
X2682Y3822D01*
X2683Y3822D01*
X2684Y3822D01*
X2685Y3822D01*
X2686Y3822D01*
X2687Y3822D01*
X2688Y3822D01*
X2689Y3822D01*
X2690Y3822D01*
X2691Y3822D01*
X2692Y3822D01*
X2693Y3822D01*
X2694Y3822D01*
X2695Y3822D01*
X2696Y3822D01*
X2697Y3822D01*
X2698Y3822D01*
X2699Y3822D01*
X2700Y3822D01*
X2701Y3822D01*
X2702Y3822D01*
X2703Y3822D01*
X2704Y3822D01*
X2705Y3822D01*
X2706Y3822D01*
X2707Y3822D01*
X2708Y3822D01*
X2709Y3822D01*
X2710Y3822D01*
X2711Y3822D01*
X2712Y3822D01*
X2713Y3822D01*
X2714Y3822D01*
X2715Y3822D01*
X2716Y3822D01*
X2717Y3822D01*
X2718Y3822D01*
X2719Y3822D01*
X2720Y3822D01*
X2721Y3822D01*
X2722Y3822D01*
X2723Y3822D01*
X2724Y3822D01*
X2725Y3822D01*
X2726Y3822D01*
X2727Y3822D01*
X2728Y3822D01*
X2729Y3822D01*
X2730Y3822D01*
X2731Y3822D01*
X2732Y3822D01*
X2733Y3822D01*
X2734Y3822D01*
X2735Y3822D01*
X2736Y3822D01*
X2737Y3822D01*
X2738Y3822D01*
X2739Y3822D01*
X2740Y3822D01*
X2741Y3822D01*
X2742Y3822D01*
X2743Y3822D01*
X2744Y3822D01*
X2745Y3822D01*
X2746Y3822D01*
X2747Y3822D01*
X2748Y3822D01*
X2749Y3822D01*
X2750Y3822D01*
X2751Y3822D01*
X2752Y3822D01*
X2753Y3822D01*
X2754Y3822D01*
X2755Y3822D01*
X2756Y3822D01*
X2757Y3822D01*
X2758Y3822D01*
X2759Y3822D01*
X2760Y3822D01*
X2761Y3822D01*
X2762Y3822D01*
X2763Y3822D01*
X2764Y3822D01*
X2765Y3822D01*
X2766Y3822D01*
X2767Y3822D01*
X2768Y3822D01*
X2769Y3822D01*
X2770Y3822D01*
X2771Y3822D01*
X2772Y3822D01*
X2773Y3822D01*
X2774Y3822D01*
X2775Y3822D01*
X2776Y3822D01*
X2777Y3822D01*
X2778Y3822D01*
X2779Y3822D01*
X2780Y3822D01*
X2781Y3822D01*
X2782Y3822D01*
X2783Y3822D01*
X2784Y3822D01*
X2785Y3822D01*
X2786Y3822D01*
X2787Y3822D01*
X2788Y3822D01*
X2789Y3822D01*
X2790Y3822D01*
X2791Y3822D01*
X2792Y3822D01*
X2793Y3822D01*
X2794Y3822D01*
X2795Y3822D01*
X2796Y3822D01*
X2797Y3822D01*
X2798Y3822D01*
X2799Y3822D01*
X2800Y3822D01*
X2801Y3822D01*
X2802Y3822D01*
X2803Y3822D01*
X2804Y3822D01*
X2805Y3822D01*
X2806Y3822D01*
X2807Y3822D01*
X2808Y3822D01*
X2809Y3822D01*
X2810Y3822D01*
X2811Y3822D01*
X2812Y3822D01*
X2813Y3822D01*
X2814Y3822D01*
X2815Y3822D01*
X2816Y3822D01*
X2817Y3822D01*
X2818Y3822D01*
X2819Y3822D01*
X2820Y3822D01*
X2821Y3822D01*
X2822Y3822D01*
X2823Y3822D01*
X2824Y3822D01*
X2825Y3822D01*
X2826Y3822D01*
X2827Y3822D01*
X2828Y3822D01*
X2829Y3822D01*
X2830Y3822D01*
X2831Y3822D01*
X2832Y3822D01*
X2833Y3822D01*
X2834Y3822D01*
X2835Y3822D01*
X2836Y3822D01*
X2837Y3822D01*
X2838Y3822D01*
X2839Y3822D01*
X2840Y3822D01*
X2841Y3822D01*
X2842Y3822D01*
X2843Y3822D01*
X2844Y3822D01*
X2845Y3822D01*
X2846Y3822D01*
X2847Y3822D01*
X2848Y3822D01*
X2849Y3822D01*
X2850Y3822D01*
X2851Y3822D01*
X2852Y3822D01*
X2853Y3822D01*
X2854Y3822D01*
X2855Y3822D01*
X2856Y3822D01*
X2857Y3822D01*
X2858Y3822D01*
X2859Y3822D01*
X2860Y3822D01*
X2861Y3822D01*
X2862Y3822D01*
X2863Y3822D01*
X2864Y3822D01*
X2865Y3822D01*
X2866Y3822D01*
X2867Y3822D01*
X2868Y3822D01*
X2869Y3822D01*
X2870Y3822D01*
X2871Y3822D01*
X2872Y3822D01*
X2873Y3822D01*
X2874Y3822D01*
X2875Y3822D01*
X2876Y3822D01*
X2877Y3822D01*
X2878Y3822D01*
X2879Y3822D01*
X2880Y3822D01*
X2881Y3822D01*
X2882Y3822D01*
X2883Y3822D01*
X2884Y3822D01*
X2885Y3822D01*
X2886Y3822D01*
X2887Y3822D01*
X2888Y3822D01*
X2889Y3822D01*
X2890Y3822D01*
X2891Y3822D01*
X2892Y3822D01*
X2893Y3822D01*
X2894Y3822D01*
X2895Y3822D01*
X2896Y3822D01*
X2897Y3822D01*
X2898Y3822D01*
X2899Y3822D01*
X2900Y3822D01*
X2901Y3822D01*
X2902Y3822D01*
X2903Y3822D01*
X2904Y3822D01*
X2905Y3822D01*
X2906Y3822D01*
X2907Y3822D01*
X2908Y3822D01*
X2909Y3822D01*
X2910Y3822D01*
X2911Y3822D01*
X2912Y3822D01*
X2913Y3822D01*
X2914Y3822D01*
X2915Y3822D01*
X2916Y3822D01*
X2917Y3822D01*
X2918Y3822D01*
X2919Y3822D01*
X2920Y3822D01*
X2921Y3822D01*
X2922Y3822D01*
X2923Y3822D01*
X2924Y3822D01*
X2925Y3822D01*
X2926Y3822D01*
X2927Y3822D01*
X2928Y3822D01*
X2929Y3822D01*
X2930Y3822D01*
X2931Y3822D01*
X2932Y3822D01*
X2933Y3822D01*
X2934Y3822D01*
X2935Y3822D01*
X2936Y3822D01*
X2937Y3822D01*
X2938Y3822D01*
X2939Y3822D01*
X2940Y3822D01*
X2941Y3822D01*
X2942Y3822D01*
X2943Y3822D01*
X2944Y3822D01*
X2945Y3822D01*
X2946Y3822D01*
X2947Y3822D01*
X2948Y3822D01*
X2949Y3822D01*
X2950Y3822D01*
X2951Y3822D01*
X2952Y3822D01*
X2953Y3822D01*
X2954Y3822D01*
X2955Y3822D01*
X2956Y3822D01*
X2957Y3822D01*
X2958Y3822D01*
X2959Y3822D01*
X2960Y3822D01*
X2961Y3822D01*
X2962Y3822D01*
X2963Y3822D01*
X2964Y3822D01*
X2965Y3822D01*
X2966Y3822D01*
X2967Y3822D01*
X2968Y3822D01*
X2969Y3822D01*
X2970Y3822D01*
X2971Y3822D01*
X2972Y3822D01*
X2973Y3822D01*
X2974Y3822D01*
X2975Y3822D01*
X2976Y3822D01*
X2977Y3822D01*
X2978Y3822D01*
X2979Y3822D01*
X2980Y3822D01*
X2981Y3822D01*
X2982Y3822D01*
X2983Y3822D01*
X2984Y3822D01*
X2985Y3822D01*
X2986Y3822D01*
X2987Y3822D01*
X2988Y3822D01*
X2989Y3822D01*
X2990Y3822D01*
X2991Y3822D01*
X2992Y3822D01*
X2993Y3822D01*
X2994Y3822D01*
X2995Y3822D01*
X2996Y3822D01*
X2997Y3822D01*
X2998Y3822D01*
X2999Y3822D01*
X3000Y3822D01*
X3001Y3822D01*
X3002Y3822D01*
X3003Y3822D01*
X3004Y3822D01*
X3005Y3822D01*
X3006Y3822D01*
X3007Y3822D01*
X3008Y3822D01*
X3009Y3822D01*
X3010Y3822D01*
X3011Y3822D01*
X3012Y3822D01*
X3013Y3822D01*
X3014Y3822D01*
X3015Y3822D01*
X3016Y3822D01*
X3017Y3822D01*
X3018Y3822D01*
X3019Y3822D01*
X3020Y3822D01*
X3021Y3822D01*
X3022Y3822D01*
X3023Y3822D01*
X3024Y3822D01*
X3025Y3822D01*
X3026Y3822D01*
X3027Y3822D01*
X3028Y3822D01*
X3029Y3822D01*
X3030Y3822D01*
X3031Y3822D01*
X3032Y3822D01*
X3033Y3822D01*
X3034Y3822D01*
X3035Y3822D01*
X3036Y3822D01*
X3037Y3822D01*
X3038Y3822D01*
X3039Y3822D01*
X3040Y3822D01*
X3041Y3822D01*
X3042Y3822D01*
X3043Y3822D01*
X3044Y3822D01*
X3045Y3822D01*
X3046Y3822D01*
X3047Y3822D01*
X3048Y3822D01*
X3049Y3822D01*
X3050Y3822D01*
X3051Y3822D01*
X3052Y3822D01*
X3053Y3822D01*
X3054Y3822D01*
X3055Y3822D01*
X3056Y3822D01*
X3057Y3822D01*
X3058Y3822D01*
X3059Y3822D01*
X3060Y3822D01*
X3061Y3822D01*
X3062Y3822D01*
X3063Y3822D01*
X3064Y3822D01*
X3065Y3822D01*
X3066Y3822D01*
X3067Y3822D01*
X3068Y3822D01*
X3069Y3822D01*
X3070Y3822D01*
X3071Y3822D01*
X3072Y3822D01*
X3073Y3822D01*
X3074Y3822D01*
X3075Y3822D01*
X3076Y3822D01*
X3077Y3822D01*
X3078Y3822D01*
X3079Y3822D01*
X3080Y3822D01*
X3081Y3822D01*
X3082Y3822D01*
X3083Y3822D01*
X3084Y3822D01*
X3085Y3822D01*
X3086Y3822D01*
X3087Y3822D01*
X3088Y3822D01*
X3089Y3822D01*
X3090Y3822D01*
X3091Y3822D01*
X3092Y3822D01*
X3093Y3822D01*
X3094Y3822D01*
X3095Y3822D01*
X3096Y3822D01*
X3097Y3822D01*
X3098Y3822D01*
X3099Y3822D01*
X3100Y3822D01*
X3101Y3822D01*
X3102Y3822D01*
X3103Y3822D01*
X3104Y3822D01*
X3105Y3822D01*
X3106Y3822D01*
X3107Y3822D01*
X3108Y3822D01*
X3109Y3822D01*
X3110Y3822D01*
X3111Y3822D01*
X3112Y3822D01*
X3113Y3822D01*
X3114Y3822D01*
X3115Y3822D01*
X3116Y3822D01*
X3117Y3822D01*
X3118Y3822D01*
X3119Y3822D01*
X3120Y3822D01*
X3121Y3822D01*
X3122Y3822D01*
X3123Y3822D01*
X3124Y3822D01*
X3125Y3822D01*
X3126Y3822D01*
X3127Y3822D01*
X3128Y3822D01*
X3129Y3822D01*
X3130Y3822D01*
X3131Y3822D01*
X3132Y3822D01*
X3133Y3822D01*
X3134Y3822D01*
X3135Y3822D01*
X3136Y3822D01*
X3137Y3822D01*
X3138Y3822D01*
X3139Y3822D01*
X3140Y3822D01*
X3141Y3822D01*
X3142Y3822D01*
X3143Y3822D01*
X3144Y3822D01*
X3145Y3822D01*
X3146Y3822D01*
X3147Y3822D01*
X3148Y3822D01*
X3149Y3822D01*
X3150Y3822D01*
X3151Y3822D01*
X3152Y3822D01*
X3153Y3822D01*
X3154Y3822D01*
X3155Y3822D01*
X3156Y3822D01*
X3157Y3822D01*
X3158Y3822D01*
X3159Y3822D01*
X3160Y3822D01*
X3161Y3822D01*
X3162Y3822D01*
X3163Y3822D01*
X3164Y3822D01*
X3165Y3822D01*
X3166Y3822D01*
X3167Y3822D01*
X3168Y3822D01*
X3169Y3822D01*
X3170Y3822D01*
X3171Y3822D01*
X3172Y3822D01*
X3173Y3822D01*
X3174Y3822D01*
X3175Y3822D01*
X3176Y3822D01*
X3177Y3822D01*
X3178Y3822D01*
X3179Y3822D01*
X3180Y3822D01*
X3181Y3822D01*
X3182Y3822D01*
X3183Y3822D01*
X3184Y3822D01*
X3185Y3822D01*
X3186Y3822D01*
X3187Y3822D01*
X3188Y3822D01*
X3189Y3822D01*
X3190Y3822D01*
X3191Y3822D01*
X3192Y3822D01*
X3193Y3822D01*
X3194Y3822D01*
X3195Y3822D01*
X3196Y3822D01*
X3197Y3822D01*
X3198Y3822D01*
X3199Y3822D01*
X3200Y3822D01*
X3201Y3822D01*
X3202Y3822D01*
X3203Y3822D01*
X3204Y3822D01*
X3205Y3822D01*
X3206Y3822D01*
X3207Y3822D01*
X3208Y3822D01*
X3209Y3822D01*
X3210Y3822D01*
X3211Y3822D01*
X3212Y3822D01*
X3213Y3822D01*
X3214Y3822D01*
X3215Y3822D01*
X3216Y3822D01*
X3217Y3822D01*
X3218Y3822D01*
X3219Y3822D01*
X3220Y3822D01*
X3221Y3822D01*
X3222Y3822D01*
X3223Y3822D01*
X3224Y3822D01*
X3225Y3822D01*
X3226Y3822D01*
X3227Y3822D01*
X3228Y3822D01*
X3229Y3822D01*
X3230Y3822D01*
X3231Y3822D01*
X3232Y3822D01*
X3233Y3822D01*
X3234Y3822D01*
X3235Y3822D01*
X3236Y3822D01*
X3237Y3822D01*
X3238Y3822D01*
X3239Y3822D01*
X3240Y3822D01*
X3241Y3822D01*
X3242Y3822D01*
X3243Y3822D01*
X3244Y3822D01*
X3245Y3822D01*
X3246Y3822D01*
X3247Y3822D01*
X3248Y3822D01*
X3249Y3822D01*
X3250Y3822D01*
X3251Y3822D01*
X3252Y3822D01*
X3253Y3822D01*
X3254Y3822D01*
X3255Y3822D01*
X3256Y3822D01*
X3257Y3822D01*
X3258Y3822D01*
X3259Y3822D01*
X3260Y3822D01*
X3261Y3822D01*
X3262Y3822D01*
X3263Y3822D01*
X3264Y3822D01*
X3265Y3822D01*
X3266Y3822D01*
X3267Y3822D01*
X3268Y3822D01*
X3269Y3822D01*
X3270Y3822D01*
X3271Y3822D01*
X3272Y3822D01*
X3273Y3822D01*
X3274Y3822D01*
X3275Y3822D01*
X3276Y3822D01*
X3277Y3822D01*
X3278Y3822D01*
X3279Y3822D01*
X3280Y3822D01*
X3281Y3822D01*
X3282Y3822D01*
X3283Y3822D01*
X3284Y3822D01*
X3285Y3822D01*
X3286Y3822D01*
X3287Y3822D01*
X3288Y3822D01*
X3289Y3822D01*
X3290Y3822D01*
X3291Y3822D01*
X3292Y3822D01*
X3293Y3822D01*
X3294Y3822D01*
X3295Y3822D01*
X3296Y3822D01*
X3297Y3822D01*
X3298Y3822D01*
X3299Y3822D01*
X3300Y3822D01*
X3301Y3822D01*
X3302Y3822D01*
X3303Y3822D01*
X3304Y3822D01*
X3305Y3822D01*
X3306Y3822D01*
X3307Y3822D01*
X3308Y3822D01*
X3309Y3822D01*
X3310Y3822D01*
X3311Y3822D01*
X3312Y3822D01*
X3313Y3822D01*
X3314Y3822D01*
X3315Y3822D01*
X3316Y3822D01*
X3317Y3822D01*
X3318Y3822D01*
X3319Y3822D01*
X3320Y3822D01*
X3321Y3822D01*
X3322Y3822D01*
X3323Y3822D01*
X3324Y3822D01*
X3325Y3822D01*
X3326Y3822D01*
X3327Y3822D01*
X3328Y3822D01*
X3329Y3822D01*
X3330Y3822D01*
X3331Y3822D01*
X3332Y3822D01*
X3333Y3822D01*
X3334Y3822D01*
X3335Y3822D01*
X3336Y3822D01*
X3337Y3822D01*
X3338Y3822D01*
X3339Y3822D01*
X3340Y3822D01*
X3341Y3822D01*
X3342Y3822D01*
X3343Y3822D01*
X3344Y3822D01*
X3345Y3822D01*
X3346Y3822D01*
X3347Y3822D01*
X3348Y3822D01*
X3349Y3822D01*
X3350Y3822D01*
X3351Y3822D01*
X3352Y3822D01*
X3353Y3822D01*
X3354Y3822D01*
X3355Y3822D01*
X3356Y3822D01*
X3357Y3822D01*
X3358Y3822D01*
X3359Y3822D01*
X3360Y3822D01*
X3361Y3822D01*
X3362Y3822D01*
X3363Y3822D01*
X3364Y3822D01*
X3365Y3822D01*
X3366Y3822D01*
X3367Y3822D01*
X3368Y3822D01*
X3369Y3822D01*
X3370Y3822D01*
X3371Y3822D01*
X3372Y3822D01*
X3373Y3822D01*
X3374Y3822D01*
X3375Y3822D01*
X3376Y3822D01*
X3377Y3822D01*
X3378Y3822D01*
X3379Y3822D01*
X3380Y3822D01*
X3381Y3822D01*
X3382Y3822D01*
X3383Y3822D01*
X3384Y3822D01*
X3385Y3822D01*
X3386Y3822D01*
X3387Y3822D01*
X3388Y3822D01*
X3389Y3822D01*
X3390Y3822D01*
X3391Y3822D01*
X3392Y3822D01*
X3393Y3822D01*
X3394Y3822D01*
X3395Y3822D01*
X3396Y3822D01*
X3397Y3822D01*
X3398Y3822D01*
X3399Y3822D01*
X3400Y3822D01*
X3401Y3822D01*
X3402Y3822D01*
X3403Y3822D01*
X3404Y3822D01*
X3405Y3822D01*
X3406Y3822D01*
X3407Y3822D01*
X3408Y3822D01*
X3409Y3822D01*
X3410Y3822D01*
X3411Y3822D01*
X3412Y3822D01*
X3413Y3822D01*
X3414Y3822D01*
X3415Y3822D01*
X3416Y3822D01*
X3417Y3822D01*
X3418Y3822D01*
X3419Y3822D01*
X3420Y3822D01*
X3421Y3822D01*
X3422Y3822D01*
X3423Y3822D01*
X3424Y3822D01*
X3425Y3822D01*
X3426Y3822D01*
X3427Y3822D01*
X3428Y3822D01*
X3429Y3822D01*
X3430Y3822D01*
X3431Y3822D01*
X3432Y3822D01*
X3433Y3822D01*
X3434Y3822D01*
X3435Y3822D01*
X3436Y3822D01*
X3437Y3822D01*
X3438Y3822D01*
X3439Y3822D01*
X3440Y3822D01*
X3441Y3822D01*
X3442Y3822D01*
X3443Y3822D01*
X3444Y3822D01*
X3445Y3822D01*
X3446Y3822D01*
X3447Y3822D01*
X3448Y3822D01*
X3449Y3822D01*
X3450Y3822D01*
X3451Y3822D01*
X3452Y3822D01*
X3453Y3822D01*
X3454Y3822D01*
X3455Y3822D01*
X3456Y3822D01*
X3457Y3822D01*
X3458Y3822D01*
X3459Y3822D01*
X3460Y3822D01*
X3461Y3822D01*
X3462Y3822D01*
X3463Y3822D01*
X3464Y3822D01*
X3465Y3822D01*
X3466Y3822D01*
X3467Y3822D01*
X3468Y3822D01*
X3469Y3822D01*
X3470Y3822D01*
X3471Y3822D01*
X3472Y3822D01*
X3473Y3822D01*
X3474Y3822D01*
X3475Y3822D01*
X3476Y3822D01*
X3477Y3822D01*
X3478Y3822D01*
X3479Y3822D01*
X3480Y3822D01*
X3481Y3822D01*
X3482Y3822D01*
X3483Y3822D01*
X3484Y3822D01*
X3485Y3822D01*
X3486Y3822D01*
X3487Y3822D01*
X3488Y3822D01*
X3489Y3822D01*
X3490Y3822D01*
X3491Y3822D01*
X3492Y3822D01*
X3493Y3822D01*
X3494Y3822D01*
X3495Y3822D01*
X3496Y3822D01*
X3497Y3822D01*
X3498Y3822D01*
X3499Y3822D01*
X3500Y3822D01*
X3501Y3822D01*
X3502Y3822D01*
X3503Y3822D01*
X3504Y3822D01*
X3505Y3822D01*
X3506Y3822D01*
X3507Y3822D01*
X3508Y3822D01*
X3509Y3822D01*
X3510Y3822D01*
X3511Y3822D01*
X3512Y3822D01*
X3513Y3822D01*
X3514Y3822D01*
X3515Y3822D01*
X3516Y3822D01*
X3517Y3822D01*
X3518Y3822D01*
X3519Y3822D01*
X3520Y3822D01*
X3521Y3822D01*
X3522Y3822D01*
X3523Y3822D01*
X3524Y3822D01*
X3525Y3822D01*
X3526Y3822D01*
X3527Y3822D01*
X3528Y3822D01*
X3529Y3822D01*
X3530Y3822D01*
X3531Y3822D01*
X3532Y3822D01*
X3533Y3822D01*
X3534Y3822D01*
X3535Y3822D01*
X3536Y3822D01*
X3537Y3822D01*
X3538Y3822D01*
X3539Y3822D01*
X3540Y3822D01*
X3541Y3822D01*
X3542Y3822D01*
X3543Y3822D01*
X3544Y3822D01*
X3545Y3822D01*
X3546Y3822D01*
X3547Y3822D01*
X3548Y3822D01*
X3549Y3822D01*
X3550Y3822D01*
X3551Y3822D01*
X3552Y3822D01*
X3553Y3822D01*
X3554Y3822D01*
X3555Y3822D01*
X3556Y3822D01*
X3557Y3822D01*
X3558Y3822D01*
X3559Y3822D01*
X3560Y3822D01*
X3561Y3822D01*
X3562Y3822D01*
X3563Y3822D01*
X3564Y3822D01*
X3565Y3822D01*
X3566Y3822D01*
X3567Y3822D01*
X3568Y3822D01*
X3569Y3822D01*
X3570Y3822D01*
X3571Y3822D01*
X3572Y3822D01*
X3573Y3822D01*
X3574Y3822D01*
X3575Y3822D01*
X3576Y3822D01*
X3577Y3822D01*
X3578Y3822D01*
X3579Y3822D01*
X3580Y3822D01*
X3581Y3822D01*
X3582Y3822D01*
X3583Y3822D01*
X3584Y3822D01*
X3585Y3822D01*
X3586Y3822D01*
X3587Y3822D01*
X3588Y3822D01*
X3589Y3822D01*
X3590Y3822D01*
X3591Y3822D01*
X3592Y3822D01*
X3593Y3822D01*
X3594Y3822D01*
X3595Y3822D01*
X3596Y3822D01*
X3597Y3822D01*
X3598Y3822D01*
X3599Y3822D01*
X3600Y3822D01*
X3601Y3822D01*
X3602Y3822D01*
X3603Y3822D01*
X3604Y3822D01*
X3605Y3822D01*
X3606Y3822D01*
X3607Y3822D01*
X3608Y3822D01*
X3609Y3822D01*
X3610Y3822D01*
X3611Y3822D01*
X3612Y3822D01*
X3613Y3822D01*
X3614Y3822D01*
X3615Y3822D01*
X3616Y3822D01*
X3617Y3822D01*
X3618Y3822D01*
X3619Y3822D01*
X3620Y3822D01*
X3621Y3822D01*
X3622Y3822D01*
X3623Y3822D01*
X3624Y3822D01*
X3625Y3822D01*
X3626Y3822D01*
X3627Y3822D01*
X3628Y3822D01*
X3629Y3822D01*
X3630Y3822D01*
X3631Y3822D01*
X3632Y3822D01*
X3633Y3822D01*
X3634Y3822D01*
X3635Y3822D01*
X3636Y3822D01*
X3637Y3822D01*
X3638Y3822D01*
X3639Y3822D01*
X3640Y3822D01*
X3641Y3822D01*
X3642Y3822D01*
X3643Y3822D01*
X3644Y3822D01*
X3645Y3822D01*
X3646Y3822D01*
X3647Y3822D01*
X3648Y3822D01*
X3649Y3822D01*
X3650Y3822D01*
X3651Y3822D01*
X3652Y3822D01*
X3653Y3822D01*
X3654Y3822D01*
X3655Y3822D01*
X3656Y3822D01*
X3657Y3822D01*
X3658Y3822D01*
X3659Y3822D01*
X3660Y3822D01*
X3661Y3822D01*
X3662Y3822D01*
X3663Y3822D01*
X3664Y3822D01*
X3665Y3822D01*
X3666Y3822D01*
X3667Y3822D01*
X3668Y3822D01*
X3669Y3822D01*
X3670Y3822D01*
X3671Y3822D01*
X3672Y3822D01*
X3673Y3822D01*
X3674Y3822D01*
X3675Y3822D01*
X3676Y3822D01*
X3677Y3822D01*
X3678Y3822D01*
X3679Y3822D01*
X3680Y3822D01*
X3681Y3822D01*
X3682Y3822D01*
X3683Y3822D01*
X3684Y3822D01*
X3685Y3822D01*
X3686Y3822D01*
X3687Y3822D01*
X3688Y3822D01*
X3689Y3822D01*
X3690Y3822D01*
X3691Y3822D01*
X3692Y3822D01*
X3693Y3822D01*
X3694Y3822D01*
X3695Y3822D01*
X3696Y3822D01*
X3697Y3822D01*
X3698Y3822D01*
X3699Y3822D01*
X3700Y3822D01*
X3701Y3822D01*
X3702Y3822D01*
X3703Y3822D01*
X3704Y3822D01*
X3705Y3822D01*
X3706Y3822D01*
X3707Y3822D01*
X3708Y3822D01*
X3709Y3822D01*
X3710Y3822D01*
X3711Y3822D01*
X3712Y3822D01*
X3713Y3822D01*
X3714Y3822D01*
X3715Y3822D01*
X3716Y3822D01*
X3717Y3822D01*
X3718Y3822D01*
X3719Y3822D01*
X3720Y3822D01*
X3721Y3822D01*
X3722Y3822D01*
X3723Y3822D01*
X3724Y3822D01*
X3725Y3822D01*
X3726Y3822D01*
X3727Y3822D01*
X3728Y3822D01*
X3729Y3822D01*
X3730Y3822D01*
X3731Y3822D01*
X3732Y3822D01*
X3733Y3822D01*
X3734Y3822D01*
X3735Y3822D01*
X3736Y3822D01*
X3737Y3822D01*
X3738Y3822D01*
X3739Y3822D01*
X3740Y3822D01*
X3741Y3822D01*
X3742Y3822D01*
X3743Y3822D01*
X3744Y3822D01*
X3745Y3822D01*
X3746Y3822D01*
X3747Y3822D01*
X3748Y3822D01*
X3749Y3822D01*
X3750Y3822D01*
X3751Y3822D01*
X3752Y3822D01*
X3753Y3822D01*
X3754Y3822D01*
X3755Y3822D01*
X3756Y3822D01*
X3757Y3822D01*
X3758Y3822D01*
X3759Y3822D01*
X3760Y3822D01*
X3761Y3822D01*
X3762Y3822D01*
X3763Y3822D01*
X3764Y3822D01*
X3765Y3822D01*
X3766Y3822D01*
X3767Y3822D01*
X3768Y3822D01*
X3769Y3822D01*
X3770Y3822D01*
X3771Y3822D01*
X3772Y3822D01*
X3773Y3822D01*
X3774Y3822D01*
X3775Y3822D01*
X3776Y3822D01*
X3777Y3822D01*
X3778Y3822D01*
X3779Y3822D01*
X3780Y3822D01*
X3781Y3822D01*
X3782Y3822D01*
X3783Y3822D01*
X3784Y3822D01*
X3785Y3822D01*
X3786Y3822D01*
X3787Y3822D01*
X3788Y3822D01*
X3789Y3822D01*
X3790Y3822D01*
X3791Y3822D01*
X3792Y3822D01*
X3793Y3822D01*
X3794Y3822D01*
X3795Y3822D01*
X3796Y3822D01*
X3797Y3822D01*
X3798Y3822D01*
X3799Y3822D01*
X3800Y3822D01*
X3801Y3822D01*
X3802Y3822D01*
X3803Y3822D01*
X3804Y3822D01*
X3805Y3822D01*
X3806Y3822D01*
X3807Y3822D01*
X3808Y3822D01*
X3809Y3822D01*
X3810Y3822D01*
X3811Y3822D01*
X3812Y3822D01*
X3813Y3822D01*
X3814Y3822D01*
X3815Y3822D01*
X3816Y3822D01*
X3817Y3822D01*
X3818Y3822D01*
X3819Y3822D01*
X3820Y3822D01*
X3821Y3822D01*
X3822Y3822D01*
X3823Y3822D01*
X3824Y3822D01*
X3825Y3822D01*
X3826Y3822D01*
X3827Y3822D01*
X3828Y3822D01*
X3829Y3822D01*
X3830Y3822D01*
X3831Y3822D01*
X3832Y3822D01*
X3833Y3822D01*
X3834Y3822D01*
X3835Y3822D01*
X3836Y3822D01*
X3837Y3822D01*
X3838Y3822D01*
X3839Y3822D01*
X3840Y3822D01*
X3841Y3822D01*
X3842Y3822D01*
X3843Y3822D01*
X3844Y3822D01*
X3845Y3822D01*
X3846Y3822D01*
X3847Y3822D01*
X3848Y3822D01*
X3849Y3822D01*
X3850Y3822D01*
X3851Y3822D01*
X3852Y3822D01*
X3853Y3822D01*
X3854Y3822D01*
X3855Y3822D01*
X3856Y3822D01*
X3857Y3822D01*
X3858Y3822D01*
X3859Y3822D01*
X3860Y3822D01*
X3861Y3822D01*
X3862Y3822D01*
X3863Y3822D01*
X3864Y3822D01*
X3865Y3822D01*
X3866Y3822D01*
X3867Y3822D01*
X3868Y3822D01*
X3869Y3822D01*
X3870Y3822D01*
X3871Y3822D01*
X3872Y3822D01*
X3873Y3822D01*
X3874Y3822D01*
X3875Y3822D01*
X3876Y3822D01*
X3877Y3822D01*
X3878Y3822D01*
X3879Y3822D01*
X3880Y3822D01*
X3881Y3822D01*
X3882Y3822D01*
X3883Y3822D01*
X3884Y3822D01*
X3885Y3822D01*
X3886Y3822D01*
X3887Y3822D01*
X3888Y3822D01*
X3889Y3822D01*
X3890Y3822D01*
X3891Y3822D01*
X3892Y3822D01*
X3893Y3822D01*
X3894Y3822D01*
X3895Y3822D01*
X3896Y3822D01*
X3897Y3822D01*
X3898Y3822D01*
X3899Y3822D01*
X3900Y3822D01*
X3901Y3822D01*
X3902Y3822D01*
X3903Y3822D01*
X3904Y3822D01*
X3905Y3822D01*
X3906Y3822D01*
X3907Y3822D01*
X3908Y3822D01*
X3909Y3822D01*
X3910Y3822D01*
X3911Y3822D01*
X3912Y3822D01*
X3913Y3822D01*
X3914Y3822D01*
X3915Y3822D01*
X3916Y3822D01*
X3917Y3822D01*
X3918Y3822D01*
X3919Y3822D01*
X3920Y3822D01*
X3921Y3822D01*
X3922Y3822D01*
X3923Y3822D01*
X3924Y3822D01*
X3925Y3822D01*
X3926Y3822D01*
X3927Y3822D01*
X3928Y3822D01*
X3929Y3822D01*
X3930Y3822D01*
X3931Y3822D01*
X3932Y3822D01*
X3933Y3822D01*
X3934Y3822D01*
X3935Y3822D01*
X3936Y3822D01*
X3937Y3822D01*
X3938Y3822D01*
X3939Y3822D01*
X3940Y3822D01*
X3941Y3822D01*
X3942Y3822D01*
X3943Y3822D01*
X3944Y3822D01*
X3945Y3822D01*
X3946Y3822D01*
X3947Y3822D01*
X3948Y3822D01*
X3949Y3822D01*
X3950Y3822D01*
X3951Y3822D01*
X3952Y3822D01*
X3953Y3822D01*
X3954Y3822D01*
X3955Y3822D01*
X3956Y3822D01*
X3957Y3822D01*
X3958Y3822D01*
X3959Y3822D01*
X3960Y3822D01*
X3961Y3822D01*
X3962Y3822D01*
X3963Y3822D01*
X3964Y3822D01*
X3965Y3822D01*
X3966Y3822D01*
X3967Y3822D01*
X3968Y3822D01*
X3969Y3822D01*
X3970Y3822D01*
X3971Y3822D01*
X3972Y3822D01*
X3973Y3822D01*
X3974Y3822D01*
X3975Y3822D01*
X3976Y3822D01*
X3977Y3822D01*
X3978Y3822D01*
X3979Y3822D01*
X3980Y3822D01*
X3981Y3822D01*
X3982Y3822D01*
X3983Y3822D01*
X3984Y3822D01*
X3985Y3822D01*
X3986Y3822D01*
X3987Y3822D01*
X3988Y3822D01*
X3989Y3822D01*
X3990Y3822D01*
X3991Y3822D01*
X3992Y3822D01*
X3993Y3822D01*
X3994Y3822D01*
X3995Y3822D01*
X3996Y3822D01*
X3997Y3822D01*
X3998Y3822D01*
X3999Y3822D01*
X4000Y3822D01*
X4001Y3822D01*
X4002Y3822D01*
X4003Y3822D01*
X4004Y3822D01*
X4005Y3822D01*
X4006Y3822D01*
X4007Y3822D01*
X4008Y3822D01*
X4009Y3822D01*
X4010Y3822D01*
X4011Y3822D01*
X4012Y3822D01*
X4013Y3822D01*
X4014Y3822D01*
X4015Y3822D01*
X4016Y3822D01*
X4017Y3822D01*
X4018Y3822D01*
X4019Y3822D01*
X4020Y3822D01*
X4021Y3822D01*
X4022Y3822D01*
X4023Y3822D01*
X4024Y3822D01*
X4025Y3822D01*
X4026Y3822D01*
X4027Y3822D01*
X4028Y3822D01*
X4029Y3822D01*
X4030Y3822D01*
X4031Y3822D01*
X4032Y3822D01*
X4033Y3822D01*
X4034Y3822D01*
X4035Y3822D01*
X4036Y3822D01*
X4037Y3822D01*
X4038Y3822D01*
X4039Y3822D01*
X4040Y3822D01*
X4041Y3822D01*
X4042Y3822D01*
X4043Y3822D01*
X4044Y3822D01*
X4045Y3822D01*
X4046Y3822D01*
X4047Y3822D01*
X4048Y3822D01*
X4049Y3822D01*
X4050Y3822D01*
X4051Y3822D01*
X4052Y3822D01*
X4053Y3822D01*
X4054Y3822D01*
X4055Y3822D01*
X4056Y3822D01*
X4057Y3822D01*
X4058Y3822D01*
X4059Y3822D01*
X4060Y3822D01*
X4061Y3822D01*
X4062Y3822D01*
X4063Y3822D01*
X4064Y3822D01*
X4065Y3822D01*
X4066Y3822D01*
X4067Y3822D01*
X4068Y3822D01*
X4069Y3822D01*
X4070Y3822D01*
X4071Y3822D01*
X4072Y3822D01*
X4073Y3822D01*
X4074Y3822D01*
X4075Y3822D01*
X4076Y3822D01*
X4077Y3822D01*
X4078Y3822D01*
X4079Y3822D01*
X4080Y3822D01*
X4081Y3822D01*
X4082Y3822D01*
X4083Y3822D01*
X4084Y3822D01*
X4085Y3822D01*
X4086Y3822D01*
X4087Y3822D01*
X4088Y3822D01*
X4089Y3822D01*
X4090Y3822D01*
X4091Y3822D01*
X4092Y3822D01*
X4093Y3822D01*
X4094Y3822D01*
X4095Y3822D01*
X4096Y3822D01*
X4097Y3822D01*
X4098Y3822D01*
X4099Y3822D01*
X4100Y3822D01*
X4101Y3822D01*
X4102Y3822D01*
X4103Y3822D01*
X4104Y3822D01*
X4105Y3822D01*
X4106Y3822D01*
X4107Y3822D01*
X4108Y3822D01*
X4109Y3822D01*
X4110Y3822D01*
X4111Y3822D01*
X4112Y3822D01*
X4113Y3822D01*
X4114Y3822D01*
X4115Y3822D01*
X4116Y3822D01*
X4117Y3822D01*
X4118Y3822D01*
X4119Y3822D01*
X4120Y3822D01*
X4121Y3822D01*
X4122Y3822D01*
X4123Y3822D01*
X4124Y3822D01*
X4125Y3822D01*
X4126Y3822D01*
X4127Y3822D01*
X4128Y3822D01*
X4129Y3822D01*
X4130Y3822D01*
X4131Y3822D01*
X4132Y3822D01*
X4133Y3822D01*
X4134Y3822D01*
X4135Y3822D01*
X4136Y3822D01*
X4137Y3822D01*
X4138Y3822D01*
X4139Y3822D01*
X4140Y3822D01*
X4141Y3822D01*
X4142Y3822D01*
X4143Y3822D01*
X4144Y3822D01*
X4145Y3822D01*
X4146Y3822D01*
X4147Y3822D01*
X4148Y3822D01*
X4149Y3822D01*
X4150Y3822D01*
X4151Y3822D01*
X4152Y3822D01*
X4153Y3822D01*
X4154Y3822D01*
X4155Y3822D01*
X4156Y3822D01*
X4157Y3822D01*
X4158Y3822D01*
X4159Y3822D01*
X4160Y3822D01*
X4161Y3822D01*
X4162Y3822D01*
X4163Y3822D01*
X4164Y3822D01*
X4165Y3822D01*
X4166Y3822D01*
X4167Y3822D01*
X4168Y3822D01*
X4169Y3822D01*
X4170Y3822D01*
X4171Y3822D01*
X4172Y3822D01*
X4173Y3822D01*
X4174Y3822D01*
X4175Y3822D01*
X4176Y3822D01*
X4177Y3822D01*
X4178Y3822D01*
X4179Y3822D01*
X4180Y3822D01*
X4181Y3822D01*
X4182Y3822D01*
X4183Y3822D01*
X4184Y3822D01*
X4185Y3822D01*
X4186Y3822D01*
X4187Y3822D01*
X4188Y3822D01*
X4189Y3822D01*
X4190Y3822D01*
X4191Y3822D01*
X4192Y3822D01*
X4193Y3822D01*
X4194Y3822D01*
X4195Y3822D01*
X4196Y3822D01*
X4197Y3822D01*
X4198Y3822D01*
X4199Y3822D01*
X4200Y3822D01*
X4201Y3822D01*
X4202Y3822D01*
X4203Y3822D01*
X4204Y3822D01*
X4205Y3822D01*
X4206Y3822D01*
X4207Y3822D01*
X4208Y3822D01*
X4209Y3822D01*
X4210Y3822D01*
X4211Y3822D01*
X4212Y3822D01*
X4213Y3822D01*
X4214Y3822D01*
X4215Y3822D01*
X4216Y3822D01*
X4217Y3822D01*
X4218Y3822D01*
X4219Y3822D01*
X4220Y3822D01*
X4221Y3822D01*
X4222Y3822D01*
X4223Y3822D01*
X4224Y3822D01*
X4225Y3822D01*
X4226Y3822D01*
X4227Y3822D01*
X4228Y3822D01*
X4229Y3822D01*
X4230Y3822D01*
X4231Y3822D01*
X4232Y3822D01*
X4233Y3822D01*
X4234Y3822D01*
X4235Y3822D01*
X4236Y3822D01*
X4237Y3822D01*
X4238Y3822D01*
X4239Y3822D01*
X4240Y3822D01*
X4241Y3822D01*
X4242Y3822D01*
X4243Y3822D01*
X4244Y3822D01*
X4245Y3822D01*
X4246Y3822D01*
X4247Y3822D01*
X4248Y3822D01*
X4249Y3822D01*
X4250Y3822D01*
X4251Y3822D01*
X4252Y3822D01*
X4253Y3822D01*
X4254Y3822D01*
X4255Y3822D01*
X4256Y3822D01*
X4257Y3822D01*
X4258Y3822D01*
X4259Y3822D01*
X4260Y3822D01*
X4261Y3822D01*
X4262Y3822D01*
X4263Y3822D01*
X4264Y3822D01*
X4265Y3822D01*
X4266Y3822D01*
X4267Y3822D01*
X4268Y3822D01*
X4269Y3822D01*
X4270Y3822D01*
X4271Y3822D01*
X4272Y3822D01*
X4273Y3822D01*
X4274Y3822D01*
X4275Y3822D01*
X4276Y3822D01*
X4277Y3822D01*
X4278Y3822D01*
X4279Y3822D01*
X4280Y3822D01*
X4281Y3822D01*
X4282Y3822D01*
X4283Y3822D01*
X4284Y3822D01*
X4285Y3822D01*
X4286Y3822D01*
X4287Y3822D01*
X4288Y3822D01*
X4289Y3822D01*
X4290Y3822D01*
X4291Y3822D01*
X4292Y3822D01*
X4293Y3822D01*
X4294Y3822D01*
X4295Y3822D01*
X4296Y3822D01*
X4297Y3822D01*
X4298Y3822D01*
X4299Y3822D01*
X4300Y3822D01*
X4301Y3822D01*
X4302Y3822D01*
X4303Y3822D01*
X4304Y3822D01*
X4305Y3822D01*
X4306Y3822D01*
X4307Y3822D01*
X4308Y3822D01*
X4309Y3822D01*
X4310Y3822D01*
X4311Y3822D01*
X4312Y3822D01*
X4313Y3822D01*
X4314Y3822D01*
X4315Y3822D01*
X4316Y3822D01*
X4317Y3822D01*
X4318Y3822D01*
X4319Y3822D01*
X4320Y3822D01*
X4321Y3822D01*
X4322Y3822D01*
X4323Y3822D01*
X4324Y3822D01*
X4325Y3822D01*
X4326Y3822D01*
X4327Y3822D01*
X4328Y3822D01*
X4329Y3822D01*
X4330Y3822D01*
X4331Y3822D01*
X4332Y3822D01*
X4333Y3822D01*
X4334Y3822D01*
X4335Y3822D01*
X4336Y3822D01*
X4337Y3822D01*
X4338Y3822D01*
X4339Y3822D01*
X4340Y3822D01*
X4341Y3822D01*
X4342Y3822D01*
X4343Y3822D01*
X4344Y3822D01*
X4345Y3822D01*
X4346Y3822D01*
X4347Y3822D01*
X4348Y3822D01*
X4349Y3822D01*
X4350Y3822D01*
X4351Y3822D01*
X4352Y3822D01*
X4353Y3822D01*
X4354Y3822D01*
X4355Y3822D01*
X4356Y3822D01*
X4357Y3822D01*
X4358Y3822D01*
X4359Y3822D01*
X4360Y3822D01*
X4361Y3822D01*
X4362Y3822D01*
X4363Y3822D01*
X4364Y3822D01*
X4365Y3822D01*
X4366Y3822D01*
X4367Y3822D01*
X4368Y3822D01*
X4369Y3822D01*
X4370Y3822D01*
X4371Y3822D01*
X4372Y3822D01*
X4373Y3822D01*
X4374Y3822D01*
X4375Y3822D01*
X4376Y3822D01*
X4377Y3822D01*
X4378Y3822D01*
X4379Y3822D01*
X4380Y3822D01*
X4381Y3822D01*
X4382Y3822D01*
X4383Y3822D01*
X4384Y3822D01*
X4385Y3822D01*
X4386Y3822D01*
X4387Y3822D01*
X4388Y3822D01*
X4389Y3822D01*
X4390Y3822D01*
X4391Y3822D01*
X4392Y3822D01*
X4393Y3822D01*
X4394Y3822D01*
X4395Y3822D01*
X4396Y3822D01*
X4397Y3822D01*
X4398Y3822D01*
X4399Y3822D01*
X4400Y3822D01*
X4401Y3822D01*
X4402Y3822D01*
X4403Y3822D01*
X4404Y3822D01*
X4405Y3822D01*
X4406Y3822D01*
X4407Y3822D01*
X4408Y3822D01*
X4409Y3822D01*
X4410Y3822D01*
X4411Y3822D01*
X4412Y3822D01*
X4413Y3822D01*
X4414Y3822D01*
X4415Y3822D01*
X4416Y3822D01*
X4417Y3822D01*
X4418Y3822D01*
X4419Y3822D01*
X4420Y3822D01*
X4421Y3822D01*
X4422Y3822D01*
X4423Y3822D01*
X4424Y3822D01*
X4425Y3822D01*
X4426Y3822D01*
X4427Y3822D01*
X4428Y3822D01*
X4429Y3822D01*
X4430Y3822D01*
X4431Y3822D01*
X4432Y3822D01*
X4433Y3822D01*
X4434Y3822D01*
X4435Y3822D01*
X4436Y3822D01*
X4437Y3822D01*
X4438Y3822D01*
X4439Y3822D01*
X4440Y3822D01*
X4441Y3822D01*
X4442Y3822D01*
X4443Y3822D01*
X4444Y3822D01*
X4445Y3822D01*
X4446Y3822D01*
X4447Y3822D01*
X4448Y3822D01*
X4449Y3822D01*
X4450Y3822D01*
X4451Y3822D01*
X4452Y3822D01*
X4453Y3822D01*
X4454Y3822D01*
X4455Y3822D01*
X4456Y3822D01*
X4457Y3822D01*
X4458Y3822D01*
X4459Y3822D01*
X4460Y3822D01*
X4461Y3822D01*
X4462Y3822D01*
X4463Y3822D01*
X4464Y3822D01*
X4465Y3822D01*
X4466Y3822D01*
X4467Y3822D01*
X4468Y3822D01*
X4469Y3822D01*
X4470Y3822D01*
X4471Y3822D01*
X4472Y3822D01*
X4473Y3822D01*
X4474Y3822D01*
X4475Y3822D01*
X4476Y3822D01*
X4477Y3822D01*
X4478Y3822D01*
X4479Y3822D01*
X4480Y3822D01*
X4481Y3822D01*
X4482Y3822D01*
X4483Y3822D01*
X4484Y3822D01*
X4485Y3822D01*
X4486Y3822D01*
X4487Y3822D01*
X4488Y3822D01*
X4489Y3822D01*
X4490Y3822D01*
X4491Y3822D01*
X4492Y3822D01*
X4493Y3822D01*
X4494Y3822D01*
X4495Y3822D01*
X4496Y3822D01*
X4497Y3822D01*
X4498Y3822D01*
X4499Y3822D01*
X4500Y3822D01*
X4501Y3822D01*
X4502Y3822D01*
X4503Y3822D01*
X4504Y3822D01*
X4505Y3822D01*
X4506Y3822D01*
X4507Y3822D01*
X4508Y3822D01*
X4509Y3822D01*
X4510Y3822D01*
X4511Y3822D01*
X4512Y3822D01*
X4513Y3822D01*
X4514Y3822D01*
X4515Y3822D01*
X4516Y3822D01*
X4517Y3822D01*
X4518Y3822D01*
X4519Y3822D01*
X4520Y3822D01*
X4521Y3822D01*
X4522Y3822D01*
X4523Y3822D01*
X4524Y3822D01*
X4525Y3822D01*
X4526Y3822D01*
X4527Y3822D01*
X4528Y3822D01*
X4529Y3822D01*
X4530Y3822D01*
X4531Y3822D01*
X4532Y3822D01*
X4533Y3822D01*
X4534Y3822D01*
X4535Y3822D01*
X4536Y3822D01*
X4537Y3822D01*
X4538Y3822D01*
X4539Y3822D01*
X4540Y3822D01*
X4541Y3822D01*
X4542Y3822D01*
X4543Y3822D01*
X4544Y3822D01*
X4545Y3822D01*
X4546Y3822D01*
X4547Y3822D01*
X4548Y3822D01*
X4549Y3822D01*
X4550Y3822D01*
X4551Y3822D01*
X4552Y3822D01*
X4553Y3822D01*
X4554Y3822D01*
X4555Y3822D01*
X4556Y3822D01*
X4557Y3822D01*
X4558Y3822D01*
X4559Y3822D01*
X4560Y3822D01*
X4561Y3822D01*
X4562Y3822D01*
X4563Y3822D01*
X4564Y3822D01*
X4565Y3822D01*
X4566Y3822D01*
X4567Y3822D01*
X4568Y3822D01*
X4569Y3822D01*
X4570Y3822D01*
X4571Y3822D01*
X4572Y3822D01*
X4573Y3822D01*
X4574Y3822D01*
X4575Y3822D01*
X4576Y3822D01*
X4577Y3822D01*
X4578Y3822D01*
X4579Y3822D01*
X4580Y3822D01*
X4581Y3822D01*
X4582Y3822D01*
X4583Y3822D01*
X4584Y3822D01*
X4585Y3822D01*
X4586Y3822D01*
X4587Y3822D01*
X4588Y3822D01*
X4589Y3822D01*
X4590Y3822D01*
X4591Y3822D01*
X4592Y3822D01*
X4593Y3822D01*
X4594Y3822D01*
X4595Y3822D01*
X4596Y3822D01*
X4597Y3822D01*
X4598Y3822D01*
X4599Y3822D01*
X4600Y3822D01*
X4601Y3822D01*
X4602Y3822D01*
X4603Y3822D01*
X4604Y3822D01*
X4605Y3822D01*
X4606Y3822D01*
X4607Y3822D01*
X4608Y3822D01*
X4609Y3822D01*
X4610Y3822D01*
X4611Y3822D01*
X4612Y3822D01*
X4613Y3822D01*
X4614Y3822D01*
X4615Y3822D01*
X4616Y3822D01*
X4617Y3822D01*
X4618Y3822D01*
X4619Y3822D01*
X4620Y3822D01*
X4621Y3822D01*
X4622Y3822D01*
X4623Y3822D01*
X4624Y3822D01*
X4625Y3822D01*
X4626Y3822D01*
X4627Y3822D01*
X4628Y3822D01*
X4629Y3822D01*
X4630Y3822D01*
X4631Y3822D01*
X4632Y3822D01*
X4633Y3822D01*
X4634Y3822D01*
X4635Y3822D01*
X4636Y3822D01*
X4637Y3822D01*
X4638Y3822D01*
X4639Y3822D01*
X4640Y3822D01*
X4641Y3822D01*
X4642Y3822D01*
X4643Y3822D01*
X4644Y3822D01*
X4645Y3822D01*
X4646Y3822D01*
X4647Y3822D01*
X4648Y3822D01*
X4649Y3822D01*
X4650Y3822D01*
X4651Y3822D01*
X4652Y3822D01*
X4653Y3822D01*
X4654Y3822D01*
X4655Y3822D01*
X4656Y3822D01*
X4657Y3822D01*
X4658Y3822D01*
X4659Y3822D01*
X4660Y3822D01*
X4661Y3822D01*
X4662Y3822D01*
X4663Y3822D01*
X4664Y3822D01*
X4665Y3822D01*
X4666Y3822D01*
X4667Y3822D01*
X4668Y3822D01*
X4669Y3822D01*
X4670Y3822D01*
X4671Y3822D01*
X4672Y3822D01*
X4673Y3822D01*
X4674Y3822D01*
X4675Y3822D01*
X4676Y3822D01*
X4677Y3822D01*
X4678Y3822D01*
X4679Y3822D01*
X4680Y3822D01*
X4681Y3822D01*
X4682Y3822D01*
X4683Y3822D01*
X4684Y3822D01*
X4685Y3822D01*
X4686Y3822D01*
X4687Y3822D01*
X4688Y3822D01*
X4689Y3822D01*
X4690Y3822D01*
X4691Y3822D01*
X4692Y3822D01*
X4693Y3822D01*
X4694Y3822D01*
X4695Y3822D01*
X4696Y3822D01*
X4697Y3822D01*
X4698Y3822D01*
X4699Y3822D01*
X4700Y3822D01*
X4701Y3822D01*
X4702Y3822D01*
X4703Y3822D01*
X4704Y3822D01*
X4705Y3822D01*
X4706Y3822D01*
X4707Y3822D01*
X4708Y3822D01*
X4709Y3822D01*
X4710Y3822D01*
X4711Y3822D01*
X4712Y3822D01*
X4713Y3822D01*
X4714Y3822D01*
X4715Y3822D01*
X4716Y3822D01*
X4717Y3822D01*
X4718Y3822D01*
X4719Y3822D01*
X4720Y3822D01*
X4721Y3822D01*
X4722Y3822D01*
X4723Y3822D01*
X4724Y3822D01*
X4725Y3822D01*
X4726Y3822D01*
X4727Y3822D01*
X4728Y3822D01*
X4729Y3822D01*
X4730Y3822D01*
X4731Y3822D01*
X4732Y3822D01*
X4733Y3822D01*
X4734Y3822D01*
X4735Y3822D01*
X4736Y3822D01*
X4737Y3822D01*
X4738Y3822D01*
X4739Y3822D01*
X4740Y3822D01*
X4741Y3822D01*
X4742Y3822D01*
X4743Y3822D01*
X4744Y3822D01*
X4745Y3822D01*
X4746Y3822D01*
X4747Y3822D01*
X4748Y3822D01*
X4749Y3822D01*
X4750Y3822D01*
X4751Y3822D01*
X4752Y3822D01*
X4753Y3822D01*
X4754Y3822D01*
X4755Y3822D01*
X4756Y3822D01*
X4757Y3822D01*
X4758Y3822D01*
X4759Y3822D01*
X4760Y3822D01*
X4761Y3822D01*
X4762Y3822D01*
X4763Y3822D01*
X4764Y3822D01*
X4765Y3822D01*
X4766Y3822D01*
X4767Y3822D01*
X4768Y3822D01*
X4769Y3822D01*
X4770Y3822D01*
X4771Y3822D01*
X4772Y3822D01*
X4773Y3822D01*
X4774Y3822D01*
X4775Y3822D01*
X4776Y3822D01*
X4777Y3822D01*
X4778Y3822D01*
X4779Y3822D01*
X4780Y3822D01*
X4781Y3822D01*
X4782Y3822D01*
X4783Y3822D01*
X4784Y3822D01*
X4785Y3822D01*
X4786Y3822D01*
X4787Y3822D01*
X4788Y3822D01*
X4789Y3822D01*
X4790Y3822D01*
X4791Y3822D01*
X4792Y3822D01*
X4793Y3822D01*
X4794Y3822D01*
X4795Y3822D01*
X4796Y3822D01*
X4797Y3822D01*
X4798Y3822D01*
X4799Y3822D01*
X4800Y3822D01*
X4801Y3822D01*
X4802Y3822D01*
X4803Y3822D01*
X4804Y3822D01*
X4805Y3822D01*
X4806Y3822D01*
X4807Y3822D01*
X4808Y3822D01*
X4809Y3822D01*
X4810Y3822D01*
X4811Y3822D01*
X4812Y3822D01*
X4813Y3822D01*
X4814Y3822D01*
X4815Y3822D01*
X4816Y3822D01*
X4817Y3822D01*
X4818Y3822D01*
X4819Y3822D01*
X4820Y3822D01*
X4821Y3822D01*
X4822Y3822D01*
X4823Y3822D01*
X4824Y3822D01*
X4825Y3822D01*
X4826Y3822D01*
X4827Y3822D01*
X4828Y3822D01*
X4829Y3822D01*
X4830Y3822D01*
X4831Y3822D01*
X4832Y3822D01*
X4833Y3822D01*
X4834Y3822D01*
X4835Y3822D01*
X4836Y3822D01*
X4837Y3822D01*
X4838Y3822D01*
X4839Y3822D01*
X4840Y3822D01*
X4841Y3822D01*
X4842Y3822D01*
X4843Y3822D01*
X4844Y3822D01*
X4845Y3822D01*
X4846Y3822D01*
X4847Y3822D01*
X4848Y3822D01*
X4849Y3822D01*
X4850Y3822D01*
X4851Y3822D01*
X4852Y3822D01*
X4853Y3822D01*
X4854Y3822D01*
X4855Y3822D01*
X4856Y3822D01*
X4857Y3822D01*
X4858Y3822D01*
X4859Y3822D01*
X4860Y3822D01*
X4861Y3822D01*
X4862Y3822D01*
X4863Y3822D01*
X4864Y3822D01*
X4865Y3822D01*
X4866Y3822D01*
X4867Y3822D01*
X4868Y3822D01*
X4869Y3822D01*
X4870Y3822D01*
X4871Y3822D01*
X4872Y3822D01*
X4873Y3822D01*
X4874Y3822D01*
X4875Y3822D01*
X4876Y3822D01*
X4877Y3822D01*
X4878Y3822D01*
X4879Y3822D01*
X4880Y3822D01*
X4881Y3822D01*
X4882Y3822D01*
X4883Y3822D01*
X4884Y3822D01*
X4885Y3822D01*
X4886Y3822D01*
X4887Y3822D01*
X4888Y3822D01*
X4889Y3822D01*
X4890Y3822D01*
X4891Y3822D01*
X4892Y3822D01*
X4893Y3822D01*
X4894Y3822D01*
X4895Y3822D01*
X4896Y3822D01*
X4897Y3822D01*
X4898Y3822D01*
X4899Y3822D01*
X4900Y3822D01*
X4901Y3822D01*
X4902Y3822D01*
X4903Y3822D01*
X4904Y3822D01*
X4905Y3822D01*
X4906Y3822D01*
X4907Y3822D01*
X4908Y3822D01*
X4909Y3822D01*
X4910Y3822D01*
X4911Y3822D01*
X4912Y3822D01*
X4913Y3822D01*
X4914Y3822D01*
X4915Y3822D01*
X4916Y3822D01*
X4917Y3822D01*
X4918Y3822D01*
X4919Y3822D01*
X4920Y3822D01*
X4921Y3822D01*
X4922Y3822D01*
X4923Y3822D01*
X4924Y3822D01*
X4925Y3822D01*
X4926Y3822D01*
X4927Y3822D01*
X4928Y3822D01*
X4929Y3822D01*
X4930Y3822D01*
X4931Y3822D01*
X4932Y3822D01*
X4933Y3822D01*
X4934Y3822D01*
X4935Y3822D01*
X4936Y3822D01*
X4937Y3822D01*
X4938Y3822D01*
X4939Y3822D01*
X4940Y3822D01*
X4941Y3822D01*
X4942Y3822D01*
X4943Y3822D01*
X4944Y3822D01*
X4945Y3822D01*
X4946Y3822D01*
X4947Y3822D01*
X4948Y3822D01*
X4949Y3822D01*
X4950Y3822D01*
X4951Y3822D01*
X4952Y3822D01*
X4953Y3822D01*
X4954Y3822D01*
X4955Y3822D01*
X4956Y3822D01*
X4957Y3822D01*
X4958Y3822D01*
X4959Y3822D01*
X4960Y3822D01*
X4961Y3822D01*
X4962Y3822D01*
X4963Y3822D01*
X4964Y3822D01*
X4965Y3822D01*
X4966Y3822D01*
X4967Y3822D01*
X4968Y3822D01*
X4969Y3822D01*
X4970Y3822D01*
X4971Y3822D01*
X4972Y3822D01*
X4973Y3822D01*
X4974Y3822D01*
X4975Y3822D01*
X4976Y3822D01*
X4977Y3822D01*
X4978Y3822D01*
X4979Y3822D01*
X4980Y3822D01*
X4981Y3822D01*
X4982Y3822D01*
X4983Y3822D01*
X4984Y3822D01*
X4985Y3822D01*
X4986Y3822D01*
X4987Y3822D01*
X4988Y3822D01*
X4989Y3822D01*
X4990Y3822D01*
X4991Y3822D01*
X4992Y3822D01*
X4993Y3822D01*
X4994Y3822D01*
X4995Y3822D01*
X4996Y3822D01*
X4997Y3822D01*
X4998Y3822D01*
X4999Y3822D01*
X5000Y3822D01*
X5001Y3822D01*
X5002Y3822D01*
X5003Y3822D01*
X5004Y3822D01*
X5005Y3822D01*
X5006Y3822D01*
X5007Y3822D01*
X5008Y3822D01*
X5009Y3822D01*
X5010Y3822D01*
X5011Y3822D01*
X5012Y3822D01*
X5013Y3822D01*
X5014Y3822D01*
X5015Y3822D01*
X5016Y3822D01*
X5017Y3822D01*
X5018Y3822D01*
X5019Y3822D01*
X5020Y3822D01*
X5021Y3822D01*
X5022Y3822D01*
X5023Y3822D01*
X5024Y3822D01*
X5025Y3822D01*
X5026Y3822D01*
X5027Y3822D01*
X5028Y3822D01*
X5029Y3822D01*
X5030Y3822D01*
X5031Y3822D01*
X5032Y3822D01*
X5033Y3822D01*
X5034Y3822D01*
X5035Y3822D01*
X5036Y3822D01*
X5037Y3822D01*
X5038Y3822D01*
X5039Y3822D01*
X5040Y3822D01*
X5041Y3822D01*
X5042Y3822D01*
X5043Y3822D01*
X5044Y3822D01*
X5045Y3822D01*
X5046Y3822D01*
X5047Y3822D01*
X5048Y3822D01*
X5049Y3822D01*
X5050Y3822D01*
X5051Y3822D01*
X5052Y3822D01*
X5053Y3822D01*
X5054Y3822D01*
X5055Y3822D01*
X5056Y3822D01*
X5057Y3822D01*
X5058Y3822D01*
X5059Y3822D01*
X5060Y3822D01*
X5061Y3822D01*
X5062Y3822D01*
X5063Y3822D01*
X5064Y3822D01*
X5065Y3822D01*
X5066Y3822D01*
X5067Y3822D01*
X5068Y3822D01*
X5069Y3822D01*
X5070Y3822D01*
X5071Y3822D01*
X5072Y3822D01*
X5073Y3822D01*
X5074Y3822D01*
X5075Y3822D01*
X5076Y3822D01*
X5077Y3822D01*
X5078Y3822D01*
X5079Y3822D01*
X5080Y3822D01*
X5081Y3822D01*
X5082Y3822D01*
X5083Y3822D01*
X5084Y3822D01*
X5085Y3822D01*
X5086Y3822D01*
X5087Y3822D01*
X5088Y3822D01*
X5089Y3822D01*
X5090Y3822D01*
X5091Y3822D01*
X5092Y3822D01*
X5093Y3822D01*
X5094Y3822D01*
X5095Y3822D01*
X5096Y3822D01*
X5097Y3822D01*
X5098Y3822D01*
X5099Y3822D01*
X5100Y3822D01*
X5101Y3822D01*
X5102Y3822D01*
X5103Y3822D01*
X5104Y3822D01*
X5105Y3822D01*
X5106Y3822D01*
X5107Y3822D01*
X5108Y3822D01*
X5109Y3822D01*
X5110Y3822D01*
X5111Y3822D01*
X5112Y3822D01*
X5113Y3822D01*
X5114Y3822D01*
X5115Y3822D01*
X5116Y3822D01*
X5117Y3822D01*
X5118Y3822D01*
X5119Y3822D01*
X5120Y3822D01*
X5121Y3822D01*
X5122Y3822D01*
X5123Y3822D01*
X5124Y3822D01*
X5125Y3822D01*
X5126Y3822D01*
X5127Y3822D01*
X5128Y3822D01*
X5129Y3822D01*
X5130Y3822D01*
X5131Y3822D01*
X5132Y3822D01*
X5133Y3822D01*
X5134Y3822D01*
X5135Y3822D01*
X5136Y3822D01*
X5137Y3822D01*
X5138Y3822D01*
X5139Y3822D01*
X5140Y3822D01*
X5141Y3822D01*
X5142Y3822D01*
X5143Y3822D01*
X5144Y3822D01*
X5145Y3822D01*
X5146Y3822D01*
X5147Y3822D01*
X5148Y3822D01*
X5149Y3822D01*
X5150Y3822D01*
X5151Y3822D01*
X5152Y3822D01*
X5153Y3822D01*
X5154Y3822D01*
X5155Y3822D01*
X5156Y3822D01*
X5157Y3822D01*
X5158Y3822D01*
X5159Y3822D01*
X5160Y3822D01*
X5161Y3822D01*
X5162Y3822D01*
X5163Y3822D01*
X5164Y3822D01*
X5165Y3822D01*
X5166Y3822D01*
X5167Y3822D01*
X5168Y3822D01*
X5169Y3822D01*
X5170Y3822D01*
X5171Y3822D01*
X5172Y3822D01*
X5173Y3822D01*
X5174Y3822D01*
X5175Y3822D01*
X5176Y3822D01*
X5177Y3822D01*
X5178Y3822D01*
X5179Y3822D01*
X5180Y3822D01*
X5181Y3822D01*
X5182Y3822D01*
X5183Y3822D01*
X5184Y3822D01*
X5185Y3822D01*
X5186Y3822D01*
X5187Y3822D01*
X5188Y3822D01*
X5189Y3822D01*
X5190Y3822D01*
X5191Y3822D01*
X5192Y3822D01*
X5193Y3822D01*
X5194Y3822D01*
X5195Y3822D01*
X5196Y3822D01*
X5197Y3822D01*
X5198Y3822D01*
X5199Y3822D01*
X5200Y3822D01*
X5201Y3822D01*
X5202Y3822D01*
X5203Y3822D01*
X5204Y3822D01*
X5205Y3822D01*
X5206Y3822D01*
X5207Y3822D01*
X5208Y3822D01*
X5209Y3822D01*
X5210Y3822D01*
X5211Y3822D01*
X5212Y3822D01*
X5213Y3822D01*
X5214Y3822D01*
X5215Y3822D01*
X5216Y3822D01*
X5217Y3822D01*
X5218Y3822D01*
X5219Y3822D01*
X5220Y3822D01*
X5221Y3822D01*
X5222Y3822D01*
X5223Y3822D01*
X5224Y3822D01*
X5225Y3822D01*
X5226Y3822D01*
X5227Y3822D01*
X5228Y3822D01*
X5229Y3822D01*
X5230Y3822D01*
X5231Y3822D01*
X5232Y3822D01*
X5233Y3822D01*
X5234Y3822D01*
X5235Y3822D01*
X5236Y3822D01*
X5237Y3822D01*
X5238Y3822D01*
X5239Y3822D01*
X5240Y3822D01*
X5241Y3822D01*
X5242Y3822D01*
X5243Y3822D01*
X5244Y3822D01*
X5245Y3822D01*
X5246Y3822D01*
X5247Y3822D01*
X5248Y3822D01*
X5249Y3822D01*
X5250Y3822D01*
X5251Y3822D01*
X5252Y3822D01*
X5253Y3822D01*
X5254Y3822D01*
X5255Y3822D01*
X5256Y3822D01*
X5257Y3822D01*
X5258Y3822D01*
X5259Y3822D01*
X5260Y3822D01*
X5261Y3822D01*
X5262Y3822D01*
X5263Y3822D01*
X5264Y3822D01*
X5265Y3822D01*
X5266Y3822D01*
X5267Y3822D01*
X5268Y3822D01*
X5269Y3822D01*
X5270Y3822D01*
X5271Y3822D01*
X5272Y3822D01*
X5273Y3822D01*
X5274Y3822D01*
X5275Y3822D01*
X5276Y3822D01*
X5277Y3822D01*
X5278Y3822D01*
X5279Y3822D01*
X5280Y3822D01*
X5281Y3822D01*
X5282Y3822D01*
X5283Y3822D01*
X5284Y3822D01*
X5285Y3822D01*
X5286Y3822D01*
X5287Y3822D01*
X5288Y3822D01*
X5289Y3822D01*
X5290Y3822D01*
X5291Y3822D01*
X5292Y3822D01*
X5293Y3822D01*
X5294Y3822D01*
X5295Y3822D01*
X5296Y3822D01*
X5297Y3822D01*
X5298Y3822D01*
X5299Y3822D01*
X5300Y3822D01*
X5301Y3822D01*
X5302Y3822D01*
X5303Y3822D01*
X5304Y3822D01*
X5305Y3822D01*
X5306Y3822D01*
X5307Y3822D01*
X5308Y3822D01*
X5309Y3822D01*
X5310Y3822D01*
X5311Y3822D01*
X5312Y3822D01*
X5313Y3822D01*
X5314Y3822D01*
X5315Y3822D01*
X5316Y3822D01*
X5317Y3822D01*
X5318Y3822D01*
X5319Y3822D01*
X5320Y3822D01*
X5321Y3822D01*
X5322Y3822D01*
X5323Y3822D01*
X5324Y3822D01*
X5325Y3822D01*
X5326Y3822D01*
X5327Y3822D01*
X5328Y3821D01*
X5329Y3821D01*
X5330Y3821D01*
X5331Y3821D01*
X5332Y3821D01*
X5333Y3821D01*
X5334Y3821D01*
X5335Y3821D01*
X5336Y3821D01*
X5337Y3821D01*
X5338Y3821D01*
X5339Y3821D01*
X5340Y3821D01*
X5341Y3821D01*
X5342Y3820D01*
X5343Y3820D01*
X5344Y3820D01*
X5345Y3820D01*
X5346Y3820D01*
X5347Y3820D01*
X5348Y3820D01*
X5349Y3820D01*
X5350Y3820D01*
X5351Y3819D01*
X5352Y3819D01*
X5353Y3819D01*
X5354Y3819D01*
X5355Y3819D01*
X5356Y3819D01*
X5357Y3819D01*
X5358Y3819D01*
X5359Y3818D01*
X5360Y3818D01*
X5361Y3818D01*
X5362Y3818D01*
X5363Y3818D01*
X5364Y3818D01*
X5365Y3818D01*
X5366Y3817D01*
X5367Y3817D01*
X5368Y3817D01*
X5369Y3817D01*
X5370Y3817D01*
X5371Y3817D01*
X5372Y3816D01*
X5373Y3816D01*
X5374Y3816D01*
X5375Y3816D01*
X5376Y3816D01*
X5377Y3815D01*
X5378Y3815D01*
X5379Y3815D01*
X5380Y3815D01*
X5381Y3815D01*
X5382Y3814D01*
X5383Y3814D01*
X5384Y3814D01*
X5385Y3814D01*
X5386Y3814D01*
X5387Y3813D01*
X5388Y3813D01*
X5389Y3813D01*
X5390Y3813D01*
X5391Y3813D01*
X5392Y3812D01*
X5393Y3812D01*
X5394Y3812D01*
X5395Y3812D01*
X5396Y3811D01*
X5397Y3811D01*
X5398Y3811D01*
X5399Y3811D01*
X5400Y3810D01*
X5401Y3810D01*
X5402Y3810D01*
X5403Y3809D01*
X5404Y3809D01*
X5405Y3809D01*
X5406Y3809D01*
X5407Y3808D01*
X5408Y3808D01*
X5409Y3808D01*
X5410Y3808D01*
X5411Y3807D01*
X5412Y3807D01*
X5413Y3807D01*
X5414Y3806D01*
X5415Y3806D01*
X5416Y3806D01*
X5417Y3805D01*
X5418Y3805D01*
X5419Y3805D01*
X5420Y3804D01*
X5421Y3804D01*
X5422Y3804D01*
X5423Y3803D01*
X5424Y3803D01*
X5425Y3803D01*
X5426Y3802D01*
X5427Y3802D01*
X5428Y3802D01*
X5429Y3801D01*
X5430Y3801D01*
X5431Y3801D01*
X5432Y3800D01*
X5433Y3800D01*
X5434Y3800D01*
X5435Y3799D01*
X5436Y3799D01*
X5437Y3798D01*
X5438Y3798D01*
X5439Y3798D01*
X5440Y3797D01*
X5441Y3797D01*
X5442Y3796D01*
X5443Y3796D01*
X5444Y3796D01*
X5445Y3795D01*
X5446Y3795D01*
X5447Y3794D01*
X5448Y3794D01*
X5449Y3794D01*
X5450Y3793D01*
X5451Y3793D01*
X5452Y3792D01*
X5453Y3792D01*
X5454Y3792D01*
X5455Y3791D01*
X5456Y3791D01*
X5457Y3790D01*
X5458Y3790D01*
X5459Y3789D01*
X5460Y3789D01*
X5461Y3788D01*
X5462Y3788D01*
X5463Y3787D01*
X5464Y3787D01*
X5465Y3786D01*
X5466Y3786D01*
X5467Y3785D01*
X5468Y3785D01*
X5469Y3785D01*
X5470Y3784D01*
X5471Y3784D01*
X5472Y3783D01*
X5473Y3782D01*
X5474Y3782D01*
X5475Y3781D01*
X5476Y3781D01*
X5477Y3780D01*
X5478Y3780D01*
X5479Y3779D01*
X5480Y3779D01*
X5481Y3778D01*
X5482Y3778D01*
X5483Y3777D01*
X5484Y3777D01*
X5485Y3776D01*
X5486Y3776D01*
X5487Y3775D01*
X5488Y3774D01*
X5489Y3774D01*
X5490Y3773D01*
X5491Y3773D01*
X5492Y3772D01*
X5493Y3771D01*
X5494Y3771D01*
X5495Y3770D01*
X5496Y3770D01*
X5497Y3769D01*
X5498Y3768D01*
X5499Y3768D01*
X5500Y3767D01*
X5501Y3767D01*
X5502Y3766D01*
X5503Y3765D01*
X5504Y3765D01*
X5505Y3764D01*
X5506Y3763D01*
X5507Y3763D01*
X5508Y3762D01*
X5509Y3761D01*
X5510Y3761D01*
X5511Y3760D01*
X5512Y3760D01*
X5513Y3759D01*
X5514Y3758D01*
X5515Y3758D01*
X5516Y3757D01*
X5517Y3756D01*
X5518Y3755D01*
X5519Y3755D01*
X5520Y3754D01*
X5521Y3753D01*
X5522Y3753D01*
X5523Y3752D01*
X5524Y3751D01*
X5525Y3750D01*
X5526Y3750D01*
X5527Y3749D01*
X5528Y3748D01*
X5529Y3747D01*
X5530Y3747D01*
X5531Y3746D01*
X5532Y3745D01*
X5533Y3744D01*
X5534Y3744D01*
X5535Y3743D01*
X5536Y3742D01*
X5537Y3741D01*
X5538Y3740D01*
X5539Y3739D01*
X5540Y3739D01*
X5541Y3738D01*
X5542Y3737D01*
X5543Y3736D01*
X5544Y3735D01*
X5545Y3735D01*
X5546Y3734D01*
X5547Y3733D01*
X5548Y3732D01*
X5549Y3731D01*
X5550Y3730D01*
X5551Y3729D01*
X5552Y3728D01*
X5553Y3728D01*
X5554Y3727D01*
X5555Y3726D01*
X5556Y3725D01*
X5557Y3724D01*
X5558Y3723D01*
X5559Y3722D01*
X5560Y3721D01*
X5561Y3720D01*
X5562Y3719D01*
X5563Y3718D01*
X5564Y3717D01*
X5565Y3716D01*
X5566Y3715D01*
X5567Y3714D01*
X5568Y3713D01*
X5569Y3712D01*
X5570Y3711D01*
X5571Y3710D01*
X5572Y3709D01*
X5573Y3708D01*
X5574Y3707D01*
X5575Y3706D01*
X5576Y3705D01*
X5577Y3704D01*
X5578Y3703D01*
X5579Y3702D01*
X5580Y3701D01*
X5581Y3700D01*
X5582Y3699D01*
X5582Y3698D01*
X5583Y3697D01*
X5584Y3696D01*
X5585Y3695D01*
X5586Y3694D01*
X5587Y3693D01*
X5588Y3692D01*
X5588Y3691D01*
X5589Y3690D01*
X5590Y3689D01*
X5591Y3688D01*
X5592Y3687D01*
X5593Y3686D01*
X5594Y3685D01*
X5594Y3684D01*
X5595Y3683D01*
X5596Y3682D01*
X5597Y3681D01*
X5598Y3680D01*
X5598Y3679D01*
X5599Y3678D01*
X5600Y3677D01*
X5601Y3676D01*
X5601Y3675D01*
X5602Y3674D01*
X5603Y3673D01*
X5604Y3672D01*
X5604Y3671D01*
X5605Y3670D01*
X5606Y3669D01*
X5607Y3668D01*
X5607Y3667D01*
X5608Y3666D01*
X5609Y3665D01*
X5609Y3664D01*
X5610Y3663D01*
X5611Y3662D01*
X5611Y3661D01*
X5612Y3660D01*
X5613Y3659D01*
X5614Y3658D01*
X5614Y3657D01*
X5615Y3656D01*
X5616Y3655D01*
X5616Y3654D01*
X5617Y3653D01*
X5618Y3652D01*
X5618Y3651D01*
X5619Y3650D01*
X5619Y3649D01*
X5620Y3648D01*
X5621Y3647D01*
X5621Y3646D01*
X5622Y3645D01*
X5623Y3644D01*
X5623Y3643D01*
X5624Y3642D01*
X5624Y3641D01*
X5625Y3640D01*
X5626Y3639D01*
X5626Y3638D01*
X5627Y3637D01*
X5627Y3636D01*
X5628Y3635D01*
X5629Y3634D01*
X5629Y3633D01*
X5630Y3632D01*
X5630Y3631D01*
X5631Y3630D01*
X5631Y3629D01*
X5632Y3628D01*
X5632Y3627D01*
X5633Y3626D01*
X5634Y3625D01*
X5634Y3624D01*
X5635Y3623D01*
X5635Y3622D01*
X5636Y3621D01*
X5636Y3620D01*
X5637Y3619D01*
X5637Y3618D01*
X5638Y3617D01*
X5638Y3616D01*
X5639Y3615D01*
X5639Y3614D01*
X5640Y3613D01*
X5640Y3612D01*
X5641Y3611D01*
X5641Y3610D01*
X5642Y3609D01*
X5642Y3608D01*
X5643Y3607D01*
X5643Y3606D01*
X5644Y3605D01*
X5644Y3604D01*
X5645Y3603D01*
X5645Y3602D01*
X5646Y3601D01*
X5646Y3599D01*
X5647Y3598D01*
X5647Y3597D01*
X5648Y3596D01*
X5648Y3595D01*
X5649Y3594D01*
X5649Y3592D01*
X5650Y3591D01*
X5650Y3590D01*
X5651Y3589D01*
X5651Y3588D01*
X5652Y3587D01*
X5652Y3585D01*
X5653Y3584D01*
X5653Y3583D01*
X5654Y3582D01*
X5654Y3580D01*
X5655Y3579D01*
X5655Y3577D01*
X5656Y3576D01*
X5656Y3575D01*
X5657Y3574D01*
X5657Y3572D01*
X5658Y3571D01*
X5658Y3569D01*
X5659Y3568D01*
X5659Y3566D01*
X5660Y3565D01*
X5660Y3563D01*
X5661Y3562D01*
X5661Y3560D01*
X5662Y3559D01*
X5662Y3557D01*
X5663Y3556D01*
X5663Y3554D01*
X5664Y3553D01*
X5664Y3551D01*
X5665Y3550D01*
X5665Y3547D01*
X5666Y3546D01*
X5666Y3544D01*
X5667Y3543D01*
X5667Y3540D01*
X5668Y3539D01*
X5668Y3536D01*
X5669Y3535D01*
X5669Y3533D01*
X5670Y3532D01*
X5670Y3528D01*
X5671Y3527D01*
X5671Y3524D01*
X5672Y3523D01*
X5672Y3519D01*
X5673Y3518D01*
X5673Y3515D01*
X5674Y3514D01*
X5674Y3509D01*
X5675Y3508D01*
X5675Y3503D01*
X5676Y3502D01*
X5676Y3497D01*
X5677Y3496D01*
X5677Y3490D01*
X5678Y3489D01*
X5678Y3482D01*
X5679Y3481D01*
X5679Y3472D01*
X5680Y3471D01*
X5680Y3457D01*
X5681Y3456D01*
X5681Y367D01*
X5680Y366D01*
X5680Y352D01*
X5679Y351D01*
X5679Y342D01*
X5678Y341D01*
X5678Y334D01*
X5677Y333D01*
X5677Y327D01*
X5676Y326D01*
X5676Y321D01*
X5675Y320D01*
X5675Y315D01*
X5674Y314D01*
X5674Y309D01*
X5673Y308D01*
X5673Y305D01*
X5672Y304D01*
X5672Y300D01*
X5671Y299D01*
X5671Y296D01*
X5670Y295D01*
X5670Y291D01*
X5669Y290D01*
X5669Y288D01*
X5668Y287D01*
X5668Y284D01*
X5667Y283D01*
X5667Y280D01*
X5666Y279D01*
X5666Y277D01*
X5665Y276D01*
X5665Y273D01*
X5664Y272D01*
X5664Y270D01*
X5663Y269D01*
X5663Y267D01*
X5662Y266D01*
X5662Y264D01*
X5661Y263D01*
X5661Y261D01*
X5660Y260D01*
X5660Y258D01*
X5659Y257D01*
X5659Y255D01*
X5658Y254D01*
X5658Y252D01*
X5657Y251D01*
X5657Y249D01*
X5656Y248D01*
X5656Y247D01*
X5655Y246D01*
X5655Y244D01*
X5654Y243D01*
X5654Y241D01*
X5653Y240D01*
X5653Y239D01*
X5652Y238D01*
X5652Y236D01*
X5651Y235D01*
X5651Y234D01*
X5650Y233D01*
X5650Y232D01*
X5649Y231D01*
X5649Y229D01*
X5648Y228D01*
X5648Y227D01*
X5647Y226D01*
X5647Y225D01*
X5646Y224D01*
X5646Y222D01*
X5645Y221D01*
X5645Y220D01*
X5644Y219D01*
X5644Y218D01*
X5643Y217D01*
X5643Y216D01*
X5642Y215D01*
X5642Y214D01*
X5641Y213D01*
X5641Y212D01*
X5640Y211D01*
X5640Y210D01*
X5639Y209D01*
X5639Y208D01*
X5638Y207D01*
X5638Y206D01*
X5637Y205D01*
X5637Y204D01*
X5636Y203D01*
X5636Y202D01*
X5635Y201D01*
X5635Y200D01*
X5634Y199D01*
X5634Y198D01*
X5633Y197D01*
X5632Y196D01*
X5632Y195D01*
X5631Y194D01*
X5631Y193D01*
X5630Y192D01*
X5630Y191D01*
X5629Y190D01*
X5629Y189D01*
X5628Y188D01*
X5627Y187D01*
X5627Y186D01*
X5626Y185D01*
X5626Y184D01*
X5625Y183D01*
X5624Y182D01*
X5624Y181D01*
X5623Y180D01*
X5623Y179D01*
X5622Y178D01*
X5621Y177D01*
X5621Y176D01*
X5620Y175D01*
X5619Y174D01*
X5619Y173D01*
X5618Y172D01*
X5618Y171D01*
X5617Y170D01*
X5616Y169D01*
X5616Y168D01*
X5615Y167D01*
X5614Y166D01*
X5614Y165D01*
X5613Y164D01*
X5612Y163D01*
X5611Y162D01*
X5611Y161D01*
X5610Y160D01*
X5609Y159D01*
X5609Y158D01*
X5608Y157D01*
X5607Y156D01*
X5607Y155D01*
X5606Y154D01*
X5605Y153D01*
X5604Y152D01*
X5604Y151D01*
X5603Y150D01*
X5602Y149D01*
X5601Y148D01*
X5601Y147D01*
X5600Y146D01*
X5599Y145D01*
X5598Y144D01*
X5598Y143D01*
X5597Y142D01*
X5596Y141D01*
X5595Y140D01*
X5594Y139D01*
X5594Y138D01*
X5593Y137D01*
X5592Y136D01*
X5591Y135D01*
X5590Y134D01*
X5589Y133D01*
X5588Y132D01*
X5588Y131D01*
X5587Y130D01*
X5586Y129D01*
X5585Y128D01*
X5584Y127D01*
X5583Y126D01*
X5582Y125D01*
X5582Y124D01*
X5581Y123D01*
X5580Y122D01*
X5579Y121D01*
X5578Y120D01*
X5577Y119D01*
X5576Y118D01*
X5575Y117D01*
X5574Y116D01*
X5573Y115D01*
X5572Y114D01*
X5571Y113D01*
X5570Y112D01*
X5569Y111D01*
X5568Y110D01*
X5567Y109D01*
X5566Y108D01*
X5565Y107D01*
X5564Y106D01*
X5563Y105D01*
X5562Y104D01*
X5561Y103D01*
X5560Y102D01*
X5559Y101D01*
X5558Y100D01*
X5557Y99D01*
X5556Y98D01*
X5555Y97D01*
X5554Y96D01*
X5553Y95D01*
X5552Y95D01*
X5551Y94D01*
X5550Y93D01*
X5549Y92D01*
X5548Y91D01*
X5547Y90D01*
X5546Y89D01*
X5545Y88D01*
X5544Y88D01*
X5543Y87D01*
X5542Y86D01*
X5541Y85D01*
X5540Y84D01*
X5539Y84D01*
X5538Y83D01*
X5537Y82D01*
X5536Y81D01*
X5535Y80D01*
X5534Y79D01*
X5533Y79D01*
X5532Y78D01*
X5531Y77D01*
X5530Y76D01*
X5529Y76D01*
X5528Y75D01*
X5527Y74D01*
X5526Y73D01*
X5525Y73D01*
X5524Y72D01*
X5523Y71D01*
X5522Y70D01*
X5521Y70D01*
X5520Y69D01*
X5519Y68D01*
X5518Y68D01*
X5517Y67D01*
X5516Y66D01*
X5515Y65D01*
X5514Y65D01*
X5513Y64D01*
X5512Y63D01*
X5511Y63D01*
X5510Y62D01*
X5509Y62D01*
X5508Y61D01*
X5507Y60D01*
X5506Y60D01*
X5505Y59D01*
X5504Y58D01*
X5503Y58D01*
X5502Y57D01*
X5501Y56D01*
X5500Y56D01*
X5499Y55D01*
X5498Y55D01*
X5497Y54D01*
X5496Y53D01*
X5495Y53D01*
X5494Y52D01*
X5493Y52D01*
X5492Y51D01*
X5491Y50D01*
X5490Y50D01*
X5489Y49D01*
X5488Y49D01*
X5487Y48D01*
X5486Y47D01*
X5485Y47D01*
X5484Y46D01*
X5483Y46D01*
X5482Y45D01*
X5481Y45D01*
X5480Y44D01*
X5479Y44D01*
X5478Y43D01*
X5477Y43D01*
X5476Y42D01*
X5475Y42D01*
X5474Y41D01*
X5473Y41D01*
X5472Y40D01*
X5471Y39D01*
X5470Y39D01*
X5469Y38D01*
X5468Y38D01*
X5467Y38D01*
X5466Y37D01*
X5465Y37D01*
X5464Y36D01*
X5463Y36D01*
X5462Y35D01*
X5461Y35D01*
X5460Y34D01*
X5459Y34D01*
X5458Y33D01*
X5457Y33D01*
X5456Y32D01*
X5455Y32D01*
X5454Y31D01*
X5453Y31D01*
X5452Y31D01*
X5451Y30D01*
X5450Y30D01*
X5449Y29D01*
X5448Y29D01*
X5447Y29D01*
X5446Y28D01*
X5445Y28D01*
X5444Y27D01*
X5443Y27D01*
X5442Y27D01*
X5441Y26D01*
X5440Y26D01*
X5439Y25D01*
X5438Y25D01*
X5437Y25D01*
X5436Y24D01*
X5435Y24D01*
X5434Y23D01*
X5433Y23D01*
X5432Y23D01*
X5431Y22D01*
X5430Y22D01*
X5429Y22D01*
X5428Y21D01*
X5427Y21D01*
X5426Y21D01*
X5425Y20D01*
X5424Y20D01*
X5423Y20D01*
X5422Y19D01*
X5421Y19D01*
X5420Y19D01*
X5419Y18D01*
X5418Y18D01*
X5417Y18D01*
X5416Y17D01*
X5415Y17D01*
X5414Y17D01*
X5413Y16D01*
X5412Y16D01*
X5411Y16D01*
X5410Y15D01*
X5409Y15D01*
X5408Y15D01*
X5407Y15D01*
X5406Y14D01*
X5405Y14D01*
X5404Y14D01*
X5403Y14D01*
X5402Y13D01*
X5401Y13D01*
X5400Y13D01*
X5399Y12D01*
X5398Y12D01*
X5397Y12D01*
X5396Y12D01*
X5395Y11D01*
X5394Y11D01*
X5393Y11D01*
X5392Y11D01*
X5391Y11D01*
X5390Y10D01*
X5389Y10D01*
X5388Y10D01*
X5387Y10D01*
X5386Y9D01*
X5385Y9D01*
X5384Y9D01*
X5383Y9D01*
X5382Y9D01*
X5381Y8D01*
X5380Y8D01*
X5379Y8D01*
X5378Y8D01*
X5377Y8D01*
X5376Y7D01*
X5375Y7D01*
X5374Y7D01*
X5373Y7D01*
X5372Y7D01*
X5371Y6D01*
X5370Y6D01*
X5369Y6D01*
X5368Y6D01*
X5367Y6D01*
X5366Y6D01*
X5365Y5D01*
X5364Y5D01*
X5363Y5D01*
X5362Y5D01*
X5361Y5D01*
X5360Y5D01*
X5359Y5D01*
X5358Y4D01*
X5357Y4D01*
X5356Y4D01*
X5355Y4D01*
X5354Y4D01*
X5353Y4D01*
X5352Y4D01*
X5351Y4D01*
X5350Y3D01*
X5349Y3D01*
X5348Y3D01*
X5347Y3D01*
X5346Y3D01*
X5345Y3D01*
X5344Y3D01*
X5343Y3D01*
X5342Y3D01*
X5341Y2D01*
X5340Y2D01*
X5339Y2D01*
X5338Y2D01*
X5337Y2D01*
X5336Y2D01*
X5335Y2D01*
X5334Y2D01*
X5333Y2D01*
X5332Y2D01*
X5331Y2D01*
X5330Y2D01*
X5329Y2D01*
X5328Y2D01*
X5327Y1D01*
X5326Y1D01*
X5325Y1D01*
X5324Y1D01*
X5323Y1D01*
X5322Y1D01*
X5321Y1D01*
X5320Y1D01*
X5319Y1D01*
X5318Y1D01*
X5317Y1D01*
X5316Y1D01*
X5315Y1D01*
X5314Y1D01*
X5313Y1D01*
X5312Y1D01*
X5311Y1D01*
X5310Y1D01*
X5309Y1D01*
X5308Y1D01*
X5307Y1D01*
X5306Y1D01*
X5305Y1D01*
X5304Y1D01*
X5303Y1D01*
X5302Y1D01*
X5301Y1D01*
X5300Y1D01*
X5299Y1D01*
X5298Y1D01*
X5297Y1D01*
X5296Y1D01*
X5295Y1D01*
X5294Y1D01*
X5293Y1D01*
X5292Y1D01*
X5291Y1D01*
X5290Y1D01*
X5289Y1D01*
X5288Y1D01*
X5287Y1D01*
X5286Y1D01*
X5285Y1D01*
X5284Y1D01*
X5283Y1D01*
X5282Y1D01*
X5281Y1D01*
X5280Y1D01*
X5279Y1D01*
X5278Y1D01*
X5277Y1D01*
X5276Y1D01*
X5275Y1D01*
X5274Y1D01*
X5273Y1D01*
X5272Y1D01*
X5271Y1D01*
X5270Y1D01*
X5269Y1D01*
X5268Y1D01*
X5267Y1D01*
X5266Y1D01*
X5265Y1D01*
X5264Y1D01*
X5263Y1D01*
X5262Y1D01*
X5261Y1D01*
X5260Y1D01*
X5259Y1D01*
X5258Y1D01*
X5257Y1D01*
X5256Y1D01*
X5255Y1D01*
X5254Y1D01*
X5253Y1D01*
X5252Y1D01*
X5251Y1D01*
X5250Y1D01*
X5249Y1D01*
X5248Y1D01*
X5247Y1D01*
X5246Y1D01*
X5245Y1D01*
X5244Y1D01*
X5243Y1D01*
X5242Y1D01*
X5241Y1D01*
X5240Y1D01*
X5239Y1D01*
X5238Y1D01*
X5237Y1D01*
X5236Y1D01*
X5235Y1D01*
X5234Y1D01*
X5233Y1D01*
X5232Y1D01*
X5231Y1D01*
X5230Y1D01*
X5229Y1D01*
X5228Y1D01*
X5227Y1D01*
X5226Y1D01*
X5225Y1D01*
X5224Y1D01*
X5223Y1D01*
X5222Y1D01*
X5221Y1D01*
X5220Y1D01*
X5219Y1D01*
X5218Y1D01*
X5217Y1D01*
X5216Y1D01*
X5215Y1D01*
X5214Y1D01*
X5213Y1D01*
X5212Y1D01*
X5211Y1D01*
X5210Y1D01*
X5209Y1D01*
X5208Y1D01*
X5207Y1D01*
X5206Y1D01*
X5205Y1D01*
X5204Y1D01*
X5203Y1D01*
X5202Y1D01*
X5201Y1D01*
X5200Y1D01*
X5199Y1D01*
X5198Y1D01*
X5197Y1D01*
X5196Y1D01*
X5195Y1D01*
X5194Y1D01*
X5193Y1D01*
X5192Y1D01*
X5191Y1D01*
X5190Y1D01*
X5189Y1D01*
X5188Y1D01*
X5187Y1D01*
X5186Y1D01*
X5185Y1D01*
X5184Y1D01*
X5183Y1D01*
X5182Y1D01*
X5181Y1D01*
X5180Y1D01*
X5179Y1D01*
X5178Y1D01*
X5177Y1D01*
X5176Y1D01*
X5175Y1D01*
X5174Y1D01*
X5173Y1D01*
X5172Y1D01*
X5171Y1D01*
X5170Y1D01*
X5169Y1D01*
X5168Y1D01*
X5167Y1D01*
X5166Y1D01*
X5165Y1D01*
X5164Y1D01*
X5163Y1D01*
X5162Y1D01*
X5161Y1D01*
X5160Y1D01*
X5159Y1D01*
X5158Y1D01*
X5157Y1D01*
X5156Y1D01*
X5155Y1D01*
X5154Y1D01*
X5153Y1D01*
X5152Y1D01*
X5151Y1D01*
X5150Y1D01*
X5149Y1D01*
X5148Y1D01*
X5147Y1D01*
X5146Y1D01*
X5145Y1D01*
X5144Y1D01*
X5143Y1D01*
X5142Y1D01*
X5141Y1D01*
X5140Y1D01*
X5139Y1D01*
X5138Y1D01*
X5137Y1D01*
X5136Y1D01*
X5135Y1D01*
X5134Y1D01*
X5133Y1D01*
X5132Y1D01*
X5131Y1D01*
X5130Y1D01*
X5129Y1D01*
X5128Y1D01*
X5127Y1D01*
X5126Y1D01*
X5125Y1D01*
X5124Y1D01*
X5123Y1D01*
X5122Y1D01*
X5121Y1D01*
X5120Y1D01*
X5119Y1D01*
X5118Y1D01*
X5117Y1D01*
X5116Y1D01*
X5115Y1D01*
X5114Y1D01*
X5113Y1D01*
X5112Y1D01*
X5111Y1D01*
X5110Y1D01*
X5109Y1D01*
X5108Y1D01*
X5107Y1D01*
X5106Y1D01*
X5105Y1D01*
X5104Y1D01*
X5103Y1D01*
X5102Y1D01*
X5101Y1D01*
X5100Y1D01*
X5099Y1D01*
X5098Y1D01*
X5097Y1D01*
X5096Y1D01*
X5095Y1D01*
X5094Y1D01*
X5093Y1D01*
X5092Y1D01*
X5091Y1D01*
X5090Y1D01*
X5089Y1D01*
X5088Y1D01*
X5087Y1D01*
X5086Y1D01*
X5085Y1D01*
X5084Y1D01*
X5083Y1D01*
X5082Y1D01*
X5081Y1D01*
X5080Y1D01*
X5079Y1D01*
X5078Y1D01*
X5077Y1D01*
X5076Y1D01*
X5075Y1D01*
X5074Y1D01*
X5073Y1D01*
X5072Y1D01*
X5071Y1D01*
X5070Y1D01*
X5069Y1D01*
X5068Y1D01*
X5067Y1D01*
X5066Y1D01*
X5065Y1D01*
X5064Y1D01*
X5063Y1D01*
X5062Y1D01*
X5061Y1D01*
X5060Y1D01*
X5059Y1D01*
X5058Y1D01*
X5057Y1D01*
X5056Y1D01*
X5055Y1D01*
X5054Y1D01*
X5053Y1D01*
X5052Y1D01*
X5051Y1D01*
X5050Y1D01*
X5049Y1D01*
X5048Y1D01*
X5047Y1D01*
X5046Y1D01*
X5045Y1D01*
X5044Y1D01*
X5043Y1D01*
X5042Y1D01*
X5041Y1D01*
X5040Y1D01*
X5039Y1D01*
X5038Y1D01*
X5037Y1D01*
X5036Y1D01*
X5035Y1D01*
X5034Y1D01*
X5033Y1D01*
X5032Y1D01*
X5031Y1D01*
X5030Y1D01*
X5029Y1D01*
X5028Y1D01*
X5027Y1D01*
X5026Y1D01*
X5025Y1D01*
X5024Y1D01*
X5023Y1D01*
X5022Y1D01*
X5021Y1D01*
X5020Y1D01*
X5019Y1D01*
X5018Y1D01*
X5017Y1D01*
X5016Y1D01*
X5015Y1D01*
X5014Y1D01*
X5013Y1D01*
X5012Y1D01*
X5011Y1D01*
X5010Y1D01*
X5009Y1D01*
X5008Y1D01*
X5007Y1D01*
X5006Y1D01*
X5005Y1D01*
X5004Y1D01*
X5003Y1D01*
X5002Y1D01*
X5001Y1D01*
X5000Y1D01*
X4999Y1D01*
X4998Y1D01*
X4997Y1D01*
X4996Y1D01*
X4995Y1D01*
X4994Y1D01*
X4993Y1D01*
X4992Y1D01*
X4991Y1D01*
X4990Y1D01*
X4989Y1D01*
X4988Y1D01*
X4987Y1D01*
X4986Y1D01*
X4985Y1D01*
X4984Y1D01*
X4983Y1D01*
X4982Y1D01*
X4981Y1D01*
X4980Y1D01*
X4979Y1D01*
X4978Y1D01*
X4977Y1D01*
X4976Y1D01*
X4975Y1D01*
X4974Y1D01*
X4973Y1D01*
X4972Y1D01*
X4971Y1D01*
X4970Y1D01*
X4969Y1D01*
X4968Y1D01*
X4967Y1D01*
X4966Y1D01*
X4965Y1D01*
X4964Y1D01*
X4963Y1D01*
X4962Y1D01*
X4961Y1D01*
X4960Y1D01*
X4959Y1D01*
X4958Y1D01*
X4957Y1D01*
X4956Y1D01*
X4955Y1D01*
X4954Y1D01*
X4953Y1D01*
X4952Y1D01*
X4951Y1D01*
X4950Y1D01*
X4949Y1D01*
X4948Y1D01*
X4947Y1D01*
X4946Y1D01*
X4945Y1D01*
X4944Y1D01*
X4943Y1D01*
X4942Y1D01*
X4941Y1D01*
X4940Y1D01*
X4939Y1D01*
X4938Y1D01*
X4937Y1D01*
X4936Y1D01*
X4935Y1D01*
X4934Y1D01*
X4933Y1D01*
X4932Y1D01*
X4931Y1D01*
X4930Y1D01*
X4929Y1D01*
X4928Y1D01*
X4927Y1D01*
X4926Y1D01*
X4925Y1D01*
X4924Y1D01*
X4923Y1D01*
X4922Y1D01*
X4921Y1D01*
X4920Y1D01*
X4919Y1D01*
X4918Y1D01*
X4917Y1D01*
X4916Y1D01*
X4915Y1D01*
X4914Y1D01*
X4913Y1D01*
X4912Y1D01*
X4911Y1D01*
X4910Y1D01*
X4909Y1D01*
X4908Y1D01*
X4907Y1D01*
X4906Y1D01*
X4905Y1D01*
X4904Y1D01*
X4903Y1D01*
X4902Y1D01*
X4901Y1D01*
X4900Y1D01*
X4899Y1D01*
X4898Y1D01*
X4897Y1D01*
X4896Y1D01*
X4895Y1D01*
X4894Y1D01*
X4893Y1D01*
X4892Y1D01*
X4891Y1D01*
X4890Y1D01*
X4889Y1D01*
X4888Y1D01*
X4887Y1D01*
X4886Y1D01*
X4885Y1D01*
X4884Y1D01*
X4883Y1D01*
X4882Y1D01*
X4881Y1D01*
X4880Y1D01*
X4879Y1D01*
X4878Y1D01*
X4877Y1D01*
X4876Y1D01*
X4875Y1D01*
X4874Y1D01*
X4873Y1D01*
X4872Y1D01*
X4871Y1D01*
X4870Y1D01*
X4869Y1D01*
X4868Y1D01*
X4867Y1D01*
X4866Y1D01*
X4865Y1D01*
X4864Y1D01*
X4863Y1D01*
X4862Y1D01*
X4861Y1D01*
X4860Y1D01*
X4859Y1D01*
X4858Y1D01*
X4857Y1D01*
X4856Y1D01*
X4855Y1D01*
X4854Y1D01*
X4853Y1D01*
X4852Y1D01*
X4851Y1D01*
X4850Y1D01*
X4849Y1D01*
X4848Y1D01*
X4847Y1D01*
X4846Y1D01*
X4845Y1D01*
X4844Y1D01*
X4843Y1D01*
X4842Y1D01*
X4841Y1D01*
X4840Y1D01*
X4839Y1D01*
X4838Y1D01*
X4837Y1D01*
X4836Y1D01*
X4835Y1D01*
X4834Y1D01*
X4833Y1D01*
X4832Y1D01*
X4831Y1D01*
X4830Y1D01*
X4829Y1D01*
X4828Y1D01*
X4827Y1D01*
X4826Y1D01*
X4825Y1D01*
X4824Y1D01*
X4823Y1D01*
X4822Y1D01*
X4821Y1D01*
X4820Y1D01*
X4819Y1D01*
X4818Y1D01*
X4817Y1D01*
X4816Y1D01*
X4815Y1D01*
X4814Y1D01*
X4813Y1D01*
X4812Y1D01*
X4811Y1D01*
X4810Y1D01*
X4809Y1D01*
X4808Y1D01*
X4807Y1D01*
X4806Y1D01*
X4805Y1D01*
X4804Y1D01*
X4803Y1D01*
X4802Y1D01*
X4801Y1D01*
X4800Y1D01*
X4799Y1D01*
X4798Y1D01*
X4797Y1D01*
X4796Y1D01*
X4795Y1D01*
X4794Y1D01*
X4793Y1D01*
X4792Y1D01*
X4791Y1D01*
X4790Y1D01*
X4789Y1D01*
X4788Y1D01*
X4787Y1D01*
X4786Y1D01*
X4785Y1D01*
X4784Y1D01*
X4783Y1D01*
X4782Y1D01*
X4781Y1D01*
X4780Y1D01*
X4779Y1D01*
X4778Y1D01*
X4777Y1D01*
X4776Y1D01*
X4775Y1D01*
X4774Y1D01*
X4773Y1D01*
X4772Y1D01*
X4771Y1D01*
X4770Y1D01*
X4769Y1D01*
X4768Y1D01*
X4767Y1D01*
X4766Y1D01*
X4765Y1D01*
X4764Y1D01*
X4763Y1D01*
X4762Y1D01*
X4761Y1D01*
X4760Y1D01*
X4759Y1D01*
X4758Y1D01*
X4757Y1D01*
X4756Y1D01*
X4755Y1D01*
X4754Y1D01*
X4753Y1D01*
X4752Y1D01*
X4751Y1D01*
X4750Y1D01*
X4749Y1D01*
X4748Y1D01*
X4747Y1D01*
X4746Y1D01*
X4745Y1D01*
X4744Y1D01*
X4743Y1D01*
X4742Y1D01*
X4741Y1D01*
X4740Y1D01*
X4739Y1D01*
X4738Y1D01*
X4737Y1D01*
X4736Y1D01*
X4735Y1D01*
X4734Y1D01*
X4733Y1D01*
X4732Y1D01*
X4731Y1D01*
X4730Y1D01*
X4729Y1D01*
X4728Y1D01*
X4727Y1D01*
X4726Y1D01*
X4725Y1D01*
X4724Y1D01*
X4723Y1D01*
X4722Y1D01*
X4721Y1D01*
X4720Y1D01*
X4719Y1D01*
X4718Y1D01*
X4717Y1D01*
X4716Y1D01*
X4715Y1D01*
X4714Y1D01*
X4713Y1D01*
X4712Y1D01*
X4711Y1D01*
X4710Y1D01*
X4709Y1D01*
X4708Y1D01*
X4707Y1D01*
X4706Y1D01*
X4705Y1D01*
X4704Y1D01*
X4703Y1D01*
X4702Y1D01*
X4701Y1D01*
X4700Y1D01*
X4699Y1D01*
X4698Y1D01*
X4697Y1D01*
X4696Y1D01*
X4695Y1D01*
X4694Y1D01*
X4693Y1D01*
X4692Y1D01*
X4691Y1D01*
X4690Y1D01*
X4689Y1D01*
X4688Y1D01*
X4687Y1D01*
X4686Y1D01*
X4685Y1D01*
X4684Y1D01*
X4683Y1D01*
X4682Y1D01*
X4681Y1D01*
X4680Y1D01*
X4679Y1D01*
X4678Y1D01*
X4677Y1D01*
X4676Y1D01*
X4675Y1D01*
X4674Y1D01*
X4673Y1D01*
X4672Y1D01*
X4671Y1D01*
X4670Y1D01*
X4669Y1D01*
X4668Y1D01*
X4667Y1D01*
X4666Y1D01*
X4665Y1D01*
X4664Y1D01*
X4663Y1D01*
X4662Y1D01*
X4661Y1D01*
X4660Y1D01*
X4659Y1D01*
X4658Y1D01*
X4657Y1D01*
X4656Y1D01*
X4655Y1D01*
X4654Y1D01*
X4653Y1D01*
X4652Y1D01*
X4651Y1D01*
X4650Y1D01*
X4649Y1D01*
X4648Y1D01*
X4647Y1D01*
X4646Y1D01*
X4645Y1D01*
X4644Y1D01*
X4643Y1D01*
X4642Y1D01*
X4641Y1D01*
X4640Y1D01*
X4639Y1D01*
X4638Y1D01*
X4637Y1D01*
X4636Y1D01*
X4635Y1D01*
X4634Y1D01*
X4633Y1D01*
X4632Y1D01*
X4631Y1D01*
X4630Y1D01*
X4629Y1D01*
X4628Y1D01*
X4627Y1D01*
X4626Y1D01*
X4625Y1D01*
X4624Y1D01*
X4623Y1D01*
X4622Y1D01*
X4621Y1D01*
X4620Y1D01*
X4619Y1D01*
X4618Y1D01*
X4617Y1D01*
X4616Y1D01*
X4615Y1D01*
X4614Y1D01*
X4613Y1D01*
X4612Y1D01*
X4611Y1D01*
X4610Y1D01*
X4609Y1D01*
X4608Y1D01*
X4607Y1D01*
X4606Y1D01*
X4605Y1D01*
X4604Y1D01*
X4603Y1D01*
X4602Y1D01*
X4601Y1D01*
X4600Y1D01*
X4599Y1D01*
X4598Y1D01*
X4597Y1D01*
X4596Y1D01*
X4595Y1D01*
X4594Y1D01*
X4593Y1D01*
X4592Y1D01*
X4591Y1D01*
X4590Y1D01*
X4589Y1D01*
X4588Y1D01*
X4587Y1D01*
X4586Y1D01*
X4585Y1D01*
X4584Y1D01*
X4583Y1D01*
X4582Y1D01*
X4581Y1D01*
X4580Y1D01*
X4579Y1D01*
X4578Y1D01*
X4577Y1D01*
X4576Y1D01*
X4575Y1D01*
X4574Y1D01*
X4573Y1D01*
X4572Y1D01*
X4571Y1D01*
X4570Y1D01*
X4569Y1D01*
X4568Y1D01*
X4567Y1D01*
X4566Y1D01*
X4565Y1D01*
X4564Y1D01*
X4563Y1D01*
X4562Y1D01*
X4561Y1D01*
X4560Y1D01*
X4559Y1D01*
X4558Y1D01*
X4557Y1D01*
X4556Y1D01*
X4555Y1D01*
X4554Y1D01*
X4553Y1D01*
X4552Y1D01*
X4551Y1D01*
X4550Y1D01*
X4549Y1D01*
X4548Y1D01*
X4547Y1D01*
X4546Y1D01*
X4545Y1D01*
X4544Y1D01*
X4543Y1D01*
X4542Y1D01*
X4541Y1D01*
X4540Y1D01*
X4539Y1D01*
X4538Y1D01*
X4537Y1D01*
X4536Y1D01*
X4535Y1D01*
X4534Y1D01*
X4533Y1D01*
X4532Y1D01*
X4531Y1D01*
X4530Y1D01*
X4529Y1D01*
X4528Y1D01*
X4527Y1D01*
X4526Y1D01*
X4525Y1D01*
X4524Y1D01*
X4523Y1D01*
X4522Y1D01*
X4521Y1D01*
X4520Y1D01*
X4519Y1D01*
X4518Y1D01*
X4517Y1D01*
X4516Y1D01*
X4515Y1D01*
X4514Y1D01*
X4513Y1D01*
X4512Y1D01*
X4511Y1D01*
X4510Y1D01*
X4509Y1D01*
X4508Y1D01*
X4507Y1D01*
X4506Y1D01*
X4505Y1D01*
X4504Y1D01*
X4503Y1D01*
X4502Y1D01*
X4501Y1D01*
X4500Y1D01*
X4499Y1D01*
X4498Y1D01*
X4497Y1D01*
X4496Y1D01*
X4495Y1D01*
X4494Y1D01*
X4493Y1D01*
X4492Y1D01*
X4491Y1D01*
X4490Y1D01*
X4489Y1D01*
X4488Y1D01*
X4487Y1D01*
X4486Y1D01*
X4485Y1D01*
X4484Y1D01*
X4483Y1D01*
X4482Y1D01*
X4481Y1D01*
X4480Y1D01*
X4479Y1D01*
X4478Y1D01*
X4477Y1D01*
X4476Y1D01*
X4475Y1D01*
X4474Y1D01*
X4473Y1D01*
X4472Y1D01*
X4471Y1D01*
X4470Y1D01*
X4469Y1D01*
X4468Y1D01*
X4467Y1D01*
X4466Y1D01*
X4465Y1D01*
X4464Y1D01*
X4463Y1D01*
X4462Y1D01*
X4461Y1D01*
X4460Y1D01*
X4459Y1D01*
X4458Y1D01*
X4457Y1D01*
X4456Y1D01*
X4455Y1D01*
X4454Y1D01*
X4453Y1D01*
X4452Y1D01*
X4451Y1D01*
X4450Y1D01*
X4449Y1D01*
X4448Y1D01*
X4447Y1D01*
X4446Y1D01*
X4445Y1D01*
X4444Y1D01*
X4443Y1D01*
X4442Y1D01*
X4441Y1D01*
X4440Y1D01*
X4439Y1D01*
X4438Y1D01*
X4437Y1D01*
X4436Y1D01*
X4435Y1D01*
X4434Y1D01*
X4433Y1D01*
X4432Y1D01*
X4431Y1D01*
X4430Y1D01*
X4429Y1D01*
X4428Y1D01*
X4427Y1D01*
X4426Y1D01*
X4425Y1D01*
X4424Y1D01*
X4423Y1D01*
X4422Y1D01*
X4421Y1D01*
X4420Y1D01*
X4419Y1D01*
X4418Y1D01*
X4417Y1D01*
X4416Y1D01*
X4415Y1D01*
X4414Y1D01*
X4413Y1D01*
X4412Y1D01*
X4411Y1D01*
X4410Y1D01*
X4409Y1D01*
X4408Y1D01*
X4407Y1D01*
X4406Y1D01*
X4405Y1D01*
X4404Y1D01*
X4403Y1D01*
X4402Y1D01*
X4401Y1D01*
X4400Y1D01*
X4399Y1D01*
X4398Y1D01*
X4397Y1D01*
X4396Y1D01*
X4395Y1D01*
X4394Y1D01*
X4393Y1D01*
X4392Y1D01*
X4391Y1D01*
X4390Y1D01*
X4389Y1D01*
X4388Y1D01*
X4387Y1D01*
X4386Y1D01*
X4385Y1D01*
X4384Y1D01*
X4383Y1D01*
X4382Y1D01*
X4381Y1D01*
X4380Y1D01*
X4379Y1D01*
X4378Y1D01*
X4377Y1D01*
X4376Y1D01*
X4375Y1D01*
X4374Y1D01*
X4373Y1D01*
X4372Y1D01*
X4371Y1D01*
X4370Y1D01*
X4369Y1D01*
X4368Y1D01*
X4367Y1D01*
X4366Y1D01*
X4365Y1D01*
X4364Y1D01*
X4363Y1D01*
X4362Y1D01*
X4361Y1D01*
X4360Y1D01*
X4359Y1D01*
X4358Y1D01*
X4357Y1D01*
X4356Y1D01*
X4355Y1D01*
X4354Y1D01*
X4353Y1D01*
X4352Y1D01*
X4351Y1D01*
X4350Y1D01*
X4349Y1D01*
X4348Y1D01*
X4347Y1D01*
X4346Y1D01*
X4345Y1D01*
X4344Y1D01*
X4343Y1D01*
X4342Y1D01*
X4341Y1D01*
X4340Y1D01*
X4339Y1D01*
X4338Y1D01*
X4337Y1D01*
X4336Y1D01*
X4335Y1D01*
X4334Y1D01*
X4333Y1D01*
X4332Y1D01*
X4331Y1D01*
X4330Y1D01*
X4329Y1D01*
X4328Y1D01*
X4327Y1D01*
X4326Y1D01*
X4325Y1D01*
X4324Y1D01*
X4323Y1D01*
X4322Y1D01*
X4321Y1D01*
X4320Y1D01*
X4319Y1D01*
X4318Y1D01*
X4317Y1D01*
X4316Y1D01*
X4315Y1D01*
X4314Y1D01*
X4313Y1D01*
X4312Y1D01*
X4311Y1D01*
X4310Y1D01*
X4309Y1D01*
X4308Y1D01*
X4307Y1D01*
X4306Y1D01*
X4305Y1D01*
X4304Y1D01*
X4303Y1D01*
X4302Y1D01*
X4301Y1D01*
X4300Y1D01*
X4299Y1D01*
X4298Y1D01*
X4297Y1D01*
X4296Y1D01*
X4295Y1D01*
X4294Y1D01*
X4293Y1D01*
X4292Y1D01*
X4291Y1D01*
X4290Y1D01*
X4289Y1D01*
X4288Y1D01*
X4287Y1D01*
X4286Y1D01*
X4285Y1D01*
X4284Y1D01*
X4283Y1D01*
X4282Y1D01*
X4281Y1D01*
X4280Y1D01*
X4279Y1D01*
X4278Y1D01*
X4277Y1D01*
X4276Y1D01*
X4275Y1D01*
X4274Y1D01*
X4273Y1D01*
X4272Y1D01*
X4271Y1D01*
X4270Y1D01*
X4269Y1D01*
X4268Y1D01*
X4267Y1D01*
X4266Y1D01*
X4265Y1D01*
X4264Y1D01*
X4263Y1D01*
X4262Y1D01*
X4261Y1D01*
X4260Y1D01*
X4259Y1D01*
X4258Y1D01*
X4257Y1D01*
X4256Y1D01*
X4255Y1D01*
X4254Y1D01*
X4253Y1D01*
X4252Y1D01*
X4251Y1D01*
X4250Y1D01*
X4249Y1D01*
X4248Y1D01*
X4247Y1D01*
X4246Y1D01*
X4245Y1D01*
X4244Y1D01*
X4243Y1D01*
X4242Y1D01*
X4241Y1D01*
X4240Y1D01*
X4239Y1D01*
X4238Y1D01*
X4237Y1D01*
X4236Y1D01*
X4235Y1D01*
X4234Y1D01*
X4233Y1D01*
X4232Y1D01*
X4231Y1D01*
X4230Y1D01*
X4229Y1D01*
X4228Y1D01*
X4227Y1D01*
X4226Y1D01*
X4225Y1D01*
X4224Y1D01*
X4223Y1D01*
X4222Y1D01*
X4221Y1D01*
X4220Y1D01*
X4219Y1D01*
X4218Y1D01*
X4217Y1D01*
X4216Y1D01*
X4215Y1D01*
X4214Y1D01*
X4213Y1D01*
X4212Y1D01*
X4211Y1D01*
X4210Y1D01*
X4209Y1D01*
X4208Y1D01*
X4207Y1D01*
X4206Y1D01*
X4205Y1D01*
X4204Y1D01*
X4203Y1D01*
X4202Y1D01*
X4201Y1D01*
X4200Y1D01*
X4199Y1D01*
X4198Y1D01*
X4197Y1D01*
X4196Y1D01*
X4195Y1D01*
X4194Y1D01*
X4193Y1D01*
X4192Y1D01*
X4191Y1D01*
X4190Y1D01*
X4189Y1D01*
X4188Y1D01*
X4187Y1D01*
X4186Y1D01*
X4185Y1D01*
X4184Y1D01*
X4183Y1D01*
X4182Y1D01*
X4181Y1D01*
X4180Y1D01*
X4179Y1D01*
X4178Y1D01*
X4177Y1D01*
X4176Y1D01*
X4175Y1D01*
X4174Y1D01*
X4173Y1D01*
X4172Y1D01*
X4171Y1D01*
X4170Y1D01*
X4169Y1D01*
X4168Y1D01*
X4167Y1D01*
X4166Y1D01*
X4165Y1D01*
X4164Y1D01*
X4163Y1D01*
X4162Y1D01*
X4161Y1D01*
X4160Y1D01*
X4159Y1D01*
X4158Y1D01*
X4157Y1D01*
X4156Y1D01*
X4155Y1D01*
X4154Y1D01*
X4153Y1D01*
X4152Y1D01*
X4151Y1D01*
X4150Y1D01*
X4149Y1D01*
X4148Y1D01*
X4147Y1D01*
X4146Y1D01*
X4145Y1D01*
X4144Y1D01*
X4143Y1D01*
X4142Y1D01*
X4141Y1D01*
X4140Y1D01*
X4139Y1D01*
X4138Y1D01*
X4137Y1D01*
X4136Y1D01*
X4135Y1D01*
X4134Y1D01*
X4133Y1D01*
X4132Y1D01*
X4131Y1D01*
X4130Y1D01*
X4129Y1D01*
X4128Y1D01*
X4127Y1D01*
X4126Y1D01*
X4125Y1D01*
X4124Y1D01*
X4123Y1D01*
X4122Y1D01*
X4121Y1D01*
X4120Y1D01*
X4119Y1D01*
X4118Y1D01*
X4117Y1D01*
X4116Y1D01*
X4115Y1D01*
X4114Y1D01*
X4113Y1D01*
X4112Y1D01*
X4111Y1D01*
X4110Y1D01*
X4109Y1D01*
X4108Y1D01*
X4107Y1D01*
X4106Y1D01*
X4105Y1D01*
X4104Y1D01*
X4103Y1D01*
X4102Y1D01*
X4101Y1D01*
X4100Y1D01*
X4099Y1D01*
X4098Y1D01*
X4097Y1D01*
X4096Y1D01*
X4095Y1D01*
X4094Y1D01*
X4093Y1D01*
X4092Y1D01*
X4091Y1D01*
X4090Y1D01*
X4089Y1D01*
X4088Y1D01*
X4087Y1D01*
X4086Y1D01*
X4085Y1D01*
X4084Y1D01*
X4083Y1D01*
X4082Y1D01*
X4081Y1D01*
X4080Y1D01*
X4079Y1D01*
X4078Y1D01*
X4077Y1D01*
X4076Y1D01*
X4075Y1D01*
X4074Y1D01*
X4073Y1D01*
X4072Y1D01*
X4071Y1D01*
X4070Y1D01*
X4069Y1D01*
X4068Y1D01*
X4067Y1D01*
X4066Y1D01*
X4065Y1D01*
X4064Y1D01*
X4063Y1D01*
X4062Y1D01*
X4061Y1D01*
X4060Y1D01*
X4059Y1D01*
X4058Y1D01*
X4057Y1D01*
X4056Y1D01*
X4055Y1D01*
X4054Y1D01*
X4053Y1D01*
X4052Y1D01*
X4051Y1D01*
X4050Y1D01*
X4049Y1D01*
X4048Y1D01*
X4047Y1D01*
X4046Y1D01*
X4045Y1D01*
X4044Y1D01*
X4043Y1D01*
X4042Y1D01*
X4041Y1D01*
X4040Y1D01*
X4039Y1D01*
X4038Y1D01*
X4037Y1D01*
X4036Y1D01*
X4035Y1D01*
X4034Y1D01*
X4033Y1D01*
X4032Y1D01*
X4031Y1D01*
X4030Y1D01*
X4029Y1D01*
X4028Y1D01*
X4027Y1D01*
X4026Y1D01*
X4025Y1D01*
X4024Y1D01*
X4023Y1D01*
X4022Y1D01*
X4021Y1D01*
X4020Y1D01*
X4019Y1D01*
X4018Y1D01*
X4017Y1D01*
X4016Y1D01*
X4015Y1D01*
X4014Y1D01*
X4013Y1D01*
X4012Y1D01*
X4011Y1D01*
X4010Y1D01*
X4009Y1D01*
X4008Y1D01*
X4007Y1D01*
X4006Y1D01*
X4005Y1D01*
X4004Y1D01*
X4003Y1D01*
X4002Y1D01*
X4001Y1D01*
X4000Y1D01*
X3999Y1D01*
X3998Y1D01*
X3997Y1D01*
X3996Y1D01*
X3995Y1D01*
X3994Y1D01*
X3993Y1D01*
X3992Y1D01*
X3991Y1D01*
X3990Y1D01*
X3989Y1D01*
X3988Y1D01*
X3987Y1D01*
X3986Y1D01*
X3985Y1D01*
X3984Y1D01*
X3983Y1D01*
X3982Y1D01*
X3981Y1D01*
X3980Y1D01*
X3979Y1D01*
X3978Y1D01*
X3977Y1D01*
X3976Y1D01*
X3975Y1D01*
X3974Y1D01*
X3973Y1D01*
X3972Y1D01*
X3971Y1D01*
X3970Y1D01*
X3969Y1D01*
X3968Y1D01*
X3967Y1D01*
X3966Y1D01*
X3965Y1D01*
X3964Y1D01*
X3963Y1D01*
X3962Y1D01*
X3961Y1D01*
X3960Y1D01*
X3959Y1D01*
X3958Y1D01*
X3957Y1D01*
X3956Y1D01*
X3955Y1D01*
X3954Y1D01*
X3953Y1D01*
X3952Y1D01*
X3951Y1D01*
X3950Y1D01*
X3949Y1D01*
X3948Y1D01*
X3947Y1D01*
X3946Y1D01*
X3945Y1D01*
X3944Y1D01*
X3943Y1D01*
X3942Y1D01*
X3941Y1D01*
X3940Y1D01*
X3939Y1D01*
X3938Y1D01*
X3937Y1D01*
X3936Y1D01*
X3935Y1D01*
X3934Y1D01*
X3933Y1D01*
X3932Y1D01*
X3931Y1D01*
X3930Y1D01*
X3929Y1D01*
X3928Y1D01*
X3927Y1D01*
X3926Y1D01*
X3925Y1D01*
X3924Y1D01*
X3923Y1D01*
X3922Y1D01*
X3921Y1D01*
X3920Y1D01*
X3919Y1D01*
X3918Y1D01*
X3917Y1D01*
X3916Y1D01*
X3915Y1D01*
X3914Y1D01*
X3913Y1D01*
X3912Y1D01*
X3911Y1D01*
X3910Y1D01*
X3909Y1D01*
X3908Y1D01*
X3907Y1D01*
X3906Y1D01*
X3905Y1D01*
X3904Y1D01*
X3903Y1D01*
X3902Y1D01*
X3901Y1D01*
X3900Y1D01*
X3899Y1D01*
X3898Y1D01*
X3897Y1D01*
X3896Y1D01*
X3895Y1D01*
X3894Y1D01*
X3893Y1D01*
X3892Y1D01*
X3891Y1D01*
X3890Y1D01*
X3889Y1D01*
X3888Y1D01*
X3887Y1D01*
X3886Y1D01*
X3885Y1D01*
X3884Y1D01*
X3883Y1D01*
X3882Y1D01*
X3881Y1D01*
X3880Y1D01*
X3879Y1D01*
X3878Y1D01*
X3877Y1D01*
X3876Y1D01*
X3875Y1D01*
X3874Y1D01*
X3873Y1D01*
X3872Y1D01*
X3871Y1D01*
X3870Y1D01*
X3869Y1D01*
X3868Y1D01*
X3867Y1D01*
X3866Y1D01*
X3865Y1D01*
X3864Y1D01*
X3863Y1D01*
X3862Y1D01*
X3861Y1D01*
X3860Y1D01*
X3859Y1D01*
X3858Y1D01*
X3857Y1D01*
X3856Y1D01*
X3855Y1D01*
X3854Y1D01*
X3853Y1D01*
X3852Y1D01*
X3851Y1D01*
X3850Y1D01*
X3849Y1D01*
X3848Y1D01*
X3847Y1D01*
X3846Y1D01*
X3845Y1D01*
X3844Y1D01*
X3843Y1D01*
X3842Y1D01*
X3841Y1D01*
X3840Y1D01*
X3839Y1D01*
X3838Y1D01*
X3837Y1D01*
X3836Y1D01*
X3835Y1D01*
X3834Y1D01*
X3833Y1D01*
X3832Y1D01*
X3831Y1D01*
X3830Y1D01*
X3829Y1D01*
X3828Y1D01*
X3827Y1D01*
X3826Y1D01*
X3825Y1D01*
X3824Y1D01*
X3823Y1D01*
X3822Y1D01*
X3821Y1D01*
X3820Y1D01*
X3819Y1D01*
X3818Y1D01*
X3817Y1D01*
X3816Y1D01*
X3815Y1D01*
X3814Y1D01*
X3813Y1D01*
X3812Y1D01*
X3811Y1D01*
X3810Y1D01*
X3809Y1D01*
X3808Y1D01*
X3807Y1D01*
X3806Y1D01*
X3805Y1D01*
X3804Y1D01*
X3803Y1D01*
X3802Y1D01*
X3801Y1D01*
X3800Y1D01*
X3799Y1D01*
X3798Y1D01*
X3797Y1D01*
X3796Y1D01*
X3795Y1D01*
X3794Y1D01*
X3793Y1D01*
X3792Y1D01*
X3791Y1D01*
X3790Y1D01*
X3789Y1D01*
X3788Y1D01*
X3787Y1D01*
X3786Y1D01*
X3785Y1D01*
X3784Y1D01*
X3783Y1D01*
X3782Y1D01*
X3781Y1D01*
X3780Y1D01*
X3779Y1D01*
X3778Y1D01*
X3777Y1D01*
X3776Y1D01*
X3775Y1D01*
X3774Y1D01*
X3773Y1D01*
X3772Y1D01*
X3771Y1D01*
X3770Y1D01*
X3769Y1D01*
X3768Y1D01*
X3767Y1D01*
X3766Y1D01*
X3765Y1D01*
X3764Y1D01*
X3763Y1D01*
X3762Y1D01*
X3761Y1D01*
X3760Y1D01*
X3759Y1D01*
X3758Y1D01*
X3757Y1D01*
X3756Y1D01*
X3755Y1D01*
X3754Y1D01*
X3753Y1D01*
X3752Y1D01*
X3751Y1D01*
X3750Y1D01*
X3749Y1D01*
X3748Y1D01*
X3747Y1D01*
X3746Y1D01*
X3745Y1D01*
X3744Y1D01*
X3743Y1D01*
X3742Y1D01*
X3741Y1D01*
X3740Y1D01*
X3739Y1D01*
X3738Y1D01*
X3737Y1D01*
X3736Y1D01*
X3735Y1D01*
X3734Y1D01*
X3733Y1D01*
X3732Y1D01*
X3731Y1D01*
X3730Y1D01*
X3729Y1D01*
X3728Y1D01*
X3727Y1D01*
X3726Y1D01*
X3725Y1D01*
X3724Y1D01*
X3723Y1D01*
X3722Y1D01*
X3721Y1D01*
X3720Y1D01*
X3719Y1D01*
X3718Y1D01*
X3717Y1D01*
X3716Y1D01*
X3715Y1D01*
X3714Y1D01*
X3713Y1D01*
X3712Y1D01*
X3711Y1D01*
X3710Y1D01*
X3709Y1D01*
X3708Y1D01*
X3707Y1D01*
X3706Y1D01*
X3705Y1D01*
X3704Y1D01*
X3703Y1D01*
X3702Y1D01*
X3701Y1D01*
X3700Y1D01*
X3699Y1D01*
X3698Y1D01*
X3697Y1D01*
X3696Y1D01*
X3695Y1D01*
X3694Y1D01*
X3693Y1D01*
X3692Y1D01*
X3691Y1D01*
X3690Y1D01*
X3689Y1D01*
X3688Y1D01*
X3687Y1D01*
X3686Y1D01*
X3685Y1D01*
X3684Y1D01*
X3683Y1D01*
X3682Y1D01*
X3681Y1D01*
X3680Y1D01*
X3679Y1D01*
X3678Y1D01*
X3677Y1D01*
X3676Y1D01*
X3675Y1D01*
X3674Y1D01*
X3673Y1D01*
X3672Y1D01*
X3671Y1D01*
X3670Y1D01*
X3669Y1D01*
X3668Y1D01*
X3667Y1D01*
X3666Y1D01*
X3665Y1D01*
X3664Y1D01*
X3663Y1D01*
X3662Y1D01*
X3661Y1D01*
X3660Y1D01*
X3659Y1D01*
X3658Y1D01*
X3657Y1D01*
X3656Y1D01*
X3655Y1D01*
X3654Y1D01*
X3653Y1D01*
X3652Y1D01*
X3651Y1D01*
X3650Y1D01*
X3649Y1D01*
X3648Y1D01*
X3647Y1D01*
X3646Y1D01*
X3645Y1D01*
X3644Y1D01*
X3643Y1D01*
X3642Y1D01*
X3641Y1D01*
X3640Y1D01*
X3639Y1D01*
X3638Y1D01*
X3637Y1D01*
X3636Y1D01*
X3635Y1D01*
X3634Y1D01*
X3633Y1D01*
X3632Y1D01*
X3631Y1D01*
X3630Y1D01*
X3629Y1D01*
X3628Y1D01*
X3627Y1D01*
X3626Y1D01*
X3625Y1D01*
X3624Y1D01*
X3623Y1D01*
X3622Y1D01*
X3621Y1D01*
X3620Y1D01*
X3619Y1D01*
X3618Y1D01*
X3617Y1D01*
X3616Y1D01*
X3615Y1D01*
X3614Y1D01*
X3613Y1D01*
X3612Y1D01*
X3611Y1D01*
X3610Y1D01*
X3609Y1D01*
X3608Y1D01*
X3607Y1D01*
X3606Y1D01*
X3605Y1D01*
X3604Y1D01*
X3603Y1D01*
X3602Y1D01*
X3601Y1D01*
X3600Y1D01*
X3599Y1D01*
X3598Y1D01*
X3597Y1D01*
X3596Y1D01*
X3595Y1D01*
X3594Y1D01*
X3593Y1D01*
X3592Y1D01*
X3591Y1D01*
X3590Y1D01*
X3589Y1D01*
X3588Y1D01*
X3587Y1D01*
X3586Y1D01*
X3585Y1D01*
X3584Y1D01*
X3583Y1D01*
X3582Y1D01*
X3581Y1D01*
X3580Y1D01*
X3579Y1D01*
X3578Y1D01*
X3577Y1D01*
X3576Y1D01*
X3575Y1D01*
X3574Y1D01*
X3573Y1D01*
X3572Y1D01*
X3571Y1D01*
X3570Y1D01*
X3569Y1D01*
X3568Y1D01*
X3567Y1D01*
X3566Y1D01*
X3565Y1D01*
X3564Y1D01*
X3563Y1D01*
X3562Y1D01*
X3561Y1D01*
X3560Y1D01*
X3559Y1D01*
X3558Y1D01*
X3557Y1D01*
X3556Y1D01*
X3555Y1D01*
X3554Y1D01*
X3553Y1D01*
X3552Y1D01*
X3551Y1D01*
X3550Y1D01*
X3549Y1D01*
X3548Y1D01*
X3547Y1D01*
X3546Y1D01*
X3545Y1D01*
X3544Y1D01*
X3543Y1D01*
X3542Y1D01*
X3541Y1D01*
X3540Y1D01*
X3539Y1D01*
X3538Y1D01*
X3537Y1D01*
X3536Y1D01*
X3535Y1D01*
X3534Y1D01*
X3533Y1D01*
X3532Y1D01*
X3531Y1D01*
X3530Y1D01*
X3529Y1D01*
X3528Y1D01*
X3527Y1D01*
X3526Y1D01*
X3525Y1D01*
X3524Y1D01*
X3523Y1D01*
X3522Y1D01*
X3521Y1D01*
X3520Y1D01*
X3519Y1D01*
X3518Y1D01*
X3517Y1D01*
X3516Y1D01*
X3515Y1D01*
X3514Y1D01*
X3513Y1D01*
X3512Y1D01*
X3511Y1D01*
X3510Y1D01*
X3509Y1D01*
X3508Y1D01*
X3507Y1D01*
X3506Y1D01*
X3505Y1D01*
X3504Y1D01*
X3503Y1D01*
X3502Y1D01*
X3501Y1D01*
X3500Y1D01*
X3499Y1D01*
X3498Y1D01*
X3497Y1D01*
X3496Y1D01*
X3495Y1D01*
X3494Y1D01*
X3493Y1D01*
X3492Y1D01*
X3491Y1D01*
X3490Y1D01*
X3489Y1D01*
X3488Y1D01*
X3487Y1D01*
X3486Y1D01*
X3485Y1D01*
X3484Y1D01*
X3483Y1D01*
X3482Y1D01*
X3481Y1D01*
X3480Y1D01*
X3479Y1D01*
X3478Y1D01*
X3477Y1D01*
X3476Y1D01*
X3475Y1D01*
X3474Y1D01*
X3473Y1D01*
X3472Y1D01*
X3471Y1D01*
X3470Y1D01*
X3469Y1D01*
X3468Y1D01*
X3467Y1D01*
X3466Y1D01*
X3465Y1D01*
X3464Y1D01*
X3463Y1D01*
X3462Y1D01*
X3461Y1D01*
X3460Y1D01*
X3459Y1D01*
X3458Y1D01*
X3457Y1D01*
X3456Y1D01*
X3455Y1D01*
X3454Y1D01*
X3453Y1D01*
X3452Y1D01*
X3451Y1D01*
X3450Y1D01*
X3449Y1D01*
X3448Y1D01*
X3447Y1D01*
X3446Y1D01*
X3445Y1D01*
X3444Y1D01*
X3443Y1D01*
X3442Y1D01*
X3441Y1D01*
X3440Y1D01*
X3439Y1D01*
X3438Y1D01*
X3437Y1D01*
X3436Y1D01*
X3435Y1D01*
X3434Y1D01*
X3433Y1D01*
X3432Y1D01*
X3431Y1D01*
X3430Y1D01*
X3429Y1D01*
X3428Y1D01*
X3427Y1D01*
X3426Y1D01*
X3425Y1D01*
X3424Y1D01*
X3423Y1D01*
X3422Y1D01*
X3421Y1D01*
X3420Y1D01*
X3419Y1D01*
X3418Y1D01*
X3417Y1D01*
X3416Y1D01*
X3415Y1D01*
X3414Y1D01*
X3413Y1D01*
X3412Y1D01*
X3411Y1D01*
X3410Y1D01*
X3409Y1D01*
X3408Y1D01*
X3407Y1D01*
X3406Y1D01*
X3405Y1D01*
X3404Y1D01*
X3403Y1D01*
X3402Y1D01*
X3401Y1D01*
X3400Y1D01*
X3399Y1D01*
X3398Y1D01*
X3397Y1D01*
X3396Y1D01*
X3395Y1D01*
X3394Y1D01*
X3393Y1D01*
X3392Y1D01*
X3391Y1D01*
X3390Y1D01*
X3389Y1D01*
X3388Y1D01*
X3387Y1D01*
X3386Y1D01*
X3385Y1D01*
X3384Y1D01*
X3383Y1D01*
X3382Y1D01*
X3381Y1D01*
X3380Y1D01*
X3379Y1D01*
X3378Y1D01*
X3377Y1D01*
X3376Y1D01*
X3375Y1D01*
X3374Y1D01*
X3373Y1D01*
X3372Y1D01*
X3371Y1D01*
X3370Y1D01*
X3369Y1D01*
X3368Y1D01*
X3367Y1D01*
X3366Y1D01*
X3365Y1D01*
X3364Y1D01*
X3363Y1D01*
X3362Y1D01*
X3361Y1D01*
X3360Y1D01*
X3359Y1D01*
X3358Y1D01*
X3357Y1D01*
X3356Y1D01*
X3355Y1D01*
X3354Y1D01*
X3353Y1D01*
X3352Y1D01*
X3351Y1D01*
X3350Y1D01*
X3349Y1D01*
X3348Y1D01*
X3347Y1D01*
X3346Y1D01*
X3345Y1D01*
X3344Y1D01*
X3343Y1D01*
X3342Y1D01*
X3341Y1D01*
X3340Y1D01*
X3339Y1D01*
X3338Y1D01*
X3337Y1D01*
X3336Y1D01*
X3335Y1D01*
X3334Y1D01*
X3333Y1D01*
X3332Y1D01*
X3331Y1D01*
X3330Y1D01*
X3329Y1D01*
X3328Y1D01*
X3327Y1D01*
X3326Y1D01*
X3325Y1D01*
X3324Y1D01*
X3323Y1D01*
X3322Y1D01*
X3321Y1D01*
X3320Y1D01*
X3319Y1D01*
X3318Y1D01*
X3317Y1D01*
X3316Y1D01*
X3315Y1D01*
X3314Y1D01*
X3313Y1D01*
X3312Y1D01*
X3311Y1D01*
X3310Y1D01*
X3309Y1D01*
X3308Y1D01*
X3307Y1D01*
X3306Y1D01*
X3305Y1D01*
X3304Y1D01*
X3303Y1D01*
X3302Y1D01*
X3301Y1D01*
X3300Y1D01*
X3299Y1D01*
X3298Y1D01*
X3297Y1D01*
X3296Y1D01*
X3295Y1D01*
X3294Y1D01*
X3293Y1D01*
X3292Y1D01*
X3291Y1D01*
X3290Y1D01*
X3289Y1D01*
X3288Y1D01*
X3287Y1D01*
X3286Y1D01*
X3285Y1D01*
X3284Y1D01*
X3283Y1D01*
X3282Y1D01*
X3281Y1D01*
X3280Y1D01*
X3279Y1D01*
X3278Y1D01*
X3277Y1D01*
X3276Y1D01*
X3275Y1D01*
X3274Y1D01*
X3273Y1D01*
X3272Y1D01*
X3271Y1D01*
X3270Y1D01*
X3269Y1D01*
X3268Y1D01*
X3267Y1D01*
X3266Y1D01*
X3265Y1D01*
X3264Y1D01*
X3263Y1D01*
X3262Y1D01*
X3261Y1D01*
X3260Y1D01*
X3259Y1D01*
X3258Y1D01*
X3257Y1D01*
X3256Y1D01*
X3255Y1D01*
X3254Y1D01*
X3253Y1D01*
X3252Y1D01*
X3251Y1D01*
X3250Y1D01*
X3249Y1D01*
X3248Y1D01*
X3247Y1D01*
X3246Y1D01*
X3245Y1D01*
X3244Y1D01*
X3243Y1D01*
X3242Y1D01*
X3241Y1D01*
X3240Y1D01*
X3239Y1D01*
X3238Y1D01*
X3237Y1D01*
X3236Y1D01*
X3235Y1D01*
X3234Y1D01*
X3233Y1D01*
X3232Y1D01*
X3231Y1D01*
X3230Y1D01*
X3229Y1D01*
X3228Y1D01*
X3227Y1D01*
X3226Y1D01*
X3225Y1D01*
X3224Y1D01*
X3223Y1D01*
X3222Y1D01*
X3221Y1D01*
X3220Y1D01*
X3219Y1D01*
X3218Y1D01*
X3217Y1D01*
X3216Y1D01*
X3215Y1D01*
X3214Y1D01*
X3213Y1D01*
X3212Y1D01*
X3211Y1D01*
X3210Y1D01*
X3209Y1D01*
X3208Y1D01*
X3207Y1D01*
X3206Y1D01*
X3205Y1D01*
X3204Y1D01*
X3203Y1D01*
X3202Y1D01*
X3201Y1D01*
X3200Y1D01*
X3199Y1D01*
X3198Y1D01*
X3197Y1D01*
X3196Y1D01*
X3195Y1D01*
X3194Y1D01*
X3193Y1D01*
X3192Y1D01*
X3191Y1D01*
X3190Y1D01*
X3189Y1D01*
X3188Y1D01*
X3187Y1D01*
X3186Y1D01*
X3185Y1D01*
X3184Y1D01*
X3183Y1D01*
X3182Y1D01*
X3181Y1D01*
X3180Y1D01*
X3179Y1D01*
X3178Y1D01*
X3177Y1D01*
X3176Y1D01*
X3175Y1D01*
X3174Y1D01*
X3173Y1D01*
X3172Y1D01*
X3171Y1D01*
X3170Y1D01*
X3169Y1D01*
X3168Y1D01*
X3167Y1D01*
X3166Y1D01*
X3165Y1D01*
X3164Y1D01*
X3163Y1D01*
X3162Y1D01*
X3161Y1D01*
X3160Y1D01*
X3159Y1D01*
X3158Y1D01*
X3157Y1D01*
X3156Y1D01*
X3155Y1D01*
X3154Y1D01*
X3153Y1D01*
X3152Y1D01*
X3151Y1D01*
X3150Y1D01*
X3149Y1D01*
X3148Y1D01*
X3147Y1D01*
X3146Y1D01*
X3145Y1D01*
X3144Y1D01*
X3143Y1D01*
X3142Y1D01*
X3141Y1D01*
X3140Y1D01*
X3139Y1D01*
X3138Y1D01*
X3137Y1D01*
X3136Y1D01*
X3135Y1D01*
X3134Y1D01*
X3133Y1D01*
X3132Y1D01*
X3131Y1D01*
X3130Y1D01*
X3129Y1D01*
X3128Y1D01*
X3127Y1D01*
X3126Y1D01*
X3125Y1D01*
X3124Y1D01*
X3123Y1D01*
X3122Y1D01*
X3121Y1D01*
X3120Y1D01*
X3119Y1D01*
X3118Y1D01*
X3117Y1D01*
X3116Y1D01*
X3115Y1D01*
X3114Y1D01*
X3113Y1D01*
X3112Y1D01*
X3111Y1D01*
X3110Y1D01*
X3109Y1D01*
X3108Y1D01*
X3107Y1D01*
X3106Y1D01*
X3105Y1D01*
X3104Y1D01*
X3103Y1D01*
X3102Y1D01*
X3101Y1D01*
X3100Y1D01*
X3099Y1D01*
X3098Y1D01*
X3097Y1D01*
X3096Y1D01*
X3095Y1D01*
X3094Y1D01*
X3093Y1D01*
X3092Y1D01*
X3091Y1D01*
X3090Y1D01*
X3089Y1D01*
X3088Y1D01*
X3087Y1D01*
X3086Y1D01*
X3085Y1D01*
X3084Y1D01*
X3083Y1D01*
X3082Y1D01*
X3081Y1D01*
X3080Y1D01*
X3079Y1D01*
X3078Y1D01*
X3077Y1D01*
X3076Y1D01*
X3075Y1D01*
X3074Y1D01*
X3073Y1D01*
X3072Y1D01*
X3071Y1D01*
X3070Y1D01*
X3069Y1D01*
X3068Y1D01*
X3067Y1D01*
X3066Y1D01*
X3065Y1D01*
X3064Y1D01*
X3063Y1D01*
X3062Y1D01*
X3061Y1D01*
X3060Y1D01*
X3059Y1D01*
X3058Y1D01*
X3057Y1D01*
X3056Y1D01*
X3055Y1D01*
X3054Y1D01*
X3053Y1D01*
X3052Y1D01*
X3051Y1D01*
X3050Y1D01*
X3049Y1D01*
X3048Y1D01*
X3047Y1D01*
X3046Y1D01*
X3045Y1D01*
X3044Y1D01*
X3043Y1D01*
X3042Y1D01*
X3041Y1D01*
X3040Y1D01*
X3039Y1D01*
X3038Y1D01*
X3037Y1D01*
X3036Y1D01*
X3035Y1D01*
X3034Y1D01*
X3033Y1D01*
X3032Y1D01*
X3031Y1D01*
X3030Y1D01*
X3029Y1D01*
X3028Y1D01*
X3027Y1D01*
X3026Y1D01*
X3025Y1D01*
X3024Y1D01*
X3023Y1D01*
X3022Y1D01*
X3021Y1D01*
X3020Y1D01*
X3019Y1D01*
X3018Y1D01*
X3017Y1D01*
X3016Y1D01*
X3015Y1D01*
X3014Y1D01*
X3013Y1D01*
X3012Y1D01*
X3011Y1D01*
X3010Y1D01*
X3009Y1D01*
X3008Y1D01*
X3007Y1D01*
X3006Y1D01*
X3005Y1D01*
X3004Y1D01*
X3003Y1D01*
X3002Y1D01*
X3001Y1D01*
X3000Y1D01*
X2999Y1D01*
X2998Y1D01*
X2997Y1D01*
X2996Y1D01*
X2995Y1D01*
X2994Y1D01*
X2993Y1D01*
X2992Y1D01*
X2991Y1D01*
X2990Y1D01*
X2989Y1D01*
X2988Y1D01*
X2987Y1D01*
X2986Y1D01*
X2985Y1D01*
X2984Y1D01*
X2983Y1D01*
X2982Y1D01*
X2981Y1D01*
X2980Y1D01*
X2979Y1D01*
X2978Y1D01*
X2977Y1D01*
X2976Y1D01*
X2975Y1D01*
X2974Y1D01*
X2973Y1D01*
X2972Y1D01*
X2971Y1D01*
X2970Y1D01*
X2969Y1D01*
X2968Y1D01*
X2967Y1D01*
X2966Y1D01*
X2965Y1D01*
X2964Y1D01*
X2963Y1D01*
X2962Y1D01*
X2961Y1D01*
X2960Y1D01*
X2959Y1D01*
X2958Y1D01*
X2957Y1D01*
X2956Y1D01*
X2955Y1D01*
X2954Y1D01*
X2953Y1D01*
X2952Y1D01*
X2951Y1D01*
X2950Y1D01*
X2949Y1D01*
X2948Y1D01*
X2947Y1D01*
X2946Y1D01*
X2945Y1D01*
X2944Y1D01*
X2943Y1D01*
X2942Y1D01*
X2941Y1D01*
X2940Y1D01*
X2939Y1D01*
X2938Y1D01*
X2937Y1D01*
X2936Y1D01*
X2935Y1D01*
X2934Y1D01*
X2933Y1D01*
X2932Y1D01*
X2931Y1D01*
X2930Y1D01*
X2929Y1D01*
X2928Y1D01*
X2927Y1D01*
X2926Y1D01*
X2925Y1D01*
X2924Y1D01*
X2923Y1D01*
X2922Y1D01*
X2921Y1D01*
X2920Y1D01*
X2919Y1D01*
X2918Y1D01*
X2917Y1D01*
X2916Y1D01*
X2915Y1D01*
X2914Y1D01*
X2913Y1D01*
X2912Y1D01*
X2911Y1D01*
X2910Y1D01*
X2909Y1D01*
X2908Y1D01*
X2907Y1D01*
X2906Y1D01*
X2905Y1D01*
X2904Y1D01*
X2903Y1D01*
X2902Y1D01*
X2901Y1D01*
X2900Y1D01*
X2899Y1D01*
X2898Y1D01*
X2897Y1D01*
X2896Y1D01*
X2895Y1D01*
X2894Y1D01*
X2893Y1D01*
X2892Y1D01*
X2891Y1D01*
X2890Y1D01*
X2889Y1D01*
X2888Y1D01*
X2887Y1D01*
X2886Y1D01*
X2885Y1D01*
X2884Y1D01*
X2883Y1D01*
X2882Y1D01*
X2881Y1D01*
X2880Y1D01*
X2879Y1D01*
X2878Y1D01*
X2877Y1D01*
X2876Y1D01*
X2875Y1D01*
X2874Y1D01*
X2873Y1D01*
X2872Y1D01*
X2871Y1D01*
X2870Y1D01*
X2869Y1D01*
X2868Y1D01*
X2867Y1D01*
X2866Y1D01*
X2865Y1D01*
X2864Y1D01*
X2863Y1D01*
X2862Y1D01*
X2861Y1D01*
X2860Y1D01*
X2859Y1D01*
X2858Y1D01*
X2857Y1D01*
X2856Y1D01*
X2855Y1D01*
X2854Y1D01*
X2853Y1D01*
X2852Y1D01*
X2851Y1D01*
X2850Y1D01*
X2849Y1D01*
X2848Y1D01*
X2847Y1D01*
X2846Y1D01*
X2845Y1D01*
X2844Y1D01*
X2843Y1D01*
X2842Y1D01*
X2841Y1D01*
X2840Y1D01*
X2839Y1D01*
X2838Y1D01*
X2837Y1D01*
X2836Y1D01*
X2835Y1D01*
X2834Y1D01*
X2833Y1D01*
X2832Y1D01*
X2831Y1D01*
X2830Y1D01*
X2829Y1D01*
X2828Y1D01*
X2827Y1D01*
X2826Y1D01*
X2825Y1D01*
X2824Y1D01*
X2823Y1D01*
X2822Y1D01*
X2821Y1D01*
X2820Y1D01*
X2819Y1D01*
X2818Y1D01*
X2817Y1D01*
X2816Y1D01*
X2815Y1D01*
X2814Y1D01*
X2813Y1D01*
X2812Y1D01*
X2811Y1D01*
X2810Y1D01*
X2809Y1D01*
X2808Y1D01*
X2807Y1D01*
X2806Y1D01*
X2805Y1D01*
X2804Y1D01*
X2803Y1D01*
X2802Y1D01*
X2801Y1D01*
X2800Y1D01*
X2799Y1D01*
X2798Y1D01*
X2797Y1D01*
X2796Y1D01*
X2795Y1D01*
X2794Y1D01*
X2793Y1D01*
X2792Y1D01*
X2791Y1D01*
X2790Y1D01*
X2789Y1D01*
X2788Y1D01*
X2787Y1D01*
X2786Y1D01*
X2785Y1D01*
X2784Y1D01*
X2783Y1D01*
X2782Y1D01*
X2781Y1D01*
X2780Y1D01*
X2779Y1D01*
X2778Y1D01*
X2777Y1D01*
X2776Y1D01*
X2775Y1D01*
X2774Y1D01*
X2773Y1D01*
X2772Y1D01*
X2771Y1D01*
X2770Y1D01*
X2769Y1D01*
X2768Y1D01*
X2767Y1D01*
X2766Y1D01*
X2765Y1D01*
X2764Y1D01*
X2763Y1D01*
X2762Y1D01*
X2761Y1D01*
X2760Y1D01*
X2759Y1D01*
X2758Y1D01*
X2757Y1D01*
X2756Y1D01*
X2755Y1D01*
X2754Y1D01*
X2753Y1D01*
X2752Y1D01*
X2751Y1D01*
X2750Y1D01*
X2749Y1D01*
X2748Y1D01*
X2747Y1D01*
X2746Y1D01*
X2745Y1D01*
X2744Y1D01*
X2743Y1D01*
X2742Y1D01*
X2741Y1D01*
X2740Y1D01*
X2739Y1D01*
X2738Y1D01*
X2737Y1D01*
X2736Y1D01*
X2735Y1D01*
X2734Y1D01*
X2733Y1D01*
X2732Y1D01*
X2731Y1D01*
X2730Y1D01*
X2729Y1D01*
X2728Y1D01*
X2727Y1D01*
X2726Y1D01*
X2725Y1D01*
X2724Y1D01*
X2723Y1D01*
X2722Y1D01*
X2721Y1D01*
X2720Y1D01*
X2719Y1D01*
X2718Y1D01*
X2717Y1D01*
X2716Y1D01*
X2715Y1D01*
X2714Y1D01*
X2713Y1D01*
X2712Y1D01*
X2711Y1D01*
X2710Y1D01*
X2709Y1D01*
X2708Y1D01*
X2707Y1D01*
X2706Y1D01*
X2705Y1D01*
X2704Y1D01*
X2703Y1D01*
X2702Y1D01*
X2701Y1D01*
X2700Y1D01*
X2699Y1D01*
X2698Y1D01*
X2697Y1D01*
X2696Y1D01*
X2695Y1D01*
X2694Y1D01*
X2693Y1D01*
X2692Y1D01*
X2691Y1D01*
X2690Y1D01*
X2689Y1D01*
X2688Y1D01*
X2687Y1D01*
X2686Y1D01*
X2685Y1D01*
X2684Y1D01*
X2683Y1D01*
X2682Y1D01*
X2681Y1D01*
X2680Y1D01*
X2679Y1D01*
X2678Y1D01*
X2677Y1D01*
X2676Y1D01*
X2675Y1D01*
X2674Y1D01*
X2673Y1D01*
X2672Y1D01*
X2671Y1D01*
X2670Y1D01*
X2669Y1D01*
X2668Y1D01*
X2667Y1D01*
X2666Y1D01*
X2665Y1D01*
X2664Y1D01*
X2663Y1D01*
X2662Y1D01*
X2661Y1D01*
X2660Y1D01*
X2659Y1D01*
X2658Y1D01*
X2657Y1D01*
X2656Y1D01*
X2655Y1D01*
X2654Y1D01*
X2653Y1D01*
X2652Y1D01*
X2651Y1D01*
X2650Y1D01*
X2649Y1D01*
X2648Y1D01*
X2647Y1D01*
X2646Y1D01*
X2645Y1D01*
X2644Y1D01*
X2643Y1D01*
X2642Y1D01*
X2641Y1D01*
X2640Y1D01*
X2639Y1D01*
X2638Y1D01*
X2637Y1D01*
X2636Y1D01*
X2635Y1D01*
X2634Y1D01*
X2633Y1D01*
X2632Y1D01*
X2631Y1D01*
X2630Y1D01*
X2629Y1D01*
X2628Y1D01*
X2627Y1D01*
X2626Y1D01*
X2625Y1D01*
X2624Y1D01*
X2623Y1D01*
X2622Y1D01*
X2621Y1D01*
X2620Y1D01*
X2619Y1D01*
X2618Y1D01*
X2617Y1D01*
X2616Y1D01*
X2615Y1D01*
X2614Y1D01*
X2613Y1D01*
X2612Y1D01*
X2611Y1D01*
X2610Y1D01*
X2609Y1D01*
X2608Y1D01*
X2607Y1D01*
X2606Y1D01*
X2605Y1D01*
X2604Y1D01*
X2603Y1D01*
X2602Y1D01*
X2601Y1D01*
X2600Y1D01*
X2599Y1D01*
X2598Y1D01*
X2597Y1D01*
X2596Y1D01*
X2595Y1D01*
X2594Y1D01*
X2593Y1D01*
X2592Y1D01*
X2591Y1D01*
X2590Y1D01*
X2589Y1D01*
X2588Y1D01*
X2587Y1D01*
X2586Y1D01*
X2585Y1D01*
X2584Y1D01*
X2583Y1D01*
X2582Y1D01*
X2581Y1D01*
X2580Y1D01*
X2579Y1D01*
X2578Y1D01*
X2577Y1D01*
X2576Y1D01*
X2575Y1D01*
X2574Y1D01*
X2573Y1D01*
X2572Y1D01*
X2571Y1D01*
X2570Y1D01*
X2569Y1D01*
X2568Y1D01*
X2567Y1D01*
X2566Y1D01*
X2565Y1D01*
X2564Y1D01*
X2563Y1D01*
X2562Y1D01*
X2561Y1D01*
X2560Y1D01*
X2559Y1D01*
X2558Y1D01*
X2557Y1D01*
X2556Y1D01*
X2555Y1D01*
X2554Y1D01*
X2553Y1D01*
X2552Y1D01*
X2551Y1D01*
X2550Y1D01*
X2549Y1D01*
X2548Y1D01*
X2547Y1D01*
X2546Y1D01*
X2545Y1D01*
X2544Y1D01*
X2543Y1D01*
X2542Y1D01*
X2541Y1D01*
X2540Y1D01*
X2539Y1D01*
X2538Y1D01*
X2537Y1D01*
X2536Y1D01*
X2535Y1D01*
X2534Y1D01*
X2533Y1D01*
X2532Y1D01*
X2531Y1D01*
X2530Y1D01*
X2529Y1D01*
X2528Y1D01*
X2527Y1D01*
X2526Y1D01*
X2525Y1D01*
X2524Y1D01*
X2523Y1D01*
X2522Y1D01*
X2521Y1D01*
X2520Y1D01*
X2519Y1D01*
X2518Y1D01*
X2517Y1D01*
X2516Y1D01*
X2515Y1D01*
X2514Y1D01*
X2513Y1D01*
X2512Y1D01*
X2511Y1D01*
X2510Y1D01*
X2509Y1D01*
X2508Y1D01*
X2507Y1D01*
X2506Y1D01*
X2505Y1D01*
X2504Y1D01*
X2503Y1D01*
X2502Y1D01*
X2501Y1D01*
X2500Y1D01*
X2499Y1D01*
X2498Y1D01*
X2497Y1D01*
X2496Y1D01*
X2495Y1D01*
X2494Y1D01*
X2493Y1D01*
X2492Y1D01*
X2491Y1D01*
X2490Y1D01*
X2489Y1D01*
X2488Y1D01*
X2487Y1D01*
X2486Y1D01*
X2485Y1D01*
X2484Y1D01*
X2483Y1D01*
X2482Y1D01*
X2481Y1D01*
X2480Y1D01*
X2479Y1D01*
X2478Y1D01*
X2477Y1D01*
X2476Y1D01*
X2475Y1D01*
X2474Y1D01*
X2473Y1D01*
X2472Y1D01*
X2471Y1D01*
X2470Y1D01*
X2469Y1D01*
X2468Y1D01*
X2467Y1D01*
X2466Y1D01*
X2465Y1D01*
X2464Y1D01*
X2463Y1D01*
X2462Y1D01*
X2461Y1D01*
X2460Y1D01*
X2459Y1D01*
X2458Y1D01*
X2457Y1D01*
X2456Y1D01*
X2455Y1D01*
X2454Y1D01*
X2453Y1D01*
X2452Y1D01*
X2451Y1D01*
X2450Y1D01*
X2449Y1D01*
X2448Y1D01*
X2447Y1D01*
X2446Y1D01*
X2445Y1D01*
X2444Y1D01*
X2443Y1D01*
X2442Y1D01*
X2441Y1D01*
X2440Y1D01*
X2439Y1D01*
X2438Y1D01*
X2437Y1D01*
X2436Y1D01*
X2435Y1D01*
X2434Y1D01*
X2433Y1D01*
X2432Y1D01*
X2431Y1D01*
X2430Y1D01*
X2429Y1D01*
X2428Y1D01*
X2427Y1D01*
X2426Y1D01*
X2425Y1D01*
X2424Y1D01*
X2423Y1D01*
X2422Y1D01*
X2421Y1D01*
X2420Y1D01*
X2419Y1D01*
X2418Y1D01*
X2417Y1D01*
X2416Y1D01*
X2415Y1D01*
X2414Y1D01*
X2413Y1D01*
X2412Y1D01*
X2411Y1D01*
X2410Y1D01*
X2409Y1D01*
X2408Y1D01*
X2407Y1D01*
X2406Y1D01*
X2405Y1D01*
X2404Y1D01*
X2403Y1D01*
X2402Y1D01*
X2401Y1D01*
X2400Y1D01*
X2399Y1D01*
X2398Y1D01*
X2397Y1D01*
X2396Y1D01*
X2395Y1D01*
X2394Y1D01*
X2393Y1D01*
X2392Y1D01*
X2391Y1D01*
X2390Y1D01*
X2389Y1D01*
X2388Y1D01*
X2387Y1D01*
X2386Y1D01*
X2385Y1D01*
X2384Y1D01*
X2383Y1D01*
X2382Y1D01*
X2381Y1D01*
X2380Y1D01*
X2379Y1D01*
X2378Y1D01*
X2377Y1D01*
X2376Y1D01*
X2375Y1D01*
X2374Y1D01*
X2373Y1D01*
X2372Y1D01*
X2371Y1D01*
X2370Y1D01*
X2369Y1D01*
X2368Y1D01*
X2367Y1D01*
X2366Y1D01*
X2365Y1D01*
X2364Y1D01*
X2363Y1D01*
X2362Y1D01*
X2361Y1D01*
X2360Y1D01*
X2359Y1D01*
X2358Y1D01*
X2357Y1D01*
X2356Y1D01*
X2355Y1D01*
X2354Y1D01*
X2353Y1D01*
X2352Y1D01*
X2351Y1D01*
X2350Y1D01*
X2349Y1D01*
X2348Y1D01*
X2347Y1D01*
X2346Y1D01*
X2345Y1D01*
X2344Y1D01*
X2343Y1D01*
X2342Y1D01*
X2341Y1D01*
X2340Y1D01*
X2339Y1D01*
X2338Y1D01*
X2337Y1D01*
X2336Y1D01*
X2335Y1D01*
X2334Y1D01*
X2333Y1D01*
X2332Y1D01*
X2331Y1D01*
X2330Y1D01*
X2329Y1D01*
X2328Y1D01*
X2327Y1D01*
X2326Y1D01*
X2325Y1D01*
X2324Y1D01*
X2323Y1D01*
X2322Y1D01*
X2321Y1D01*
X2320Y1D01*
X2319Y1D01*
X2318Y1D01*
X2317Y1D01*
X2316Y1D01*
X2315Y1D01*
X2314Y1D01*
X2313Y1D01*
X2312Y1D01*
X2311Y1D01*
X2310Y1D01*
X2309Y1D01*
X2308Y1D01*
X2307Y1D01*
X2306Y1D01*
X2305Y1D01*
X2304Y1D01*
X2303Y1D01*
X2302Y1D01*
X2301Y1D01*
X2300Y1D01*
X2299Y1D01*
X2298Y1D01*
X2297Y1D01*
X2296Y1D01*
X2295Y1D01*
X2294Y1D01*
X2293Y1D01*
X2292Y1D01*
X2291Y1D01*
X2290Y1D01*
X2289Y1D01*
X2288Y1D01*
X2287Y1D01*
X2286Y1D01*
X2285Y1D01*
X2284Y1D01*
X2283Y1D01*
X2282Y1D01*
X2281Y1D01*
X2280Y1D01*
X2279Y1D01*
X2278Y1D01*
X2277Y1D01*
X2276Y1D01*
X2275Y1D01*
X2274Y1D01*
X2273Y1D01*
X2272Y1D01*
X2271Y1D01*
X2270Y1D01*
X2269Y1D01*
X2268Y1D01*
X2267Y1D01*
X2266Y1D01*
X2265Y1D01*
X2264Y1D01*
X2263Y1D01*
X2262Y1D01*
X2261Y1D01*
X2260Y1D01*
X2259Y1D01*
X2258Y1D01*
X2257Y1D01*
X2256Y1D01*
X2255Y1D01*
X2254Y1D01*
X2253Y1D01*
X2252Y1D01*
X2251Y1D01*
X2250Y1D01*
X2249Y1D01*
X2248Y1D01*
X2247Y1D01*
X2246Y1D01*
X2245Y1D01*
X2244Y1D01*
X2243Y1D01*
X2242Y1D01*
X2241Y1D01*
X2240Y1D01*
X2239Y1D01*
X2238Y1D01*
X2237Y1D01*
X2236Y1D01*
X2235Y1D01*
X2234Y1D01*
X2233Y1D01*
X2232Y1D01*
X2231Y1D01*
X2230Y1D01*
X2229Y1D01*
X2228Y1D01*
X2227Y1D01*
X2226Y1D01*
X2225Y1D01*
X2224Y1D01*
X2223Y1D01*
X2222Y1D01*
X2221Y1D01*
X2220Y1D01*
X2219Y1D01*
X2218Y1D01*
X2217Y1D01*
X2216Y1D01*
X2215Y1D01*
X2214Y1D01*
X2213Y1D01*
X2212Y1D01*
X2211Y1D01*
X2210Y1D01*
X2209Y1D01*
X2208Y1D01*
X2207Y1D01*
X2206Y1D01*
X2205Y1D01*
X2204Y1D01*
X2203Y1D01*
X2202Y1D01*
X2201Y1D01*
X2200Y1D01*
X2199Y1D01*
X2198Y1D01*
X2197Y1D01*
X2196Y1D01*
X2195Y1D01*
X2194Y1D01*
X2193Y1D01*
X2192Y1D01*
X2191Y1D01*
X2190Y1D01*
X2189Y1D01*
X2188Y1D01*
X2187Y1D01*
X2186Y1D01*
X2185Y1D01*
X2184Y1D01*
X2183Y1D01*
X2182Y1D01*
X2181Y1D01*
X2180Y1D01*
X2179Y1D01*
X2178Y1D01*
X2177Y1D01*
X2176Y1D01*
X2175Y1D01*
X2174Y1D01*
X2173Y1D01*
X2172Y1D01*
X2171Y1D01*
X2170Y1D01*
X2169Y1D01*
X2168Y1D01*
X2167Y1D01*
X2166Y1D01*
X2165Y1D01*
X2164Y1D01*
X2163Y1D01*
X2162Y1D01*
X2161Y1D01*
X2160Y1D01*
X2159Y1D01*
X2158Y1D01*
X2157Y1D01*
X2156Y1D01*
X2155Y1D01*
X2154Y1D01*
X2153Y1D01*
X2152Y1D01*
X2151Y1D01*
X2150Y1D01*
X2149Y1D01*
X2148Y1D01*
X2147Y1D01*
X2146Y1D01*
X2145Y1D01*
X2144Y1D01*
X2143Y1D01*
X2142Y1D01*
X2141Y1D01*
X2140Y1D01*
X2139Y1D01*
X2138Y1D01*
X2137Y1D01*
X2136Y1D01*
X2135Y1D01*
X2134Y1D01*
X2133Y1D01*
X2132Y1D01*
X2131Y1D01*
X2130Y1D01*
X2129Y1D01*
X2128Y1D01*
X2127Y1D01*
X2126Y1D01*
X2125Y1D01*
X2124Y1D01*
X2123Y1D01*
X2122Y1D01*
X2121Y1D01*
X2120Y1D01*
X2119Y1D01*
X2118Y1D01*
X2117Y1D01*
X2116Y1D01*
X2115Y1D01*
X2114Y1D01*
X2113Y1D01*
X2112Y1D01*
X2111Y1D01*
X2110Y1D01*
X2109Y1D01*
X2108Y1D01*
X2107Y1D01*
X2106Y1D01*
X2105Y1D01*
X2104Y1D01*
X2103Y1D01*
X2102Y1D01*
X2101Y1D01*
X2100Y1D01*
X2099Y1D01*
X2098Y1D01*
X2097Y1D01*
X2096Y1D01*
X2095Y1D01*
X2094Y1D01*
X2093Y1D01*
X2092Y1D01*
X2091Y1D01*
X2090Y1D01*
X2089Y1D01*
X2088Y1D01*
X2087Y1D01*
X2086Y1D01*
X2085Y1D01*
X2084Y1D01*
X2083Y1D01*
X2082Y1D01*
X2081Y1D01*
X2080Y1D01*
X2079Y1D01*
X2078Y1D01*
X2077Y1D01*
X2076Y1D01*
X2075Y1D01*
X2074Y1D01*
X2073Y1D01*
X2072Y1D01*
X2071Y1D01*
X2070Y1D01*
X2069Y1D01*
X2068Y1D01*
X2067Y1D01*
X2066Y1D01*
X2065Y1D01*
X2064Y1D01*
X2063Y1D01*
X2062Y1D01*
X2061Y1D01*
X2060Y1D01*
X2059Y1D01*
X2058Y1D01*
X2057Y1D01*
X2056Y1D01*
X2055Y1D01*
X2054Y1D01*
X2053Y1D01*
X2052Y1D01*
X2051Y1D01*
X2050Y1D01*
X2049Y1D01*
X2048Y1D01*
X2047Y1D01*
X2046Y1D01*
X2045Y1D01*
X2044Y1D01*
X2043Y1D01*
X2042Y1D01*
X2041Y1D01*
X2040Y1D01*
X2039Y1D01*
X2038Y1D01*
X2037Y1D01*
X2036Y1D01*
X2035Y1D01*
X2034Y1D01*
X2033Y1D01*
X2032Y1D01*
X2031Y1D01*
X2030Y1D01*
X2029Y1D01*
X2028Y1D01*
X2027Y1D01*
X2026Y1D01*
X2025Y1D01*
X2024Y1D01*
X2023Y1D01*
X2022Y1D01*
X2021Y1D01*
X2020Y1D01*
X2019Y1D01*
X2018Y1D01*
X2017Y1D01*
X2016Y1D01*
X2015Y1D01*
X2014Y1D01*
X2013Y1D01*
X2012Y1D01*
X2011Y1D01*
X2010Y1D01*
X2009Y1D01*
X2008Y1D01*
X2007Y1D01*
X2006Y1D01*
X2005Y1D01*
X2004Y1D01*
X2003Y1D01*
X2002Y1D01*
X2001Y1D01*
X2000Y1D01*
X1999Y1D01*
X1998Y1D01*
X1997Y1D01*
X1996Y1D01*
X1995Y1D01*
X1994Y1D01*
X1993Y1D01*
X1992Y1D01*
X1991Y1D01*
X1990Y1D01*
X1989Y1D01*
X1988Y1D01*
X1987Y1D01*
X1986Y1D01*
X1985Y1D01*
X1984Y1D01*
X1983Y1D01*
X1982Y1D01*
X1981Y1D01*
X1980Y1D01*
X1979Y1D01*
X1978Y1D01*
X1977Y1D01*
X1976Y1D01*
X1975Y1D01*
X1974Y1D01*
X1973Y1D01*
X1972Y1D01*
X1971Y1D01*
X1970Y1D01*
X1969Y1D01*
X1968Y1D01*
X1967Y1D01*
X1966Y1D01*
X1965Y1D01*
X1964Y1D01*
X1963Y1D01*
X1962Y1D01*
X1961Y1D01*
X1960Y1D01*
X1959Y1D01*
X1958Y1D01*
X1957Y1D01*
X1956Y1D01*
X1955Y1D01*
X1954Y1D01*
X1953Y1D01*
X1952Y1D01*
X1951Y1D01*
X1950Y1D01*
X1949Y1D01*
X1948Y1D01*
X1947Y1D01*
X1946Y1D01*
X1945Y1D01*
X1944Y1D01*
X1943Y1D01*
X1942Y1D01*
X1941Y1D01*
X1940Y1D01*
X1939Y1D01*
X1938Y1D01*
X1937Y1D01*
X1936Y1D01*
X1935Y1D01*
X1934Y1D01*
X1933Y1D01*
X1932Y1D01*
X1931Y1D01*
X1930Y1D01*
X1929Y1D01*
X1928Y1D01*
X1927Y1D01*
X1926Y1D01*
X1925Y1D01*
X1924Y1D01*
X1923Y1D01*
X1922Y1D01*
X1921Y1D01*
X1920Y1D01*
X1919Y1D01*
X1918Y1D01*
X1917Y1D01*
X1916Y1D01*
X1915Y1D01*
X1914Y1D01*
X1913Y1D01*
X1912Y1D01*
X1911Y1D01*
X1910Y1D01*
X1909Y1D01*
X1908Y1D01*
X1907Y1D01*
X1906Y1D01*
X1905Y1D01*
X1904Y1D01*
X1903Y1D01*
X1902Y1D01*
X1901Y1D01*
X1900Y1D01*
X1899Y1D01*
X1898Y1D01*
X1897Y1D01*
X1896Y1D01*
X1895Y1D01*
X1894Y1D01*
X1893Y1D01*
X1892Y1D01*
X1891Y1D01*
X1890Y1D01*
X1889Y1D01*
X1888Y1D01*
X1887Y1D01*
X1886Y1D01*
X1885Y1D01*
X1884Y1D01*
X1883Y1D01*
X1882Y1D01*
X1881Y1D01*
X1880Y1D01*
X1879Y1D01*
X1878Y1D01*
X1877Y1D01*
X1876Y1D01*
X1875Y1D01*
X1874Y1D01*
X1873Y1D01*
X1872Y1D01*
X1871Y1D01*
X1870Y1D01*
X1869Y1D01*
X1868Y1D01*
X1867Y1D01*
X1866Y1D01*
X1865Y1D01*
X1864Y1D01*
X1863Y1D01*
X1862Y1D01*
X1861Y1D01*
X1860Y1D01*
X1859Y1D01*
X1858Y1D01*
X1857Y1D01*
X1856Y1D01*
X1855Y1D01*
X1854Y1D01*
X1853Y1D01*
X1852Y1D01*
X1851Y1D01*
X1850Y1D01*
X1849Y1D01*
X1848Y1D01*
X1847Y1D01*
X1846Y1D01*
X1845Y1D01*
X1844Y1D01*
X1843Y1D01*
X1842Y1D01*
X1841Y1D01*
X1840Y1D01*
X1839Y1D01*
X1838Y1D01*
X1837Y1D01*
X1836Y1D01*
X1835Y1D01*
X1834Y1D01*
X1833Y1D01*
X1832Y1D01*
X1831Y1D01*
X1830Y1D01*
X1829Y1D01*
X1828Y1D01*
X1827Y1D01*
X1826Y1D01*
X1825Y1D01*
X1824Y1D01*
X1823Y1D01*
X1822Y1D01*
X1821Y1D01*
X1820Y1D01*
X1819Y1D01*
X1818Y1D01*
X1817Y1D01*
X1816Y1D01*
X1815Y1D01*
X1814Y1D01*
X1813Y1D01*
X1812Y1D01*
X1811Y1D01*
X1810Y1D01*
X1809Y1D01*
X1808Y1D01*
X1807Y1D01*
X1806Y1D01*
X1805Y1D01*
X1804Y1D01*
X1803Y1D01*
X1802Y1D01*
X1801Y1D01*
X1800Y1D01*
X1799Y1D01*
X1798Y1D01*
X1797Y1D01*
X1796Y1D01*
X1795Y1D01*
X1794Y1D01*
X1793Y1D01*
X1792Y1D01*
X1791Y1D01*
X1790Y1D01*
X1789Y1D01*
X1788Y1D01*
X1787Y1D01*
X1786Y1D01*
X1785Y1D01*
X1784Y1D01*
X1783Y1D01*
X1782Y1D01*
X1781Y1D01*
X1780Y1D01*
X1779Y1D01*
X1778Y1D01*
X1777Y1D01*
X1776Y1D01*
X1775Y1D01*
X1774Y1D01*
X1773Y1D01*
X1772Y1D01*
X1771Y1D01*
X1770Y1D01*
X1769Y1D01*
X1768Y1D01*
X1767Y1D01*
X1766Y1D01*
X1765Y1D01*
X1764Y1D01*
X1763Y1D01*
X1762Y1D01*
X1761Y1D01*
X1760Y1D01*
X1759Y1D01*
X1758Y1D01*
X1757Y1D01*
X1756Y1D01*
X1755Y1D01*
X1754Y1D01*
X1753Y1D01*
X1752Y1D01*
X1751Y1D01*
X1750Y1D01*
X1749Y1D01*
X1748Y1D01*
X1747Y1D01*
X1746Y1D01*
X1745Y1D01*
X1744Y1D01*
X1743Y1D01*
X1742Y1D01*
X1741Y1D01*
X1740Y1D01*
X1739Y1D01*
X1738Y1D01*
X1737Y1D01*
X1736Y1D01*
X1735Y1D01*
X1734Y1D01*
X1733Y1D01*
X1732Y1D01*
X1731Y1D01*
X1730Y1D01*
X1729Y1D01*
X1728Y1D01*
X1727Y1D01*
X1726Y1D01*
X1725Y1D01*
X1724Y1D01*
X1723Y1D01*
X1722Y1D01*
X1721Y1D01*
X1720Y1D01*
X1719Y1D01*
X1718Y1D01*
X1717Y1D01*
X1716Y1D01*
X1715Y1D01*
X1714Y1D01*
X1713Y1D01*
X1712Y1D01*
X1711Y1D01*
X1710Y1D01*
X1709Y1D01*
X1708Y1D01*
X1707Y1D01*
X1706Y1D01*
X1705Y1D01*
X1704Y1D01*
X1703Y1D01*
X1702Y1D01*
X1701Y1D01*
X1700Y1D01*
X1699Y1D01*
X1698Y1D01*
X1697Y1D01*
X1696Y1D01*
X1695Y1D01*
X1694Y1D01*
X1693Y1D01*
X1692Y1D01*
X1691Y1D01*
X1690Y1D01*
X1689Y1D01*
X1688Y1D01*
X1687Y1D01*
X1686Y1D01*
X1685Y1D01*
X1684Y1D01*
X1683Y1D01*
X1682Y1D01*
X1681Y1D01*
X1680Y1D01*
X1679Y1D01*
X1678Y1D01*
X1677Y1D01*
X1676Y1D01*
X1675Y1D01*
X1674Y1D01*
X1673Y1D01*
X1672Y1D01*
X1671Y1D01*
X1670Y1D01*
X1669Y1D01*
X1668Y1D01*
X1667Y1D01*
X1666Y1D01*
X1665Y1D01*
X1664Y1D01*
X1663Y1D01*
X1662Y1D01*
X1661Y1D01*
X1660Y1D01*
X1659Y1D01*
X1658Y1D01*
X1657Y1D01*
X1656Y1D01*
X1655Y1D01*
X1654Y1D01*
X1653Y1D01*
X1652Y1D01*
X1651Y1D01*
X1650Y1D01*
X1649Y1D01*
X1648Y1D01*
X1647Y1D01*
X1646Y1D01*
X1645Y1D01*
X1644Y1D01*
X1643Y1D01*
X1642Y1D01*
X1641Y1D01*
X1640Y1D01*
X1639Y1D01*
X1638Y1D01*
X1637Y1D01*
X1636Y1D01*
X1635Y1D01*
X1634Y1D01*
X1633Y1D01*
X1632Y1D01*
X1631Y1D01*
X1630Y1D01*
X1629Y1D01*
X1628Y1D01*
X1627Y1D01*
X1626Y1D01*
X1625Y1D01*
X1624Y1D01*
X1623Y1D01*
X1622Y1D01*
X1621Y1D01*
X1620Y1D01*
X1619Y1D01*
X1618Y1D01*
X1617Y1D01*
X1616Y1D01*
X1615Y1D01*
X1614Y1D01*
X1613Y1D01*
X1612Y1D01*
X1611Y1D01*
X1610Y1D01*
X1609Y1D01*
X1608Y1D01*
X1607Y1D01*
X1606Y1D01*
X1605Y1D01*
X1604Y1D01*
X1603Y1D01*
X1602Y1D01*
X1601Y1D01*
X1600Y1D01*
X1599Y1D01*
X1598Y1D01*
X1597Y1D01*
X1596Y1D01*
X1595Y1D01*
X1594Y1D01*
X1593Y1D01*
X1592Y1D01*
X1591Y1D01*
X1590Y1D01*
X1589Y1D01*
X1588Y1D01*
X1587Y1D01*
X1586Y1D01*
X1585Y1D01*
X1584Y1D01*
X1583Y1D01*
X1582Y1D01*
X1581Y1D01*
X1580Y1D01*
X1579Y1D01*
X1578Y1D01*
X1577Y1D01*
X1576Y1D01*
X1575Y1D01*
X1574Y1D01*
X1573Y1D01*
X1572Y1D01*
X1571Y1D01*
X1570Y1D01*
X1569Y1D01*
X1568Y1D01*
X1567Y1D01*
X1566Y1D01*
X1565Y1D01*
X1564Y1D01*
X1563Y1D01*
X1562Y1D01*
X1561Y1D01*
X1560Y1D01*
X1559Y1D01*
X1558Y1D01*
X1557Y1D01*
X1556Y1D01*
X1555Y1D01*
X1554Y1D01*
X1553Y1D01*
X1552Y1D01*
X1551Y1D01*
X1550Y1D01*
X1549Y1D01*
X1548Y1D01*
X1547Y1D01*
X1546Y1D01*
X1545Y1D01*
X1544Y1D01*
X1543Y1D01*
X1542Y1D01*
X1541Y1D01*
X1540Y1D01*
X1539Y1D01*
X1538Y1D01*
X1537Y1D01*
X1536Y1D01*
X1535Y1D01*
X1534Y1D01*
X1533Y1D01*
X1532Y1D01*
X1531Y1D01*
X1530Y1D01*
X1529Y1D01*
X1528Y1D01*
X1527Y1D01*
X1526Y1D01*
X1525Y1D01*
X1524Y1D01*
X1523Y1D01*
X1522Y1D01*
X1521Y1D01*
X1520Y1D01*
X1519Y1D01*
X1518Y1D01*
X1517Y1D01*
X1516Y1D01*
X1515Y1D01*
X1514Y1D01*
X1513Y1D01*
X1512Y1D01*
X1511Y1D01*
X1510Y1D01*
X1509Y1D01*
X1508Y1D01*
X1507Y1D01*
X1506Y1D01*
X1505Y1D01*
X1504Y1D01*
X1503Y1D01*
X1502Y1D01*
X1501Y1D01*
X1500Y1D01*
X1499Y1D01*
X1498Y1D01*
X1497Y1D01*
X1496Y1D01*
X1495Y1D01*
X1494Y1D01*
X1493Y1D01*
X1492Y1D01*
X1491Y1D01*
X1490Y1D01*
X1489Y1D01*
X1488Y1D01*
X1487Y1D01*
X1486Y1D01*
X1485Y1D01*
X1484Y1D01*
X1483Y1D01*
X1482Y1D01*
X1481Y1D01*
X1480Y1D01*
X1479Y1D01*
X1478Y1D01*
X1477Y1D01*
X1476Y1D01*
X1475Y1D01*
X1474Y1D01*
X1473Y1D01*
X1472Y1D01*
X1471Y1D01*
X1470Y1D01*
X1469Y1D01*
X1468Y1D01*
X1467Y1D01*
X1466Y1D01*
X1465Y1D01*
X1464Y1D01*
X1463Y1D01*
X1462Y1D01*
X1461Y1D01*
X1460Y1D01*
X1459Y1D01*
X1458Y1D01*
X1457Y1D01*
X1456Y1D01*
X1455Y1D01*
X1454Y1D01*
X1453Y1D01*
X1452Y1D01*
X1451Y1D01*
X1450Y1D01*
X1449Y1D01*
X1448Y1D01*
X1447Y1D01*
X1446Y1D01*
X1445Y1D01*
X1444Y1D01*
X1443Y1D01*
X1442Y1D01*
X1441Y1D01*
X1440Y1D01*
X1439Y1D01*
X1438Y1D01*
X1437Y1D01*
X1436Y1D01*
X1435Y1D01*
X1434Y1D01*
X1433Y1D01*
X1432Y1D01*
X1431Y1D01*
X1430Y1D01*
X1429Y1D01*
X1428Y1D01*
X1427Y1D01*
X1426Y1D01*
X1425Y1D01*
X1424Y1D01*
X1423Y1D01*
X1422Y1D01*
X1421Y1D01*
X1420Y1D01*
X1419Y1D01*
X1418Y1D01*
X1417Y1D01*
X1416Y1D01*
X1415Y1D01*
X1414Y1D01*
X1413Y1D01*
X1412Y1D01*
X1411Y1D01*
X1410Y1D01*
X1409Y1D01*
X1408Y1D01*
X1407Y1D01*
X1406Y1D01*
X1405Y1D01*
X1404Y1D01*
X1403Y1D01*
X1402Y1D01*
X1401Y1D01*
X1400Y1D01*
X1399Y1D01*
X1398Y1D01*
X1397Y1D01*
X1396Y1D01*
X1395Y1D01*
X1394Y1D01*
X1393Y1D01*
X1392Y1D01*
X1391Y1D01*
X1390Y1D01*
X1389Y1D01*
X1388Y1D01*
X1387Y1D01*
X1386Y1D01*
X1385Y1D01*
X1384Y1D01*
X1383Y1D01*
X1382Y1D01*
X1381Y1D01*
X1380Y1D01*
X1379Y1D01*
X1378Y1D01*
X1377Y1D01*
X1376Y1D01*
X1375Y1D01*
X1374Y1D01*
X1373Y1D01*
X1372Y1D01*
X1371Y1D01*
X1370Y1D01*
X1369Y1D01*
X1368Y1D01*
X1367Y1D01*
X1366Y1D01*
X1365Y1D01*
X1364Y1D01*
X1363Y1D01*
X1362Y1D01*
X1361Y1D01*
X1360Y1D01*
X1359Y1D01*
X1358Y1D01*
X1357Y1D01*
X1356Y1D01*
X1355Y1D01*
X1354Y1D01*
X1353Y1D01*
X1352Y1D01*
X1351Y1D01*
X1350Y1D01*
X1349Y1D01*
X1348Y1D01*
X1347Y1D01*
X1346Y1D01*
X1345Y1D01*
X1344Y1D01*
X1343Y1D01*
X1342Y1D01*
X1341Y1D01*
X1340Y1D01*
X1339Y1D01*
X1338Y1D01*
X1337Y1D01*
X1336Y1D01*
X1335Y1D01*
X1334Y1D01*
X1333Y1D01*
X1332Y1D01*
X1331Y1D01*
X1330Y1D01*
X1329Y1D01*
X1328Y1D01*
X1327Y1D01*
X1326Y1D01*
X1325Y1D01*
X1324Y1D01*
X1323Y1D01*
X1322Y1D01*
X1321Y1D01*
X1320Y1D01*
X1319Y1D01*
X1318Y1D01*
X1317Y1D01*
X1316Y1D01*
X1315Y1D01*
X1314Y1D01*
X1313Y1D01*
X1312Y1D01*
X1311Y1D01*
X1310Y1D01*
X1309Y1D01*
X1308Y1D01*
X1307Y1D01*
X1306Y1D01*
X1305Y1D01*
X1304Y1D01*
X1303Y1D01*
X1302Y1D01*
X1301Y1D01*
X1300Y1D01*
X1299Y1D01*
X1298Y1D01*
X1297Y1D01*
X1296Y1D01*
X1295Y1D01*
X1294Y1D01*
X1293Y1D01*
X1292Y1D01*
X1291Y1D01*
X1290Y1D01*
X1289Y1D01*
X1288Y1D01*
X1287Y1D01*
X1286Y1D01*
X1285Y1D01*
X1284Y1D01*
X1283Y1D01*
X1282Y1D01*
X1281Y1D01*
X1280Y1D01*
X1279Y1D01*
X1278Y1D01*
X1277Y1D01*
X1276Y1D01*
X1275Y1D01*
X1274Y1D01*
X1273Y1D01*
X1272Y1D01*
X1271Y1D01*
X1270Y1D01*
X1269Y1D01*
X1268Y1D01*
X1267Y1D01*
X1266Y1D01*
X1265Y1D01*
X1264Y1D01*
X1263Y1D01*
X1262Y1D01*
X1261Y1D01*
X1260Y1D01*
X1259Y1D01*
X1258Y1D01*
X1257Y1D01*
X1256Y1D01*
X1255Y1D01*
X1254Y1D01*
X1253Y1D01*
X1252Y1D01*
X1251Y1D01*
X1250Y1D01*
X1249Y1D01*
X1248Y1D01*
X1247Y1D01*
X1246Y1D01*
X1245Y1D01*
X1244Y1D01*
X1243Y1D01*
X1242Y1D01*
X1241Y1D01*
X1240Y1D01*
X1239Y1D01*
X1238Y1D01*
X1237Y1D01*
X1236Y1D01*
X1235Y1D01*
X1234Y1D01*
X1233Y1D01*
X1232Y1D01*
X1231Y1D01*
X1230Y1D01*
X1229Y1D01*
X1228Y1D01*
X1227Y1D01*
X1226Y1D01*
X1225Y1D01*
X1224Y1D01*
X1223Y1D01*
X1222Y1D01*
X1221Y1D01*
X1220Y1D01*
X1219Y1D01*
X1218Y1D01*
X1217Y1D01*
X1216Y1D01*
X1215Y1D01*
X1214Y1D01*
X1213Y1D01*
X1212Y1D01*
X1211Y1D01*
X1210Y1D01*
X1209Y1D01*
X1208Y1D01*
X1207Y1D01*
X1206Y1D01*
X1205Y1D01*
X1204Y1D01*
X1203Y1D01*
X1202Y1D01*
X1201Y1D01*
X1200Y1D01*
X1199Y1D01*
X1198Y1D01*
X1197Y1D01*
X1196Y1D01*
X1195Y1D01*
X1194Y1D01*
X1193Y1D01*
X1192Y1D01*
X1191Y1D01*
X1190Y1D01*
X1189Y1D01*
X1188Y1D01*
X1187Y1D01*
X1186Y1D01*
X1185Y1D01*
X1184Y1D01*
X1183Y1D01*
X1182Y1D01*
X1181Y1D01*
X1180Y1D01*
X1179Y1D01*
X1178Y1D01*
X1177Y1D01*
X1176Y1D01*
X1175Y1D01*
X1174Y1D01*
X1173Y1D01*
X1172Y1D01*
X1171Y1D01*
X1170Y1D01*
X1169Y1D01*
X1168Y1D01*
X1167Y1D01*
X1166Y1D01*
X1165Y1D01*
X1164Y1D01*
X1163Y1D01*
X1162Y1D01*
X1161Y1D01*
X1160Y1D01*
X1159Y1D01*
X1158Y1D01*
X1157Y1D01*
X1156Y1D01*
X1155Y1D01*
X1154Y1D01*
X1153Y1D01*
X1152Y1D01*
X1151Y1D01*
X1150Y1D01*
X1149Y1D01*
X1148Y1D01*
X1147Y1D01*
X1146Y1D01*
X1145Y1D01*
X1144Y1D01*
X1143Y1D01*
X1142Y1D01*
X1141Y1D01*
X1140Y1D01*
X1139Y1D01*
X1138Y1D01*
X1137Y1D01*
X1136Y1D01*
X1135Y1D01*
X1134Y1D01*
X1133Y1D01*
X1132Y1D01*
X1131Y1D01*
X1130Y1D01*
X1129Y1D01*
X1128Y1D01*
X1127Y1D01*
X1126Y1D01*
X1125Y1D01*
X1124Y1D01*
X1123Y1D01*
X1122Y1D01*
X1121Y1D01*
X1120Y1D01*
X1119Y1D01*
X1118Y1D01*
X1117Y1D01*
X1116Y1D01*
X1115Y1D01*
X1114Y1D01*
X1113Y1D01*
X1112Y1D01*
X1111Y1D01*
X1110Y1D01*
X1109Y1D01*
X1108Y1D01*
X1107Y1D01*
X1106Y1D01*
X1105Y1D01*
X1104Y1D01*
X1103Y1D01*
X1102Y1D01*
X1101Y1D01*
X1100Y1D01*
X1099Y1D01*
X1098Y1D01*
X1097Y1D01*
X1096Y1D01*
X1095Y1D01*
X1094Y1D01*
X1093Y1D01*
X1092Y1D01*
X1091Y1D01*
X1090Y1D01*
X1089Y1D01*
X1088Y1D01*
X1087Y1D01*
X1086Y1D01*
X1085Y1D01*
X1084Y1D01*
X1083Y1D01*
X1082Y1D01*
X1081Y1D01*
X1080Y1D01*
X1079Y1D01*
X1078Y1D01*
X1077Y1D01*
X1076Y1D01*
X1075Y1D01*
X1074Y1D01*
X1073Y1D01*
X1072Y1D01*
X1071Y1D01*
X1070Y1D01*
X1069Y1D01*
X1068Y1D01*
X1067Y1D01*
X1066Y1D01*
X1065Y1D01*
X1064Y1D01*
X1063Y1D01*
X1062Y1D01*
X1061Y1D01*
X1060Y1D01*
X1059Y1D01*
X1058Y1D01*
X1057Y1D01*
X1056Y1D01*
X1055Y1D01*
X1054Y1D01*
X1053Y1D01*
X1052Y1D01*
X1051Y1D01*
X1050Y1D01*
X1049Y1D01*
X1048Y1D01*
X1047Y1D01*
X1046Y1D01*
X1045Y1D01*
X1044Y1D01*
X1043Y1D01*
X1042Y1D01*
X1041Y1D01*
X1040Y1D01*
X1039Y1D01*
X1038Y1D01*
X1037Y1D01*
X1036Y1D01*
X1035Y1D01*
X1034Y1D01*
X1033Y1D01*
X1032Y1D01*
X1031Y1D01*
X1030Y1D01*
X1029Y1D01*
X1028Y1D01*
X1027Y1D01*
X1026Y1D01*
X1025Y1D01*
X1024Y1D01*
X1023Y1D01*
X1022Y1D01*
X1021Y1D01*
X1020Y1D01*
X1019Y1D01*
X1018Y1D01*
X1017Y1D01*
X1016Y1D01*
X1015Y1D01*
X1014Y1D01*
X1013Y1D01*
X1012Y1D01*
X1011Y1D01*
X1010Y1D01*
X1009Y1D01*
X1008Y1D01*
X1007Y1D01*
X1006Y1D01*
X1005Y1D01*
X1004Y1D01*
X1003Y1D01*
X1002Y1D01*
X1001Y1D01*
X1000Y1D01*
X999Y1D01*
X998Y1D01*
X997Y1D01*
X996Y1D01*
X995Y1D01*
X994Y1D01*
X993Y1D01*
X992Y1D01*
X991Y1D01*
X990Y1D01*
X989Y1D01*
X988Y1D01*
X987Y1D01*
X986Y1D01*
X985Y1D01*
X984Y1D01*
X983Y1D01*
X982Y1D01*
X981Y1D01*
X980Y1D01*
X979Y1D01*
X978Y1D01*
X977Y1D01*
X976Y1D01*
X975Y1D01*
X974Y1D01*
X973Y1D01*
X972Y1D01*
X971Y1D01*
X970Y1D01*
X969Y1D01*
X968Y1D01*
X967Y1D01*
X966Y1D01*
X965Y1D01*
X964Y1D01*
X963Y1D01*
X962Y1D01*
X961Y1D01*
X960Y1D01*
X959Y1D01*
X958Y1D01*
X957Y1D01*
X956Y1D01*
X955Y1D01*
X954Y1D01*
X953Y1D01*
X952Y1D01*
X951Y1D01*
X950Y1D01*
X949Y1D01*
X948Y1D01*
X947Y1D01*
X946Y1D01*
X945Y1D01*
X944Y1D01*
X943Y1D01*
X942Y1D01*
X941Y1D01*
X940Y1D01*
X939Y1D01*
X938Y1D01*
X937Y1D01*
X936Y1D01*
X935Y1D01*
X934Y1D01*
X933Y1D01*
X932Y1D01*
X931Y1D01*
X930Y1D01*
X929Y1D01*
X928Y1D01*
X927Y1D01*
X926Y1D01*
X925Y1D01*
X924Y1D01*
X923Y1D01*
X922Y1D01*
X921Y1D01*
X920Y1D01*
X919Y1D01*
X918Y1D01*
X917Y1D01*
X916Y1D01*
X915Y1D01*
X914Y1D01*
X913Y1D01*
X912Y1D01*
X911Y1D01*
X910Y1D01*
X909Y1D01*
X908Y1D01*
X907Y1D01*
X906Y1D01*
X905Y1D01*
X904Y1D01*
X903Y1D01*
X902Y1D01*
X901Y1D01*
X900Y1D01*
X899Y1D01*
X898Y1D01*
X897Y1D01*
X896Y1D01*
X895Y1D01*
X894Y1D01*
X893Y1D01*
X892Y1D01*
X891Y1D01*
X890Y1D01*
X889Y1D01*
X888Y1D01*
X887Y1D01*
X886Y1D01*
X885Y1D01*
X884Y1D01*
X883Y1D01*
X882Y1D01*
X881Y1D01*
X880Y1D01*
X879Y1D01*
X878Y1D01*
X877Y1D01*
X876Y1D01*
X875Y1D01*
X874Y1D01*
X873Y1D01*
X872Y1D01*
X871Y1D01*
X870Y1D01*
X869Y1D01*
X868Y1D01*
X867Y1D01*
X866Y1D01*
X865Y1D01*
X864Y1D01*
X863Y1D01*
X862Y1D01*
X861Y1D01*
X860Y1D01*
X859Y1D01*
X858Y1D01*
X857Y1D01*
X856Y1D01*
X855Y1D01*
X854Y1D01*
X853Y1D01*
X852Y1D01*
X851Y1D01*
X850Y1D01*
X849Y1D01*
X848Y1D01*
X847Y1D01*
X846Y1D01*
X845Y1D01*
X844Y1D01*
X843Y1D01*
X842Y1D01*
X841Y1D01*
X840Y1D01*
X839Y1D01*
X838Y1D01*
X837Y1D01*
X836Y1D01*
X835Y1D01*
X834Y1D01*
X833Y1D01*
X832Y1D01*
X831Y1D01*
X830Y1D01*
X829Y1D01*
X828Y1D01*
X827Y1D01*
X826Y1D01*
X825Y1D01*
X824Y1D01*
X823Y1D01*
X822Y1D01*
X821Y1D01*
X820Y1D01*
X819Y1D01*
X818Y1D01*
X817Y1D01*
X816Y1D01*
X815Y1D01*
X814Y1D01*
X813Y1D01*
X812Y1D01*
X811Y1D01*
X810Y1D01*
X809Y1D01*
X808Y1D01*
X807Y1D01*
X806Y1D01*
X805Y1D01*
X804Y1D01*
X803Y1D01*
X802Y1D01*
X801Y1D01*
X800Y1D01*
X799Y1D01*
X798Y1D01*
X797Y1D01*
X796Y1D01*
X795Y1D01*
X794Y1D01*
X793Y1D01*
X792Y1D01*
X791Y1D01*
X790Y1D01*
X789Y1D01*
X788Y1D01*
X787Y1D01*
X786Y1D01*
X785Y1D01*
X784Y1D01*
X783Y1D01*
X782Y1D01*
X781Y1D01*
X780Y1D01*
X779Y1D01*
X778Y1D01*
X777Y1D01*
X776Y1D01*
X775Y1D01*
X774Y1D01*
X773Y1D01*
X772Y1D01*
X771Y1D01*
X770Y1D01*
X769Y1D01*
X768Y1D01*
X767Y1D01*
X766Y1D01*
X765Y1D01*
X764Y1D01*
X763Y1D01*
X762Y1D01*
X761Y1D01*
X760Y1D01*
X759Y1D01*
X758Y1D01*
X757Y1D01*
X756Y1D01*
X755Y1D01*
X754Y1D01*
X753Y1D01*
X752Y1D01*
X751Y1D01*
X750Y1D01*
X749Y1D01*
X748Y1D01*
X747Y1D01*
X746Y1D01*
X745Y1D01*
X744Y1D01*
X743Y1D01*
X742Y1D01*
X741Y1D01*
X740Y1D01*
X739Y1D01*
X738Y1D01*
X737Y1D01*
X736Y1D01*
X735Y1D01*
X734Y1D01*
X733Y1D01*
X732Y1D01*
X731Y1D01*
X730Y1D01*
X729Y1D01*
X728Y1D01*
X727Y1D01*
X726Y1D01*
X725Y1D01*
X724Y1D01*
X723Y1D01*
X722Y1D01*
X721Y1D01*
X720Y1D01*
X719Y1D01*
X718Y1D01*
X717Y1D01*
X716Y1D01*
X715Y1D01*
X714Y1D01*
X713Y1D01*
X712Y1D01*
X711Y1D01*
X710Y1D01*
X709Y1D01*
X708Y1D01*
X707Y1D01*
X706Y1D01*
X705Y1D01*
X704Y1D01*
X703Y1D01*
X702Y1D01*
X701Y1D01*
X700Y1D01*
X699Y1D01*
X698Y1D01*
X697Y1D01*
X696Y1D01*
X695Y1D01*
X694Y1D01*
X693Y1D01*
X692Y1D01*
X691Y1D01*
X690Y1D01*
X689Y1D01*
X688Y1D01*
X687Y1D01*
X686Y1D01*
X685Y1D01*
X684Y1D01*
X683Y1D01*
X682Y1D01*
X681Y1D01*
X680Y1D01*
X679Y1D01*
X678Y1D01*
X677Y1D01*
X676Y1D01*
X675Y1D01*
X674Y1D01*
X673Y1D01*
X672Y1D01*
X671Y1D01*
X670Y1D01*
X669Y1D01*
X668Y1D01*
X667Y1D01*
X666Y1D01*
X665Y1D01*
X664Y1D01*
X663Y1D01*
X662Y1D01*
X661Y1D01*
X660Y1D01*
X659Y1D01*
X658Y1D01*
X657Y1D01*
X656Y1D01*
X655Y1D01*
X654Y1D01*
X653Y1D01*
X652Y1D01*
X651Y1D01*
X650Y1D01*
X649Y1D01*
X648Y1D01*
X647Y1D01*
X646Y1D01*
X645Y1D01*
X644Y1D01*
X643Y1D01*
X642Y1D01*
X641Y1D01*
X640Y1D01*
X639Y1D01*
X638Y1D01*
X637Y1D01*
X636Y1D01*
X635Y1D01*
X634Y1D01*
X633Y1D01*
X632Y1D01*
X631Y1D01*
X630Y1D01*
X629Y1D01*
X628Y1D01*
X627Y1D01*
X626Y1D01*
X625Y1D01*
X624Y1D01*
X623Y1D01*
X622Y1D01*
X621Y1D01*
X620Y1D01*
X619Y1D01*
X618Y1D01*
X617Y1D01*
X616Y1D01*
X615Y1D01*
X614Y1D01*
X613Y1D01*
X612Y1D01*
X611Y1D01*
X610Y1D01*
X609Y1D01*
X608Y1D01*
X607Y1D01*
X606Y1D01*
X605Y1D01*
X604Y1D01*
X603Y1D01*
X602Y1D01*
X601Y1D01*
X600Y1D01*
X599Y1D01*
X598Y1D01*
X597Y1D01*
X596Y1D01*
X595Y1D01*
X594Y1D01*
X593Y1D01*
X592Y1D01*
X591Y1D01*
X590Y1D01*
X589Y1D01*
X588Y1D01*
X587Y1D01*
X586Y1D01*
X585Y1D01*
X584Y1D01*
X583Y1D01*
X582Y1D01*
X581Y1D01*
X580Y1D01*
X579Y1D01*
X578Y1D01*
X577Y1D01*
X576Y1D01*
X575Y1D01*
X574Y1D01*
X573Y1D01*
X572Y1D01*
X571Y1D01*
X570Y1D01*
X569Y1D01*
X568Y1D01*
X567Y1D01*
X566Y1D01*
X565Y1D01*
X564Y1D01*
X563Y1D01*
X562Y1D01*
X561Y1D01*
X560Y1D01*
X559Y1D01*
X558Y1D01*
X557Y1D01*
X556Y1D01*
X555Y1D01*
X554Y1D01*
X553Y1D01*
X552Y1D01*
X551Y1D01*
X550Y1D01*
X549Y1D01*
X548Y1D01*
X547Y1D01*
X546Y1D01*
X545Y1D01*
X544Y1D01*
X543Y1D01*
X542Y1D01*
X541Y1D01*
X540Y1D01*
X539Y1D01*
X538Y1D01*
X537Y1D01*
X536Y1D01*
X535Y1D01*
X534Y1D01*
X533Y1D01*
X532Y1D01*
X531Y1D01*
X530Y1D01*
X529Y1D01*
X528Y1D01*
X527Y1D01*
X526Y1D01*
X525Y1D01*
X524Y1D01*
X523Y1D01*
X522Y1D01*
X521Y1D01*
X520Y1D01*
X519Y1D01*
X518Y1D01*
X517Y1D01*
X516Y1D01*
X515Y1D01*
X514Y1D01*
X513Y1D01*
X512Y1D01*
X511Y1D01*
X510Y1D01*
X509Y1D01*
X508Y1D01*
X507Y1D01*
X506Y1D01*
X505Y1D01*
X504Y1D01*
X503Y1D01*
X502Y1D01*
X501Y1D01*
X500Y1D01*
X499Y1D01*
X498Y1D01*
X497Y1D01*
X496Y1D01*
X495Y1D01*
X494Y1D01*
X493Y1D01*
X492Y1D01*
X491Y1D01*
X490Y1D01*
X489Y1D01*
X488Y1D01*
X487Y1D01*
X486Y1D01*
X485Y1D01*
X484Y1D01*
X483Y1D01*
X482Y1D01*
X481Y1D01*
X480Y1D01*
X479Y1D01*
X478Y1D01*
X477Y1D01*
X476Y1D01*
X475Y1D01*
X474Y1D01*
X473Y1D01*
X472Y1D01*
X471Y1D01*
X470Y1D01*
X469Y1D01*
X468Y1D01*
X467Y1D01*
X466Y1D01*
X465Y1D01*
X464Y1D01*
X463Y1D01*
X462Y1D01*
X461Y1D01*
X460Y1D01*
X459Y1D01*
X458Y1D01*
X457Y1D01*
X456Y1D01*
X455Y1D01*
X454Y1D01*
X453Y1D01*
X452Y1D01*
X451Y1D01*
X450Y1D01*
X449Y1D01*
X448Y1D01*
X447Y1D01*
X446Y1D01*
X445Y1D01*
X444Y1D01*
X443Y1D01*
X442Y1D01*
X441Y1D01*
X440Y1D01*
X439Y1D01*
X438Y1D01*
X437Y1D01*
X436Y1D01*
X435Y1D01*
X434Y1D01*
X433Y1D01*
X432Y1D01*
X431Y1D01*
X430Y1D01*
X429Y1D01*
X428Y1D01*
X427Y1D01*
X426Y1D01*
X425Y1D01*
X424Y1D01*
X423Y1D01*
X422Y1D01*
X421Y1D01*
X420Y1D01*
X419Y1D01*
X418Y1D01*
X417Y1D01*
X416Y1D01*
X415Y1D01*
X414Y1D01*
X413Y1D01*
X412Y1D01*
X411Y1D01*
X410Y1D01*
X409Y1D01*
X408Y1D01*
X407Y1D01*
X406Y1D01*
X405Y1D01*
X404Y1D01*
X403Y1D01*
X402Y1D01*
X401Y1D01*
X400Y1D01*
X399Y1D01*
X398Y1D01*
X397Y1D01*
X396Y1D01*
X395Y1D01*
X394Y1D01*
X393Y1D01*
X392Y1D01*
X391Y1D01*
X390Y1D01*
X389Y1D01*
X388Y1D01*
X387Y1D01*
X386Y1D01*
X385Y1D01*
X384Y1D01*
X383Y1D01*
X382Y1D01*
X381Y1D01*
X380Y1D01*
X379Y1D01*
X378Y1D01*
X377Y1D01*
X376Y1D01*
X375Y1D01*
X374Y1D01*
X373Y1D01*
X372Y1D01*
X371Y1D01*
X370Y1D01*
X369Y1D01*
X368Y1D01*
X367Y1D01*
X366Y1D01*
X365Y1D01*
X364Y1D01*
X363Y1D01*
X362Y1D01*
X361Y1D01*
X360Y1D01*
X359Y1D01*
X358Y1D01*
X357Y1D01*
X356Y1D01*
X355Y1D01*
X354Y1D01*
X353Y2D01*
X352Y2D01*
X351Y2D01*
X350Y2D01*
X349Y2D01*
X348Y2D01*
X347Y2D01*
X346Y2D01*
X345Y2D01*
X344Y2D01*
X343Y2D01*
X342Y2D01*
X341Y2D01*
X340Y2D01*
X339Y3D01*
X338Y3D01*
X337Y3D01*
X336Y3D01*
X335Y3D01*
X334Y3D01*
X333Y3D01*
X332Y3D01*
X331Y3D01*
X330Y4D01*
X329Y4D01*
X328Y4D01*
X327Y4D01*
X326Y4D01*
X325Y4D01*
X324Y4D01*
X323Y4D01*
X322Y5D01*
X321Y5D01*
X320Y5D01*
X319Y5D01*
X318Y5D01*
X317Y5D01*
X316Y5D01*
X315Y6D01*
X314Y6D01*
X313Y6D01*
X312Y6D01*
X311Y6D01*
X310Y6D01*
X309Y7D01*
X308Y7D01*
X307Y7D01*
X306Y7D01*
X305Y7D01*
X304Y8D01*
X303Y8D01*
X302Y8D01*
X301Y8D01*
X300Y8D01*
X299Y9D01*
X298Y9D01*
X297Y9D01*
X296Y9D01*
X295Y9D01*
X294Y10D01*
X293Y10D01*
X292Y10D01*
X291Y10D01*
X290Y10D01*
X289Y11D01*
X288Y11D01*
X287Y11D01*
X286Y11D01*
X285Y12D01*
X284Y12D01*
X283Y12D01*
X282Y12D01*
X281Y13D01*
X280Y13D01*
X279Y13D01*
X278Y14D01*
X277Y14D01*
X276Y14D01*
X275Y14D01*
X274Y15D01*
X273Y15D01*
X272Y15D01*
X271Y15D01*
X270Y16D01*
X269Y16D01*
X268Y16D01*
X267Y17D01*
X266Y17D01*
X265Y17D01*
X264Y18D01*
X263Y18D01*
X262Y18D01*
X261Y19D01*
X260Y19D01*
X259Y19D01*
X258Y20D01*
X257Y20D01*
X256Y20D01*
X255Y21D01*
X254Y21D01*
X253Y21D01*
X252Y22D01*
X251Y22D01*
X250Y22D01*
X249Y23D01*
X248Y23D01*
X247Y23D01*
X246Y24D01*
X245Y24D01*
X244Y25D01*
X243Y25D01*
X242Y25D01*
X241Y26D01*
X240Y26D01*
X239Y27D01*
X238Y27D01*
X237Y27D01*
X236Y28D01*
X235Y28D01*
X234Y29D01*
X233Y29D01*
X232Y29D01*
X231Y30D01*
X230Y30D01*
X229Y31D01*
X228Y31D01*
X227Y31D01*
X226Y32D01*
X225Y32D01*
X224Y33D01*
X223Y33D01*
X222Y34D01*
X221Y34D01*
X220Y35D01*
X219Y35D01*
X218Y36D01*
X217Y36D01*
X216Y37D01*
X215Y37D01*
X214Y38D01*
X213Y38D01*
X212Y38D01*
X211Y39D01*
X210Y39D01*
X209Y40D01*
X208Y41D01*
X207Y41D01*
X206Y42D01*
X205Y42D01*
X204Y43D01*
X203Y43D01*
X202Y44D01*
X201Y44D01*
X200Y45D01*
X199Y45D01*
X198Y46D01*
X197Y46D01*
X196Y47D01*
X195Y47D01*
X194Y48D01*
X193Y49D01*
X192Y49D01*
X191Y50D01*
X190Y50D01*
X189Y51D01*
X188Y52D01*
X187Y52D01*
X186Y53D01*
X185Y53D01*
X184Y54D01*
X183Y54D01*
X182Y55D01*
X181Y56D01*
X180Y56D01*
X179Y57D01*
X178Y58D01*
X177Y58D01*
X176Y59D01*
X175Y60D01*
X174Y60D01*
X173Y61D01*
X172Y61D01*
X171Y62D01*
X170Y63D01*
X169Y63D01*
X168Y64D01*
X167Y65D01*
X166Y65D01*
X165Y66D01*
X164Y67D01*
X163Y67D01*
X162Y68D01*
X161Y69D01*
X160Y70D01*
X159Y70D01*
X158Y71D01*
X157Y72D01*
X156Y73D01*
X155Y73D01*
X154Y74D01*
X153Y75D01*
X152Y76D01*
X151Y76D01*
X150Y77D01*
X149Y78D01*
X148Y79D01*
X147Y79D01*
X146Y80D01*
X145Y81D01*
X144Y82D01*
X143Y83D01*
X142Y83D01*
X141Y84D01*
X140Y85D01*
X139Y86D01*
X138Y87D01*
X137Y88D01*
X136Y88D01*
X135Y89D01*
X134Y90D01*
X133Y91D01*
X132Y92D01*
X131Y93D01*
X130Y94D01*
X129Y95D01*
X128Y95D01*
X127Y96D01*
X126Y97D01*
X125Y98D01*
X124Y99D01*
X123Y100D01*
X122Y101D01*
X121Y102D01*
X120Y103D01*
X119Y104D01*
X118Y105D01*
X117Y106D01*
X116Y107D01*
X115Y108D01*
X114Y109D01*
X113Y110D01*
X112Y111D01*
X111Y112D01*
X110Y113D01*
X109Y114D01*
X108Y115D01*
X107Y116D01*
X106Y117D01*
X105Y118D01*
X104Y119D01*
X103Y120D01*
X102Y121D01*
X101Y122D01*
X100Y123D01*
X99Y124D01*
X98Y125D01*
X98Y126D01*
X97Y127D01*
X96Y128D01*
X95Y129D01*
X94Y130D01*
X93Y131D01*
X92Y132D01*
X92Y133D01*
X91Y134D01*
X90Y135D01*
X89Y136D01*
X88Y137D01*
X87Y138D01*
X87Y139D01*
X86Y140D01*
X85Y141D01*
X84Y142D01*
X83Y143D01*
X83Y144D01*
X82Y145D01*
X81Y146D01*
X80Y147D01*
X80Y148D01*
X79Y149D01*
X78Y150D01*
X77Y151D01*
X77Y152D01*
X76Y153D01*
X75Y154D01*
X74Y155D01*
X74Y156D01*
X73Y157D01*
X72Y158D01*
X72Y159D01*
X71Y160D01*
X70Y161D01*
X69Y162D01*
X69Y163D01*
X68Y164D01*
X67Y165D01*
X67Y166D01*
X66Y167D01*
X65Y168D01*
X65Y169D01*
X64Y170D01*
X63Y171D01*
X63Y172D01*
X62Y173D01*
X61Y174D01*
X61Y175D01*
X60Y176D01*
X60Y177D01*
X59Y178D01*
X58Y179D01*
X58Y180D01*
X57Y181D01*
X57Y182D01*
X56Y183D01*
X55Y184D01*
X55Y185D01*
X54Y186D01*
X54Y187D01*
X53Y188D01*
X52Y189D01*
X52Y190D01*
X51Y191D01*
X51Y192D01*
X50Y193D01*
X50Y194D01*
X49Y195D01*
X49Y196D01*
X48Y197D01*
X47Y198D01*
X47Y199D01*
X46Y200D01*
X46Y201D01*
X45Y202D01*
X45Y203D01*
X44Y204D01*
X44Y205D01*
X43Y206D01*
X43Y207D01*
X42Y208D01*
X42Y209D01*
X41Y210D01*
X41Y211D01*
X40Y212D01*
X40Y213D01*
X39Y214D01*
X39Y215D01*
X38Y216D01*
X38Y217D01*
X37Y218D01*
X37Y219D01*
X36Y220D01*
X36Y221D01*
X35Y222D01*
X35Y224D01*
X34Y225D01*
X34Y226D01*
X33Y227D01*
X33Y228D01*
X32Y229D01*
X32Y231D01*
X31Y232D01*
X31Y233D01*
X30Y234D01*
X30Y235D01*
X29Y236D01*
X29Y238D01*
X28Y239D01*
X28Y240D01*
X27Y241D01*
X27Y243D01*
X26Y244D01*
X26Y246D01*
X25Y247D01*
X25Y248D01*
X24Y249D01*
X24Y251D01*
X23Y252D01*
X23Y253D01*
X22Y254D01*
X22Y257D01*
X21Y258D01*
X21Y260D01*
X20Y261D01*
X20Y263D01*
X19Y264D01*
X19Y266D01*
X18Y267D01*
X18Y269D01*
X17Y270D01*
X17Y272D01*
X16Y273D01*
X16Y276D01*
X15Y277D01*
X15Y279D01*
X14Y280D01*
X14Y283D01*
X13Y284D01*
X13Y286D01*
X12Y287D01*
X12Y290D01*
X11Y291D01*
X11Y295D01*
X10Y296D01*
X10Y299D01*
X9Y300D01*
X9Y304D01*
X8Y305D01*
X8Y308D01*
X7Y309D01*
X7Y314D01*
X6Y315D01*
X6Y319D01*
X5Y320D01*
X5Y326D01*
X4Y327D01*
X4Y333D01*
X3Y334D01*
X3Y341D01*
X2Y342D01*
X2Y351D01*
X1Y352D01*
X1Y365D01*
X0Y366D01*
X0Y3457D01*
X1Y3458D01*
X1Y3471D01*
X2Y3472D01*
X2Y3481D01*
X3Y3482D01*
X3Y3489D01*
X4Y3490D01*
X4Y3496D01*
X5Y3497D01*
X5Y3503D01*
X6Y3504D01*
X6Y3508D01*
X7Y3509D01*
X7Y3514D01*
X8Y3515D01*
X8Y3518D01*
X9Y3519D01*
X9Y3523D01*
X10Y3524D01*
X10Y3527D01*
X11Y3528D01*
X11Y3532D01*
X12Y3533D01*
X12Y3536D01*
X13Y3537D01*
X13Y3539D01*
X14Y3540D01*
X14Y3543D01*
X15Y3544D01*
X15Y3546D01*
X16Y3547D01*
X16Y3550D01*
X17Y3551D01*
X17Y3553D01*
X18Y3554D01*
X18Y3556D01*
X19Y3557D01*
X19Y3559D01*
X20Y3560D01*
X20Y3562D01*
X21Y3563D01*
X21Y3565D01*
X22Y3566D01*
X22Y3569D01*
X23Y3570D01*
X23Y3571D01*
X24Y3572D01*
X24Y3574D01*
X25Y3575D01*
X25Y3576D01*
X26Y3577D01*
X26Y3579D01*
X27Y3580D01*
X27Y3582D01*
X28Y3583D01*
X28Y3584D01*
X29Y3585D01*
X29Y3587D01*
X30Y3588D01*
X30Y3589D01*
X31Y3590D01*
X31Y3591D01*
X32Y3592D01*
X32Y3594D01*
X33Y3595D01*
X33Y3596D01*
X34Y3597D01*
X34Y3598D01*
X35Y3599D01*
X35Y3601D01*
X36Y3602D01*
X36Y3603D01*
X37Y3604D01*
X37Y3605D01*
X38Y3606D01*
X38Y3607D01*
X39Y3608D01*
X39Y3609D01*
X40Y3610D01*
X40Y3611D01*
X41Y3612D01*
X41Y3613D01*
X42Y3614D01*
X42Y3615D01*
X43Y3616D01*
X43Y3617D01*
X44Y3618D01*
X44Y3619D01*
X45Y3620D01*
X45Y3621D01*
X46Y3622D01*
X46Y3623D01*
X47Y3624D01*
X47Y3625D01*
X48Y3626D01*
X49Y3627D01*
X49Y3628D01*
X50Y3629D01*
X50Y3630D01*
X51Y3631D01*
X51Y3632D01*
X52Y3633D01*
X52Y3634D01*
X53Y3635D01*
X54Y3636D01*
X54Y3637D01*
X55Y3638D01*
X55Y3639D01*
X56Y3640D01*
X57Y3641D01*
X57Y3642D01*
X58Y3643D01*
X58Y3644D01*
X59Y3645D01*
X60Y3646D01*
X60Y3647D01*
X61Y3648D01*
X61Y3649D01*
X62Y3650D01*
X63Y3651D01*
X63Y3652D01*
X64Y3653D01*
X65Y3654D01*
X65Y3655D01*
X66Y3656D01*
X67Y3657D01*
X67Y3658D01*
X68Y3659D01*
X69Y3660D01*
X69Y3661D01*
X70Y3662D01*
X71Y3663D01*
X72Y3664D01*
X72Y3665D01*
X73Y3666D01*
X74Y3667D01*
X74Y3668D01*
X75Y3669D01*
X76Y3670D01*
X77Y3671D01*
X77Y3672D01*
X78Y3673D01*
X79Y3674D01*
X80Y3675D01*
X80Y3676D01*
X81Y3677D01*
X82Y3678D01*
X83Y3679D01*
X83Y3680D01*
X84Y3681D01*
X85Y3682D01*
X86Y3683D01*
X87Y3684D01*
X87Y3685D01*
X88Y3686D01*
X89Y3687D01*
X90Y3688D01*
X91Y3689D01*
X92Y3690D01*
X92Y3691D01*
X93Y3692D01*
X94Y3693D01*
X95Y3694D01*
X96Y3695D01*
X97Y3696D01*
X98Y3697D01*
X98Y3698D01*
X99Y3699D01*
X100Y3700D01*
X101Y3701D01*
X102Y3702D01*
X103Y3703D01*
X104Y3704D01*
X105Y3705D01*
X106Y3706D01*
X107Y3707D01*
X108Y3708D01*
X109Y3709D01*
X110Y3710D01*
X111Y3711D01*
X112Y3712D01*
X113Y3713D01*
X114Y3714D01*
X115Y3715D01*
X116Y3716D01*
X117Y3717D01*
X118Y3718D01*
X119Y3719D01*
X120Y3720D01*
X121Y3721D01*
X122Y3722D01*
X123Y3723D01*
X124Y3724D01*
X125Y3725D01*
X126Y3726D01*
X127Y3727D01*
X128Y3728D01*
X129Y3728D01*
X130Y3729D01*
X131Y3730D01*
X132Y3731D01*
X133Y3732D01*
X134Y3733D01*
X135Y3734D01*
X136Y3735D01*
X137Y3735D01*
X138Y3736D01*
X139Y3737D01*
X140Y3738D01*
X141Y3739D01*
X142Y3740D01*
X143Y3740D01*
X144Y3741D01*
X145Y3742D01*
X146Y3743D01*
X147Y3744D01*
X148Y3744D01*
X149Y3745D01*
X150Y3746D01*
X151Y3747D01*
X152Y3747D01*
X153Y3748D01*
X154Y3749D01*
X155Y3750D01*
X156Y3750D01*
X157Y3751D01*
X158Y3752D01*
X159Y3753D01*
X160Y3753D01*
X161Y3754D01*
X162Y3755D01*
X163Y3756D01*
X164Y3756D01*
X165Y3757D01*
X166Y3758D01*
X167Y3758D01*
X168Y3759D01*
X169Y3760D01*
X170Y3760D01*
X171Y3761D01*
X172Y3762D01*
X173Y3762D01*
X174Y3763D01*
X175Y3764D01*
X176Y3764D01*
X177Y3765D01*
X178Y3765D01*
X179Y3766D01*
X180Y3767D01*
X181Y3767D01*
X182Y3768D01*
X183Y3769D01*
X184Y3769D01*
X185Y3770D01*
X186Y3770D01*
X187Y3771D01*
X188Y3771D01*
X189Y3772D01*
X190Y3773D01*
X191Y3773D01*
X192Y3774D01*
X193Y3774D01*
X194Y3775D01*
X195Y3776D01*
X196Y3776D01*
X197Y3777D01*
X198Y3777D01*
X199Y3778D01*
X200Y3778D01*
X201Y3779D01*
X202Y3779D01*
X203Y3780D01*
X204Y3780D01*
X205Y3781D01*
X206Y3781D01*
X207Y3782D01*
X208Y3782D01*
X209Y3783D01*
X210Y3784D01*
X211Y3784D01*
X212Y3785D01*
X213Y3785D01*
X214Y3785D01*
X215Y3786D01*
X216Y3786D01*
X217Y3787D01*
X218Y3787D01*
X219Y3788D01*
X220Y3788D01*
X221Y3789D01*
X222Y3789D01*
X223Y3790D01*
X224Y3790D01*
X225Y3791D01*
X226Y3791D01*
X227Y3792D01*
X228Y3792D01*
X229Y3792D01*
X230Y3793D01*
X231Y3793D01*
X232Y3794D01*
X233Y3794D01*
X234Y3794D01*
X235Y3795D01*
X236Y3795D01*
X237Y3796D01*
X238Y3796D01*
X239Y3796D01*
X240Y3797D01*
X241Y3797D01*
X242Y3798D01*
X243Y3798D01*
X244Y3798D01*
X245Y3799D01*
X246Y3799D01*
X247Y3800D01*
X248Y3800D01*
X249Y3800D01*
X250Y3801D01*
X251Y3801D01*
X252Y3801D01*
X253Y3802D01*
X254Y3802D01*
X255Y3802D01*
X256Y3803D01*
X257Y3803D01*
X258Y3803D01*
X259Y3804D01*
X260Y3804D01*
X261Y3804D01*
X262Y3805D01*
X263Y3805D01*
X264Y3805D01*
X265Y3806D01*
X266Y3806D01*
X267Y3806D01*
X268Y3807D01*
X269Y3807D01*
X270Y3807D01*
X271Y3808D01*
X272Y3808D01*
X273Y3808D01*
X274Y3808D01*
X275Y3809D01*
X276Y3809D01*
X277Y3809D01*
X278Y3809D01*
X279Y3810D01*
X280Y3810D01*
X281Y3810D01*
X282Y3811D01*
X283Y3811D01*
X284Y3811D01*
X285Y3811D01*
X286Y3812D01*
X287Y3812D01*
X288Y3812D01*
X289Y3812D01*
X290Y3813D01*
X291Y3813D01*
X292Y3813D01*
X293Y3813D01*
X294Y3813D01*
X295Y3814D01*
X296Y3814D01*
X297Y3814D01*
X298Y3814D01*
X299Y3814D01*
X300Y3815D01*
X301Y3815D01*
X302Y3815D01*
X303Y3815D01*
X304Y3815D01*
X305Y3816D01*
X306Y3816D01*
X307Y3816D01*
X308Y3816D01*
X309Y3816D01*
X310Y3817D01*
X311Y3817D01*
X312Y3817D01*
X313Y3817D01*
X314Y3817D01*
X315Y3817D01*
X316Y3818D01*
X317Y3818D01*
X318Y3818D01*
X319Y3818D01*
X320Y3818D01*
X321Y3818D01*
X322Y3818D01*
X323Y3819D01*
X324Y3819D01*
X325Y3819D01*
X326Y3819D01*
X327Y3819D01*
X328Y3819D01*
X329Y3819D01*
X330Y3820D01*
X331Y3820D01*
X332Y3820D01*
X333Y3820D01*
X334Y3820D01*
X335Y3820D01*
X336Y3820D01*
X337Y3820D01*
X338Y3820D01*
X339Y3820D01*
X340Y3821D01*
X341Y3821D01*
X342Y3821D01*
X343Y3821D01*
X344Y3821D01*
X345Y3821D01*
X346Y3821D01*
X347Y3821D01*
X348Y3821D01*
X349Y3821D01*
X350Y3821D01*
X351Y3821D01*
X352Y3821D01*
X353Y3821D01*
X354Y3822D01*
D02*
G04 End of contour*
M02*